SeanSlab-NarrowExtrabold.ufo
<glyph name="exclam" format="1">
  <advance width="279"/>
  <unicode hex="0021"/>
  <outline>
    <contour>
      <point x="201" y="229" type="line"/>
      <point x="212" y="722" type="line"/>
      <point x="67" y="722" type="line"/>
      <point x="79" y="229" type="line"/>
    </contour>
    <contour>
      <point x="211" y="56" type="curve"/>
      <point x="211" y="100"/>
      <point x="180" y="122"/>
      <point x="139" y="122" type="curve"/>
      <point x="97" y="122"/>
      <point x="68" y="98"/>
      <point x="68" y="56" type="curve"/>
      <point x="210" y="56"/>
      <point x="69" y="56"/>
      <point x="211" y="56" type="curve"/>
      <point x="211" y="11"/>
      <point x="181" y="-9"/>
      <point x="138" y="-9" type="curve"/>
      <point x="96" y="-9"/>
      <point x="68" y="13"/>
      <point x="68" y="56" type="curve"/>
      <point x="210" y="56"/>
      <point x="69" y="56"/>
    </contour>
  </outline>
</glyph>
<glyph name="quotedbl" format="1">
  <advance width="448"/>
  <unicode hex="0022"/>
  <outline>
    <contour>
      <point x="185" y="616" type="line"/>
      <point x="194" y="834" type="line"/>
      <point x="58" y="834" type="line"/>
      <point x="67" y="616" type="line"/>
    </contour>
    <contour>
      <point x="381" y="616" type="line"/>
      <point x="390" y="834" type="line"/>
      <point x="254" y="834" type="line"/>
      <point x="263" y="616" type="line"/>
    </contour>
  </outline>
</glyph>
<glyph name="numbersign" format="1">
  <advance width="651"/>
  <unicode hex="0023"/>
  <outline>
    <contour>
      <point x="43" y="220" type="curve"/>
      <point x="518" y="220" type="curve"/>
      <point x="548" y="321" type="curve"/>
      <point x="73" y="321" type="curve"/>
    </contour>
    <contour>
      <point x="101" y="436" type="curve"/>
      <point x="580" y="436" type="curve"/>
      <point x="609" y="537" type="curve"/>
      <point x="130" y="537" type="curve"/>
    </contour>
    <contour>
      <point x="417" y="39" type="curve"/>
      <point x="610" y="722" type="curve"/>
      <point x="479" y="722" type="curve"/>
      <point x="286" y="39" type="curve"/>
    </contour>
    <contour>
      <point x="172" y="46" type="curve"/>
      <point x="364" y="722" type="curve"/>
      <point x="233" y="722" type="curve"/>
      <point x="46" y="46" type="curve"/>
    </contour>
  </outline>
</glyph>
<glyph name="dollar" format="1">
  <advance width="565"/>
  <unicode hex="0024"/>
  <outline>
    <contour>
      <point x="165" y="92" type="curve"/>
      <point x="165" y="212"/>
      <point x="165" y="99"/>
      <point x="165" y="219" type="curve"/>
      <point x="63" y="219"/>
      <point x="165" y="219"/>
      <point x="63" y="219" type="curve"/>
      <point x="63" y="99"/>
      <point x="63" y="212"/>
      <point x="63" y="92" type="curve"/>
      <point x="165" y="92"/>
      <point x="63" y="92"/>
    </contour>
    <contour>
      <point x="380" y="635" type="curve"/>
      <point x="380" y="515"/>
      <point x="380" y="628"/>
      <point x="380" y="508" type="curve"/>
      <point x="482" y="508"/>
      <point x="380" y="508"/>
      <point x="482" y="508" type="curve"/>
      <point x="482" y="628"/>
      <point x="482" y="515"/>
      <point x="482" y="635" type="curve"/>
      <point x="380" y="635"/>
      <point x="482" y="635"/>
    </contour>
    <contour>
      <point x="333" y="-41" type="curve"/>
      <point x="333" y="-11"/>
      <point x="333" y="62"/>
      <point x="333" y="93" type="curve"/>
      <point x="202" y="93"/>
      <point x="333" y="93"/>
      <point x="202" y="93" type="curve"/>
      <point x="202" y="62"/>
      <point x="202" y="-11"/>
      <point x="202" y="-41" type="curve"/>
      <point x="333" y="-41"/>
      <point x="202" y="-41"/>
    </contour>
    <contour>
      <point x="344" y="636" type="curve"/>
      <point x="344" y="667"/>
      <point x="344" y="743"/>
      <point x="344" y="773" type="curve"/>
      <point x="213" y="773"/>
      <point x="344" y="773"/>
      <point x="213" y="773" type="curve"/>
      <point x="213" y="743"/>
      <point x="213" y="667"/>
      <point x="213" y="636" type="curve"/>
      <point x="344" y="636"/>
      <point x="213" y="636"/>
    </contour>
    <contour>
      <point x="63" y="92" type="curve"/>
      <point x="118" y="64"/>
      <point x="185" y="43"/>
      <point x="262" y="43" type="curve"/>
      <point x="408" y="43"/>
      <point x="525" y="100"/>
      <point x="525" y="218" type="curve"/>
      <point x="525" y="322"/>
      <point x="428" y="371"/>
      <point x="319" y="419" type="curve"/>
      <point x="252" y="447"/>
      <point x="191" y="467"/>
      <point x="191" y="523" type="curve"/>
      <point x="191" y="564"/>
      <point x="228" y="588"/>
      <point x="280" y="588" type="curve"/>
      <point x="334" y="588"/>
      <point x="371" y="574"/>
      <point x="417" y="550" type="curve"/>
      <point x="482" y="635"/>
      <point x="417" y="550"/>
      <point x="482" y="635" type="curve"/>
      <point x="417" y="669"/>
      <point x="363" y="687"/>
      <point x="286" y="687" type="curve"/>
      <point x="156" y="687"/>
      <point x="59" y="631"/>
      <point x="59" y="523" type="curve"/>
      <point x="59" y="422"/>
      <point x="137" y="373"/>
      <point x="242" y="328" type="curve"/>
      <point x="315" y="298"/>
      <point x="393" y="277"/>
      <point x="393" y="214" type="curve"/>
      <point x="393" y="162"/>
      <point x="339" y="142"/>
      <point x="274" y="142" type="curve"/>
      <point x="219" y="142"/>
      <point x="173" y="163"/>
      <point x="134" y="182" type="curve"/>
      <point x="63" y="92"/>
      <point x="134" y="182"/>
    </contour>
  </outline>
</glyph>
<glyph name="percent" format="1">
  <advance width="1080"/>
  <unicode hex="0025"/>
  <outline>
    <contour>
      <point x="414" y="-42" type="line"/>
      <point x="795" y="713" type="line"/>
      <point x="675" y="713" type="line"/>
      <point x="294" y="-42" type="line"/>
    </contour>
    <contour>
      <point x="151" y="498" type="curve"/>
      <point x="151" y="569"/>
      <point x="174" y="623"/>
      <point x="238" y="623" type="curve"/>
      <point x="303" y="624"/>
      <point x="327" y="569"/>
      <point x="327" y="497" type="curve"/>
      <point x="327" y="426"/>
      <point x="308" y="369"/>
      <point x="245" y="369" type="curve"/>
      <point x="177" y="369"/>
      <point x="151" y="424"/>
      <point x="151" y="498" type="curve"/>
      <point x="109" y="498"/>
      <point x="79" y="498"/>
      <point x="37" y="498" type="curve"/>
      <point x="37" y="365"/>
      <point x="109" y="276"/>
      <point x="239" y="276" type="curve"/>
      <point x="372" y="276"/>
      <point x="447" y="365"/>
      <point x="447" y="501" type="curve"/>
      <point x="447" y="632"/>
      <point x="372" y="716"/>
      <point x="244" y="716" type="curve"/>
      <point x="113" y="716"/>
      <point x="37" y="631"/>
      <point x="37" y="498" type="curve"/>
      <point x="79" y="498"/>
      <point x="109" y="498"/>
    </contour>
    <contour>
      <point x="748" y="178" type="curve"/>
      <point x="748" y="248"/>
      <point x="771" y="302"/>
      <point x="835" y="302" type="curve"/>
      <point x="900" y="303"/>
      <point x="923" y="248"/>
      <point x="923" y="176" type="curve"/>
      <point x="923" y="105"/>
      <point x="905" y="48"/>
      <point x="841" y="48" type="curve"/>
      <point x="774" y="48"/>
      <point x="748" y="104"/>
      <point x="748" y="178" type="curve"/>
      <point x="705" y="178"/>
      <point x="676" y="178"/>
      <point x="634" y="178" type="curve"/>
      <point x="634" y="44"/>
      <point x="706" y="-44"/>
      <point x="836" y="-44" type="curve"/>
      <point x="968" y="-44"/>
      <point x="1043" y="45"/>
      <point x="1043" y="181" type="curve"/>
      <point x="1043" y="312"/>
      <point x="969" y="395"/>
      <point x="840" y="395" type="curve"/>
      <point x="710" y="395"/>
      <point x="634" y="310"/>
      <point x="634" y="178" type="curve"/>
      <point x="676" y="178"/>
      <point x="705" y="178"/>
    </contour>
  </outline>
</glyph>
<glyph name="ampersand" format="1">
  <advance width="673"/>
  <unicode hex="0026"/>
  <outline>
    <contour>
      <point x="650" y="50" type="line"/>
      <point x="559" y="147"/>
      <point x="453" y="273"/>
      <point x="358" y="375" type="curve"/>
      <point x="308" y="431"/>
      <point x="239" y="474"/>
      <point x="239" y="552" type="curve"/>
      <point x="239" y="592"/>
      <point x="255" y="627"/>
      <point x="293" y="627" type="curve"/>
      <point x="334" y="627"/>
      <point x="355" y="598"/>
      <point x="355" y="554" type="curve"/>
      <point x="355" y="485"/>
      <point x="307" y="451"/>
      <point x="246" y="416" type="curve"/>
      <point x="146" y="358"/>
      <point x="54" y="311"/>
      <point x="54" y="198" type="curve"/>
      <point x="54" y="69"/>
      <point x="152" y="-5"/>
      <point x="287" y="-5" type="curve"/>
      <point x="473" y="-5"/>
      <point x="574" y="129"/>
      <point x="632" y="313" type="curve"/>
      <point x="519" y="338"/>
      <point x="632" y="313"/>
      <point x="519" y="338" type="curve"/>
      <point x="477" y="206"/>
      <point x="424" y="96"/>
      <point x="293" y="96" type="curve"/>
      <point x="228" y="96"/>
      <point x="185" y="133"/>
      <point x="185" y="198" type="curve"/>
      <point x="185" y="269"/>
      <point x="238" y="299"/>
      <point x="300" y="336" type="curve"/>
      <point x="397" y="394"/>
      <point x="485" y="443"/>
      <point x="486" y="554" type="curve"/>
      <point x="486" y="663"/>
      <point x="408" y="727"/>
      <point x="298" y="727" type="curve"/>
      <point x="189" y="727"/>
      <point x="114" y="660"/>
      <point x="114" y="552" type="curve"/>
      <point x="114" y="448"/>
      <point x="195" y="389"/>
      <point x="266" y="314" type="curve"/>
      <point x="357" y="215"/>
      <point x="476" y="77"/>
      <point x="563" y="-17" type="curve"/>
    </contour>
  </outline>
</glyph>
<glyph name="parenright" format="1">
  <advance width="372"/>
  <unicode hex="0029"/>
  <outline>
    <contour>
      <point x="75" y="-292" type="curve"/>
      <point x="243" y="-97"/>
      <point x="331" y="70"/>
      <point x="331" y="329" type="curve"/>
      <point x="331" y="582"/>
      <point x="250" y="746"/>
      <point x="78" y="930" type="curve"/>
      <point x="1" y="860"/>
      <point x="78" y="930"/>
      <point x="1" y="860" type="curve"/>
      <point x="147" y="697"/>
      <point x="202" y="544"/>
      <point x="202" y="324" type="curve"/>
      <point x="202" y="100"/>
      <point x="139" y="-54"/>
      <point x="-3" y="-227" type="curve"/>
      <point x="75" y="-292"/>
      <point x="-3" y="-227"/>
    </contour>
  </outline>
</glyph>
<glyph name="asterisk" format="1">
  <advance width="551"/>
  <unicode hex="002A"/>
  <outline>
    <contour>
      <point x="317" y="559" type="line"/>
      <point x="324" y="778" type="line"/>
      <point x="227" y="778" type="line"/>
      <point x="234" y="559" type="line"/>
    </contour>
    <contour>
      <point x="294" y="517" type="line"/>
      <point x="501" y="585" type="line"/>
      <point x="469" y="676" type="line"/>
      <point x="266" y="596" type="line"/>
    </contour>
    <contour>
      <point x="247" y="525" type="line"/>
      <point x="381" y="352" type="line"/>
      <point x="455" y="415" type="line"/>
      <point x="311" y="578" type="line"/>
    </contour>
    <contour>
      <point x="241" y="579" type="line"/>
      <point x="97" y="414" type="line"/>
      <point x="172" y="352" type="line"/>
      <point x="306" y="525" type="line"/>
    </contour>
    <contour>
      <point x="286" y="595" type="line"/>
      <point x="83" y="675" type="line"/>
      <point x="50" y="584" type="line"/>
      <point x="257" y="517" type="line"/>
    </contour>
  </outline>
</glyph>
<glyph name="plus" format="1">
  <advance width="633"/>
  <unicode hex="002B"/>
  <outline>
    <contour>
      <point x="42" y="259" type="curve"/>
      <point x="591" y="259" type="line"/>
      <point x="591" y="369"/>
      <point x="591" y="259"/>
      <point x="591" y="369" type="curve"/>
      <point x="42" y="369" type="line"/>
      <point x="42" y="259"/>
      <point x="42" y="369"/>
    </contour>
    <contour>
      <point x="379" y="44" type="curve"/>
      <point x="379" y="582" type="line"/>
      <point x="248" y="582"/>
      <point x="387" y="582"/>
      <point x="256" y="582" type="curve"/>
      <point x="256" y="44" type="line"/>
      <point x="387" y="44"/>
      <point x="248" y="44"/>
    </contour>
  </outline>
</glyph>
<glyph name="hyphen" format="1">
  <advance width="398"/>
  <unicode hex="002D"/>
  <outline>
    <contour>
      <point x="69" y="227" type="curve"/>
      <point x="156" y="227"/>
      <point x="243" y="227"/>
      <point x="329" y="227" type="curve"/>
      <point x="329" y="337"/>
      <point x="329" y="227"/>
      <point x="329" y="337" type="curve"/>
      <point x="243" y="337"/>
      <point x="156" y="337"/>
      <point x="69" y="337" type="curve"/>
      <point x="69" y="227"/>
      <point x="69" y="337"/>
    </contour>
  </outline>
</glyph>
<glyph name="period" format="1">
  <advance width="269"/>
  <unicode hex="002E"/>
  <outline>
    <contour>
      <point x="206" y="56" type="curve"/>
      <point x="206" y="100"/>
      <point x="175" y="122"/>
      <point x="133" y="122" type="curve"/>
      <point x="91" y="122"/>
      <point x="63" y="98"/>
      <point x="63" y="56" type="curve"/>
      <point x="205" y="56"/>
      <point x="64" y="56"/>
      <point x="206" y="56" type="curve"/>
      <point x="206" y="11"/>
      <point x="176" y="-9"/>
      <point x="133" y="-9" type="curve"/>
      <point x="90" y="-9"/>
      <point x="63" y="13"/>
      <point x="63" y="56" type="curve"/>
      <point x="205" y="56"/>
      <point x="64" y="56"/>
    </contour>
  </outline>
</glyph>
<glyph name="slash" format="1">
  <advance width="564"/>
  <unicode hex="002F"/>
  <outline>
    <contour>
      <point x="158" y="-19" type="curve"/>
      <point x="284" y="250"/>
      <point x="411" y="520"/>
      <point x="538" y="789" type="curve"/>
      <point x="406" y="789"/>
      <point x="538" y="789"/>
      <point x="406" y="789" type="curve"/>
      <point x="280" y="520"/>
      <point x="153" y="250"/>
      <point x="26" y="-19" type="curve"/>
      <point x="158" y="-19"/>
      <point x="26" y="-19"/>
    </contour>
  </outline>
</glyph>
<glyph name="zero" format="1">
  <advance width="715"/>
  <unicode hex="0030"/>
  <outline>
    <contour>
      <point x="184" y="360" type="curve"/>
      <point x="184" y="509"/>
      <point x="220" y="622"/>
      <point x="354" y="622" type="curve"/>
      <point x="488" y="622"/>
      <point x="532" y="512"/>
      <point x="532" y="363" type="curve"/>
      <point x="532" y="214"/>
      <point x="496" y="100"/>
      <point x="364" y="100" type="curve"/>
      <point x="229" y="100"/>
      <point x="184" y="211"/>
      <point x="184" y="360" type="curve"/>
      <point x="56" y="360"/>
      <point x="183" y="360"/>
      <point x="55" y="360" type="curve"/>
      <point x="55" y="143"/>
      <point x="153" y="-5"/>
      <point x="358" y="-5" type="curve"/>
      <point x="564" y="-5"/>
      <point x="660" y="144"/>
      <point x="660" y="363" type="curve"/>
      <point x="660" y="579"/>
      <point x="568" y="727"/>
      <point x="366" y="727" type="curve"/>
      <point x="157" y="727"/>
      <point x="55" y="580"/>
      <point x="55" y="360" type="curve"/>
      <point x="183" y="360"/>
      <point x="56" y="360"/>
    </contour>
  </outline>
</glyph>
<glyph name="one" format="1">
  <advance width="454"/>
  <unicode hex="0031"/>
  <outline>
    <contour>
      <point x="266" y="0" type="curve"/>
      <point x="315" y="0"/>
      <point x="365" y="0"/>
      <point x="415" y="0" type="curve"/>
      <point x="415" y="101"/>
      <point x="415" y="0"/>
      <point x="415" y="101" type="curve"/>
      <point x="266" y="101"/>
      <point x="415" y="101"/>
      <point x="266" y="101" type="curve"/>
      <point x="266" y="0"/>
      <point x="266" y="101"/>
    </contour>
    <contour>
      <point x="266" y="101" type="curve"/>
      <point x="116" y="101"/>
      <point x="266" y="101"/>
      <point x="116" y="101" type="curve"/>
      <point x="116" y="0"/>
      <point x="116" y="101"/>
      <point x="116" y="0" type="curve"/>
      <point x="166" y="0"/>
      <point x="216" y="0"/>
      <point x="266" y="0" type="curve"/>
      <point x="266" y="101"/>
      <point x="266" y="0"/>
    </contour>
    <contour>
      <point x="92" y="481" type="curve"/>
      <point x="295" y="655"/>
      <point x="92" y="481"/>
      <point x="295" y="655" type="curve"/>
      <point x="199" y="722"/>
      <point x="295" y="655"/>
      <point x="199" y="722" type="curve"/>
      <point x="21" y="565"/>
      <point x="199" y="722"/>
      <point x="21" y="565" type="curve"/>
      <point x="92" y="481"/>
      <point x="21" y="565"/>
    </contour>
    <contour>
      <point x="330" y="0" type="curve"/>
      <point x="330" y="241"/>
      <point x="330" y="481"/>
      <point x="330" y="722" type="curve"/>
      <point x="199" y="722"/>
      <point x="330" y="722"/>
      <point x="199" y="722" type="curve"/>
      <point x="199" y="481"/>
      <point x="199" y="241"/>
      <point x="199" y="0" type="curve"/>
      <point x="330" y="0"/>
      <point x="199" y="0"/>
    </contour>
  </outline>
</glyph>
<glyph name="two" format="1">
  <advance width="596"/>
  <unicode hex="0032"/>
  <outline>
    <contour>
      <point x="537" y="100" type="curve"/>
      <point x="537" y="205"/>
      <point x="537" y="90"/>
      <point x="537" y="194" type="curve"/>
      <point x="435" y="194"/>
      <point x="537" y="194"/>
      <point x="435" y="194" type="curve"/>
      <point x="435" y="90"/>
      <point x="435" y="205"/>
      <point x="435" y="100" type="curve"/>
      <point x="537" y="100"/>
      <point x="435" y="100"/>
    </contour>
    <contour>
      <point x="49" y="0" type="curve"/>
      <point x="242" y="0"/>
      <point x="408" y="0"/>
      <point x="537" y="0" type="curve"/>
      <point x="537" y="100"/>
      <point x="537" y="0"/>
      <point x="537" y="100" type="curve"/>
      <point x="386" y="100"/>
      <point x="201" y="101"/>
      <point x="49" y="101" type="curve"/>
      <point x="49" y="0"/>
      <point x="49" y="100"/>
    </contour>
    <contour>
      <point x="141" y="520" type="curve"/>
      <point x="182" y="580"/>
      <point x="212" y="622"/>
      <point x="277" y="622" type="curve"/>
      <point x="344" y="622"/>
      <point x="377" y="578"/>
      <point x="377" y="505" type="curve"/>
      <point x="377" y="407"/>
      <point x="317" y="343"/>
      <point x="244" y="279" type="curve"/>
      <point x="179" y="218"/>
      <point x="117" y="162"/>
      <point x="49" y="101" type="curve"/>
      <point x="50" y="0"/>
      <point x="49" y="100"/>
      <point x="50" y="0" type="curve"/>
      <point x="185" y="59"/>
      <point x="254" y="135"/>
      <point x="327" y="203" type="curve"/>
      <point x="426" y="291"/>
      <point x="498" y="371"/>
      <point x="498" y="510" type="curve"/>
      <point x="498" y="649"/>
      <point x="419" y="727"/>
      <point x="282" y="727" type="curve"/>
      <point x="173" y="727"/>
      <point x="98" y="671"/>
      <point x="51" y="576" type="curve"/>
      <point x="141" y="520"/>
      <point x="51" y="576"/>
    </contour>
  </outline>
</glyph>
<glyph name="three" format="1">
  <advance width="539"/>
  <unicode hex="0033"/>
  <outline>
    <contour>
      <point x="43" y="58" type="curve"/>
      <point x="97" y="20"/>
      <point x="153" y="-5"/>
      <point x="229" y="-5" type="curve"/>
      <point x="383" y="-5"/>
      <point x="485" y="61"/>
      <point x="485" y="211" type="curve"/>
      <point x="485" y="343"/>
      <point x="352" y="408"/>
      <point x="155" y="408" type="curve"/>
      <point x="155" y="325"/>
      <point x="155" y="407"/>
      <point x="155" y="324" type="curve"/>
      <point x="267" y="324"/>
      <point x="359" y="283"/>
      <point x="359" y="207" type="curve"/>
      <point x="359" y="132"/>
      <point x="303" y="100"/>
      <point x="234" y="100" type="curve"/>
      <point x="192" y="100"/>
      <point x="152" y="113"/>
      <point x="110" y="137" type="curve"/>
      <point x="43" y="58"/>
      <point x="110" y="137"/>
    </contour>
    <contour>
      <point x="122" y="568" type="curve"/>
      <point x="143" y="593"/>
      <point x="182" y="622"/>
      <point x="226" y="622" type="curve"/>
      <point x="290" y="622"/>
      <point x="330" y="592"/>
      <point x="330" y="528" type="curve"/>
      <point x="330" y="461"/>
      <point x="253" y="424"/>
      <point x="155" y="424" type="curve"/>
      <point x="155" y="341"/>
      <point x="155" y="423"/>
      <point x="155" y="340" type="curve"/>
      <point x="325" y="340"/>
      <point x="455" y="403"/>
      <point x="455" y="532" type="curve"/>
      <point x="455" y="661"/>
      <point x="368" y="727"/>
      <point x="237" y="727" type="curve"/>
      <point x="153" y="727"/>
      <point x="80" y="685"/>
      <point x="44" y="636" type="curve"/>
      <point x="122" y="568"/>
      <point x="44" y="636"/>
    </contour>
  </outline>
</glyph>
<glyph name="four" format="1">
  <advance width="583"/>
  <unicode hex="0034"/>
  <outline>
    <contour>
      <point x="369" y="100" type="line"/>
      <point x="237" y="100" type="line"/>
      <point x="237" y="0" type="line"/>
      <point x="369" y="0" type="line"/>
    </contour>
    <contour>
      <point x="369" y="0" type="line"/>
      <point x="502" y="0" type="line"/>
      <point x="502" y="100" type="line"/>
      <point x="369" y="100" type="line"/>
    </contour>
    <contour>
      <point x="84" y="248" type="line"/>
      <point x="411" y="685" type="line"/>
      <point x="305" y="699" type="line"/>
      <point x="32" y="341" type="line"/>
    </contour>
    <contour>
      <point x="546" y="341" type="line"/>
      <point x="32" y="341" type="line"/>
      <point x="33" y="230" type="line"/>
      <point x="546" y="230" type="line"/>
    </contour>
    <contour>
      <point x="436" y="42" type="line"/>
      <point x="436" y="699" type="line"/>
      <point x="307" y="699" type="line"/>
      <point x="307" y="42" type="line"/>
    </contour>
  </outline>
</glyph>
<glyph name="five" format="1">
  <advance width="532"/>
  <unicode hex="0035"/>
  <outline>
    <contour>
      <point x="68" y="722" type="curve"/>
      <point x="68" y="625"/>
      <point x="68" y="516"/>
      <point x="68" y="380" type="curve"/>
      <point x="193" y="343"/>
      <point x="68" y="380"/>
      <point x="193" y="343" type="curve"/>
      <point x="193" y="432"/>
      <point x="193" y="533"/>
      <point x="193" y="622" type="curve"/>
      <point x="68" y="722"/>
      <point x="193" y="622"/>
    </contour>
    <contour>
      <point x="193" y="343" type="curve"/>
      <point x="207" y="360"/>
      <point x="232" y="372"/>
      <point x="256" y="372" type="curve"/>
      <point x="325" y="372"/>
      <point x="353" y="318"/>
      <point x="353" y="241" type="curve"/>
      <point x="353" y="162"/>
      <point x="307" y="100"/>
      <point x="232" y="100" type="curve"/>
      <point x="185" y="100"/>
      <point x="152" y="110"/>
      <point x="110" y="133" type="curve"/>
      <point x="47" y="43"/>
      <point x="110" y="133"/>
      <point x="47" y="43" type="curve"/>
      <point x="105" y="10"/>
      <point x="158" y="-5"/>
      <point x="226" y="-5" type="curve"/>
      <point x="375" y="-5"/>
      <point x="484" y="93"/>
      <point x="484" y="240" type="curve"/>
      <point x="484" y="381"/>
      <point x="405" y="479"/>
      <point x="271" y="479" type="curve"/>
      <point x="202" y="479"/>
      <point x="131" y="458"/>
      <point x="68" y="380" type="curve"/>
      <point x="193" y="343"/>
      <point x="68" y="380"/>
    </contour>
    <contour>
      <point x="455" y="722" type="curve"/>
      <point x="330" y="722"/>
      <point x="187" y="722"/>
      <point x="68" y="722" type="curve"/>
      <point x="193" y="622"/>
      <point x="68" y="722"/>
      <point x="193" y="622" type="curve"/>
      <point x="271" y="622"/>
      <point x="371" y="622"/>
      <point x="455" y="622" type="curve"/>
      <point x="455" y="722"/>
      <point x="455" y="622"/>
    </contour>
  </outline>
</glyph>
<glyph name="six" format="1">
  <advance width="595"/>
  <unicode hex="0036"/>
  <outline>
    <contour>
      <point x="158" y="215" type="curve"/>
      <point x="185" y="290"/>
      <point x="231" y="341"/>
      <point x="308" y="341" type="curve"/>
      <point x="380" y="341"/>
      <point x="414" y="296"/>
      <point x="414" y="223" type="curve"/>
      <point x="414" y="153"/>
      <point x="378" y="108"/>
      <point x="310" y="108" type="curve"/>
      <point x="223" y="108"/>
      <point x="177" y="167"/>
      <point x="177" y="258" type="curve"/>
      <point x="177" y="464"/>
      <point x="310" y="569"/>
      <point x="517" y="633" type="curve"/>
      <point x="484" y="729"/>
      <point x="517" y="633"/>
      <point x="484" y="729" type="curve"/>
      <point x="232" y="656"/>
      <point x="51" y="518"/>
      <point x="51" y="253" type="curve"/>
      <point x="51" y="90"/>
      <point x="146" y="-11"/>
      <point x="307" y="-11" type="curve"/>
      <point x="455" y="-11"/>
      <point x="545" y="77"/>
      <point x="545" y="223" type="curve"/>
      <point x="545" y="365"/>
      <point x="461" y="446"/>
      <point x="327" y="446" type="curve"/>
      <point x="195" y="446"/>
      <point x="114" y="338"/>
      <point x="88" y="248" type="curve"/>
      <point x="158" y="215"/>
      <point x="88" y="248"/>
    </contour>
  </outline>
</glyph>
<glyph name="seven" format="1">
  <advance width="529"/>
  <unicode hex="0037"/>
  <outline>
    <contour>
      <point x="160" y="527" type="curve"/>
      <point x="160" y="624" type="curve"/>
      <point x="57" y="624" type="curve"/>
      <point x="57" y="527" type="curve"/>
    </contour>
    <contour>
      <point x="57" y="622" type="curve"/>
      <point x="508" y="622" type="curve"/>
      <point x="508" y="722" type="curve"/>
      <point x="57" y="722" type="curve"/>
    </contour>
    <contour>
      <point x="432" y="722" type="curve"/>
      <point x="62" y="0" type="curve"/>
      <point x="199" y="0" type="curve"/>
      <point x="508" y="622" type="curve"/>
    </contour>
  </outline>
</glyph>
<glyph name="eight" format="1">
  <advance width="588"/>
  <unicode hex="0038"/>
  <outline>
    <contour>
      <point x="74" y="539" type="curve"/>
      <point x="74" y="428"/>
      <point x="154" y="392"/>
      <point x="256" y="342" type="curve"/>
      <point x="336" y="302"/>
      <point x="400" y="273"/>
      <point x="400" y="192" type="curve"/>
      <point x="400" y="130"/>
      <point x="360" y="99"/>
      <point x="295" y="99" type="curve"/>
      <point x="229" y="99"/>
      <point x="188" y="129"/>
      <point x="188" y="192" type="curve"/>
      <point x="188" y="276"/>
      <point x="254" y="301"/>
      <point x="335" y="342" type="curve"/>
      <point x="434" y="393"/>
      <point x="514" y="428"/>
      <point x="514" y="537" type="curve"/>
      <point x="514" y="667"/>
      <point x="431" y="727"/>
      <point x="295" y="727" type="curve"/>
      <point x="162" y="727"/>
      <point x="74" y="665"/>
      <point x="74" y="539" type="curve"/>
      <point x="205" y="539"/>
      <point x="74" y="539"/>
      <point x="205" y="539" type="curve"/>
      <point x="205" y="592"/>
      <point x="236" y="623"/>
      <point x="291" y="623" type="curve"/>
      <point x="349" y="623"/>
      <point x="383" y="594"/>
      <point x="383" y="537" type="curve"/>
      <point x="383" y="467"/>
      <point x="324" y="446"/>
      <point x="255" y="413" type="curve"/>
      <point x="143" y="356"/>
      <point x="57" y="314"/>
      <point x="57" y="192" type="curve"/>
      <point x="57" y="58"/>
      <point x="148" y="-5"/>
      <point x="289" y="-5" type="curve"/>
      <point x="433" y="-5"/>
      <point x="531" y="55"/>
      <point x="531" y="192" type="curve"/>
      <point x="531" y="313"/>
      <point x="445" y="357"/>
      <point x="336" y="413" type="curve"/>
      <point x="266" y="449"/>
      <point x="205" y="468"/>
      <point x="205" y="539" type="curve"/>
      <point x="74" y="539"/>
      <point x="205" y="539"/>
    </contour>
  </outline>
</glyph>
<glyph name="nine" format="1">
  <advance width="596"/>
  <unicode hex="0039"/>
  <outline>
    <contour>
      <point x="444" y="482" type="curve"/>
      <point x="413" y="411"/>
      <point x="370" y="381"/>
      <point x="295" y="381" type="curve"/>
      <point x="220" y="381"/>
      <point x="178" y="428"/>
      <point x="178" y="504" type="curve"/>
      <point x="178" y="572"/>
      <point x="218" y="614"/>
      <point x="283" y="614" type="curve"/>
      <point x="373" y="614"/>
      <point x="418" y="556"/>
      <point x="418" y="464" type="curve"/>
      <point x="418" y="259"/>
      <point x="291" y="152"/>
      <point x="86" y="88" type="curve"/>
      <point x="130" y="-13"/>
      <point x="86" y="88"/>
      <point x="130" y="-13" type="curve"/>
      <point x="369" y="56"/>
      <point x="544" y="204"/>
      <point x="544" y="469" type="curve"/>
      <point x="544" y="632"/>
      <point x="450" y="733"/>
      <point x="288" y="733" type="curve"/>
      <point x="141" y="733"/>
      <point x="51" y="645"/>
      <point x="51" y="499" type="curve"/>
      <point x="51" y="357"/>
      <point x="140" y="276"/>
      <point x="283" y="276" type="curve"/>
      <point x="404" y="276"/>
      <point x="471" y="364"/>
      <point x="507" y="455" type="curve"/>
      <point x="444" y="482"/>
      <point x="507" y="455"/>
    </contour>
  </outline>
</glyph>
<glyph name="colon" format="1">
  <advance width="282"/>
  <unicode hex="003A"/>
  <outline>
    <contour>
      <point x="212" y="357" type="curve"/>
      <point x="212" y="401"/>
      <point x="181" y="423"/>
      <point x="140" y="423" type="curve"/>
      <point x="98" y="423"/>
      <point x="70" y="399"/>
      <point x="70" y="357" type="curve"/>
      <point x="211" y="357"/>
      <point x="70" y="357"/>
      <point x="212" y="357" type="curve"/>
      <point x="212" y="312"/>
      <point x="182" y="292"/>
      <point x="140" y="292" type="curve"/>
      <point x="97" y="292"/>
      <point x="70" y="314"/>
      <point x="70" y="357" type="curve"/>
      <point x="211" y="357"/>
      <point x="70" y="357"/>
    </contour>
    <contour>
      <point x="212" y="73" type="curve"/>
      <point x="212" y="117"/>
      <point x="181" y="139"/>
      <point x="140" y="139" type="curve"/>
      <point x="97" y="139"/>
      <point x="69" y="115"/>
      <point x="69" y="73" type="curve"/>
      <point x="211" y="73"/>
      <point x="70" y="73"/>
      <point x="212" y="73" type="curve"/>
      <point x="212" y="28"/>
      <point x="182" y="8"/>
      <point x="139" y="8" type="curve"/>
      <point x="97" y="8"/>
      <point x="69" y="30"/>
      <point x="69" y="73" type="curve"/>
      <point x="211" y="73"/>
      <point x="70" y="73"/>
    </contour>
  </outline>
</glyph>
<glyph name="semicolon" format="1">
  <advance width="302"/>
  <unicode hex="003B"/>
  <outline>
    <contour>
      <point x="67" y="-191" type="line"/>
      <point x="170" y="-191"/>
      <point x="236" y="-122"/>
      <point x="236" y="-23" type="curve"/>
      <point x="236" y="56"/>
      <point x="202" y="104"/>
      <point x="151" y="104" type="curve"/>
      <point x="106" y="104"/>
      <point x="76" y="81"/>
      <point x="76" y="38" type="curve"/>
      <point x="76" y="1"/>
      <point x="101" y="-25"/>
      <point x="143" y="-26" type="curve"/>
      <point x="142" y="-57"/>
      <point x="137" y="-109"/>
      <point x="67" y="-119" type="curve"/>
    </contour>
    <contour>
      <point x="221" y="383" type="curve"/>
      <point x="221" y="427"/>
      <point x="190" y="448"/>
      <point x="148" y="448" type="curve"/>
      <point x="106" y="448"/>
      <point x="78" y="425"/>
      <point x="78" y="383" type="curve"/>
      <point x="220" y="383"/>
      <point x="79" y="383"/>
      <point x="221" y="383" type="curve"/>
      <point x="221" y="338"/>
      <point x="191" y="318"/>
      <point x="148" y="318" type="curve"/>
      <point x="105" y="318"/>
      <point x="78" y="340"/>
      <point x="78" y="383" type="curve"/>
      <point x="220" y="383"/>
      <point x="79" y="383"/>
    </contour>
  </outline>
</glyph>
<glyph name="less" format="1">
  <advance width="651"/>
  <unicode hex="003C"/>
  <outline>
    <contour>
      <point x="580" y="625" type="curve"/>
      <point x="399" y="535"/>
      <point x="218" y="445"/>
      <point x="37" y="355" type="curve"/>
      <point x="37" y="245"/>
      <point x="37" y="355"/>
      <point x="37" y="245" type="curve"/>
      <point x="218" y="335"/>
      <point x="399" y="425"/>
      <point x="580" y="515" type="curve"/>
      <point x="580" y="625"/>
      <point x="580" y="515"/>
    </contour>
    <contour>
      <point x="590" y="91" type="curve"/>
      <point x="405" y="179"/>
      <point x="221" y="267"/>
      <point x="37" y="355" type="curve"/>
      <point x="37" y="245"/>
      <point x="37" y="355"/>
      <point x="37" y="245" type="curve"/>
      <point x="221" y="157"/>
      <point x="405" y="69"/>
      <point x="590" y="-19" type="curve"/>
      <point x="590" y="91"/>
      <point x="590" y="-19"/>
    </contour>
  </outline>
</glyph>
<glyph name="equal" format="1">
  <advance width="709"/>
  <unicode hex="003D"/>
  <outline>
    <contour>
      <point x="74" y="165" type="curve"/>
      <point x="261" y="165"/>
      <point x="448" y="165"/>
      <point x="635" y="165" type="curve"/>
      <point x="635" y="270"/>
      <point x="635" y="165"/>
      <point x="635" y="270" type="curve"/>
      <point x="448" y="270"/>
      <point x="261" y="270"/>
      <point x="74" y="270" type="curve"/>
      <point x="74" y="165"/>
      <point x="74" y="270"/>
    </contour>
    <contour>
      <point x="74" y="387" type="curve"/>
      <point x="261" y="387"/>
      <point x="448" y="387"/>
      <point x="635" y="387" type="curve"/>
      <point x="635" y="492"/>
      <point x="635" y="387"/>
      <point x="635" y="492" type="curve"/>
      <point x="448" y="492"/>
      <point x="261" y="492"/>
      <point x="74" y="492" type="curve"/>
      <point x="74" y="387"/>
      <point x="74" y="492"/>
    </contour>
  </outline>
</glyph>
<glyph name="greater" format="1">
  <advance width="652"/>
  <unicode hex="003E"/>
  <outline>
    <contour>
      <point x="71" y="-19" type="curve"/>
      <point x="252" y="71"/>
      <point x="434" y="161"/>
      <point x="615" y="251" type="curve"/>
      <point x="615" y="361"/>
      <point x="615" y="251"/>
      <point x="615" y="361" type="curve"/>
      <point x="434" y="271"/>
      <point x="252" y="181"/>
      <point x="71" y="91" type="curve"/>
      <point x="71" y="-19"/>
      <point x="71" y="91"/>
    </contour>
    <contour>
      <point x="62" y="515" type="curve"/>
      <point x="246" y="427"/>
      <point x="430" y="339"/>
      <point x="615" y="251" type="curve"/>
      <point x="615" y="361"/>
      <point x="615" y="251"/>
      <point x="615" y="361" type="curve"/>
      <point x="430" y="449"/>
      <point x="246" y="537"/>
      <point x="62" y="625" type="curve"/>
      <point x="62" y="515"/>
      <point x="62" y="625"/>
    </contour>
  </outline>
</glyph>
<glyph name="question" format="1">
  <advance width="523"/>
  <unicode hex="003F"/>
  <outline>
    <contour>
      <point x="180" y="375" type="curve"/>
      <point x="180" y="338"/>
      <point x="180" y="258"/>
      <point x="180" y="221" type="curve"/>
      <point x="303" y="221"/>
      <point x="180" y="221"/>
      <point x="303" y="221" type="curve"/>
      <point x="303" y="258"/>
      <point x="303" y="338"/>
      <point x="303" y="375" type="curve"/>
      <point x="180" y="375"/>
      <point x="303" y="375"/>
    </contour>
    <contour>
      <point x="105" y="582" type="line"/>
      <point x="139" y="617"/>
      <point x="178" y="641"/>
      <point x="231" y="641" type="curve"/>
      <point x="306" y="641"/>
      <point x="351" y="594"/>
      <point x="351" y="518" type="curve"/>
      <point x="351" y="430"/>
      <point x="289" y="375"/>
      <point x="194" y="375" type="curve"/>
      <point x="194" y="338"/>
      <point x="193" y="315"/>
      <point x="193" y="277" type="curve"/>
      <point x="361" y="277"/>
      <point x="476" y="366"/>
      <point x="476" y="518" type="curve"/>
      <point x="476" y="663"/>
      <point x="378" y="748"/>
      <point x="237" y="748" type="curve"/>
      <point x="152" y="748"/>
      <point x="88" y="719"/>
      <point x="37" y="662" type="curve"/>
    </contour>
    <contour>
      <point x="314" y="45" type="curve"/>
      <point x="314" y="89"/>
      <point x="283" y="111"/>
      <point x="242" y="111" type="curve"/>
      <point x="200" y="111"/>
      <point x="172" y="87"/>
      <point x="172" y="45" type="curve"/>
      <point x="314" y="45"/>
      <point x="172" y="45"/>
      <point x="314" y="45" type="curve"/>
      <point x="314" y="0"/>
      <point x="284" y="-19"/>
      <point x="242" y="-19" type="curve"/>
      <point x="199" y="-19"/>
      <point x="172" y="2"/>
      <point x="172" y="45" type="curve"/>
      <point x="314" y="45"/>
      <point x="172" y="45"/>
    </contour>
  </outline>
</glyph>
<glyph name="at" format="1">
  <advance width="819"/>
  <unicode hex="0040"/>
  <outline>
    <contour>
      <point x="543" y="-14" type="curve"/>
      <point x="502" y="-34"/>
      <point x="471" y="-43"/>
      <point x="425" y="-43" type="curve"/>
      <point x="267" y="-43"/>
      <point x="168" y="52"/>
      <point x="168" y="212" type="curve"/>
      <point x="168" y="366"/>
      <point x="264" y="456"/>
      <point x="415" y="456" type="curve"/>
      <point x="561" y="456"/>
      <point x="651" y="363"/>
      <point x="651" y="213" type="curve"/>
      <point x="651" y="162"/>
      <point x="650" y="118"/>
      <point x="622" y="118" type="curve"/>
      <point x="595" y="118"/>
      <point x="590" y="162"/>
      <point x="590" y="216" type="curve"/>
      <point x="590" y="333"/>
      <point x="524" y="408"/>
      <point x="410" y="408" type="curve"/>
      <point x="285" y="408"/>
      <point x="222" y="336"/>
      <point x="222" y="213" type="curve"/>
      <point x="222" y="89"/>
      <point x="279" y="11"/>
      <point x="398" y="11" type="curve"/>
      <point x="505" y="11"/>
      <point x="555" y="85"/>
      <point x="572" y="197" type="curve"/>
      <point x="488" y="217"/>
      <point x="572" y="197"/>
      <point x="488" y="217" type="curve"/>
      <point x="475" y="160"/>
      <point x="468" y="111"/>
      <point x="414" y="111" type="curve"/>
      <point x="362" y="111"/>
      <point x="340" y="155"/>
      <point x="340" y="218" type="curve"/>
      <point x="340" y="270"/>
      <point x="356" y="307"/>
      <point x="403" y="307" type="curve"/>
      <point x="457" y="307"/>
      <point x="471" y="268"/>
      <point x="471" y="211" type="curve"/>
      <point x="471" y="102"/>
      <point x="511" y="23"/>
      <point x="612" y="23" type="curve"/>
      <point x="719" y="23"/>
      <point x="766" y="103"/>
      <point x="766" y="218" type="curve"/>
      <point x="766" y="434"/>
      <point x="634" y="560"/>
      <point x="419" y="560" type="curve"/>
      <point x="190" y="560"/>
      <point x="49" y="434"/>
      <point x="49" y="207" type="curve"/>
      <point x="49" y="-17"/>
      <point x="193" y="-143"/>
      <point x="419" y="-143" type="curve"/>
      <point x="490" y="-143"/>
      <point x="536" y="-131"/>
      <point x="591" y="-99" type="curve"/>
      <point x="543" y="-14"/>
      <point x="591" y="-99"/>
    </contour>
  </outline>
</glyph>
<glyph name="B" format="1">
  <advance width="674"/>
  <unicode hex="0042"/>
  <outline>
    <contour>
      <point x="203" y="722" type="curve"/>
      <point x="156" y="722"/>
      <point x="111" y="722"/>
      <point x="64" y="722" type="curve"/>
      <point x="64" y="622"/>
      <point x="64" y="722"/>
      <point x="64" y="622" type="curve"/>
      <point x="205" y="622"/>
      <point x="62" y="622"/>
      <point x="203" y="622" type="curve"/>
      <point x="203" y="722"/>
      <point x="203" y="622"/>
    </contour>
    <contour>
      <point x="202" y="100" type="curve"/>
      <point x="61" y="100"/>
      <point x="204" y="100"/>
      <point x="63" y="100" type="curve"/>
      <point x="63" y="0"/>
      <point x="63" y="100"/>
      <point x="63" y="0" type="curve"/>
      <point x="110" y="0"/>
      <point x="155" y="0"/>
      <point x="202" y="0" type="curve"/>
      <point x="202" y="100"/>
      <point x="202" y="0"/>
    </contour>
    <contour>
      <point x="194" y="622" type="curve"/>
      <point x="255" y="622"/>
      <point x="304" y="622"/>
      <point x="365" y="622" type="curve"/>
      <point x="422" y="622"/>
      <point x="452" y="590"/>
      <point x="452" y="537" type="curve"/>
      <point x="452" y="484"/>
      <point x="416" y="455"/>
      <point x="361" y="455" type="curve"/>
      <point x="301" y="455"/>
      <point x="253" y="455"/>
      <point x="194" y="455" type="curve"/>
      <point x="194" y="399"/>
      <point x="194" y="409"/>
      <point x="194" y="354" type="curve"/>
      <point x="236" y="354"/>
      <point x="269" y="354"/>
      <point x="311" y="354" type="curve"/>
      <point x="432" y="354"/>
      <point x="582" y="398"/>
      <point x="582" y="533" type="curve"/>
      <point x="582" y="657"/>
      <point x="499" y="722"/>
      <point x="371" y="722" type="curve"/>
      <point x="307" y="722"/>
      <point x="257" y="722"/>
      <point x="194" y="722" type="curve"/>
      <point x="194" y="667"/>
      <point x="194" y="677"/>
    </contour>
    <contour>
      <point x="272" y="0" type="curve"/>
      <point x="272" y="241"/>
      <point x="272" y="481"/>
      <point x="272" y="722" type="curve"/>
      <point x="135" y="722"/>
      <point x="272" y="722"/>
      <point x="135" y="722" type="curve"/>
      <point x="135" y="481"/>
      <point x="135" y="241"/>
      <point x="135" y="0" type="curve"/>
      <point x="272" y="0"/>
      <point x="135" y="0"/>
    </contour>
    <contour>
      <point x="194" y="354" type="curve"/>
      <point x="253" y="354"/>
      <point x="301" y="354"/>
      <point x="361" y="354" type="curve"/>
      <point x="446" y="354"/>
      <point x="494" y="306"/>
      <point x="494" y="224" type="curve"/>
      <point x="494" y="145"/>
      <point x="448" y="100"/>
      <point x="367" y="100" type="curve"/>
      <point x="305" y="100"/>
      <point x="256" y="100"/>
      <point x="194" y="100" type="curve"/>
      <point x="194" y="45"/>
      <point x="194" y="55"/>
      <point x="194" y="0" type="curve"/>
      <point x="258" y="0"/>
      <point x="309" y="0"/>
      <point x="374" y="0" type="curve"/>
      <point x="526" y="0"/>
      <point x="625" y="75"/>
      <point x="625" y="222" type="curve"/>
      <point x="625" y="388"/>
      <point x="468" y="455"/>
      <point x="311" y="455" type="curve"/>
      <point x="269" y="455"/>
      <point x="236" y="455"/>
      <point x="194" y="455" type="curve"/>
      <point x="194" y="399"/>
      <point x="194" y="409"/>
    </contour>
  </outline>
</glyph>
<glyph name="D" format="1">
  <advance width="774"/>
  <unicode hex="0044"/>
  <outline>
    <contour>
      <point x="206" y="100" type="curve"/>
      <point x="62" y="100"/>
      <point x="208" y="100"/>
      <point x="64" y="100" type="curve"/>
      <point x="64" y="0"/>
      <point x="64" y="100"/>
      <point x="64" y="0" type="curve"/>
      <point x="112" y="0"/>
      <point x="158" y="0"/>
      <point x="206" y="0" type="curve"/>
      <point x="206" y="100"/>
      <point x="206" y="0"/>
    </contour>
    <contour>
      <point x="206" y="722" type="curve"/>
      <point x="158" y="722"/>
      <point x="112" y="722"/>
      <point x="64" y="722" type="curve"/>
      <point x="64" y="622"/>
      <point x="64" y="722"/>
      <point x="64" y="622" type="curve"/>
      <point x="208" y="622"/>
      <point x="62" y="622"/>
      <point x="206" y="622" type="curve"/>
      <point x="206" y="722"/>
      <point x="206" y="622"/>
    </contour>
    <contour>
      <point x="138" y="722" type="curve"/>
      <point x="138" y="481"/>
      <point x="138" y="241"/>
      <point x="138" y="0" type="curve"/>
      <point x="270" y="0"/>
      <point x="138" y="0"/>
      <point x="270" y="0" type="curve"/>
      <point x="270" y="241"/>
      <point x="270" y="481"/>
      <point x="270" y="722" type="curve"/>
      <point x="138" y="722"/>
      <point x="270" y="722"/>
    </contour>
    <contour>
      <point x="206" y="0" type="curve"/>
      <point x="263" y="0"/>
      <point x="319" y="0"/>
      <point x="378" y="0" type="curve"/>
      <point x="604" y="0"/>
      <point x="721" y="125"/>
      <point x="721" y="354" type="curve"/>
      <point x="721" y="590"/>
      <point x="605" y="722"/>
      <point x="373" y="722" type="curve"/>
      <point x="317" y="722"/>
      <point x="262" y="722"/>
      <point x="206" y="722" type="curve"/>
      <point x="206" y="623"/>
      <point x="206" y="721"/>
      <point x="206" y="622" type="curve"/>
      <point x="260" y="622"/>
      <point x="313" y="622"/>
      <point x="367" y="622" type="curve"/>
      <point x="527" y="622"/>
      <point x="590" y="519"/>
      <point x="590" y="352" type="curve"/>
      <point x="590" y="197"/>
      <point x="534" y="100"/>
      <point x="389" y="100" type="curve"/>
      <point x="327" y="100"/>
      <point x="268" y="100"/>
      <point x="206" y="100" type="curve"/>
      <point x="206" y="1"/>
      <point x="206" y="99"/>
    </contour>
    <contour>
      <point x="353" y="786" type="move" name="top"/>
    </contour>
  </outline>
</glyph>
<glyph name="F" format="1">
  <advance width="589"/>
  <unicode hex="0046"/>
  <outline>
    <contour>
      <point x="205" y="0" type="curve"/>
      <point x="253" y="0"/>
      <point x="205" y="0"/>
      <point x="349" y="0" type="curve"/>
      <point x="349" y="100"/>
      <point x="349" y="0"/>
      <point x="349" y="100" type="curve"/>
      <point x="205" y="100"/>
      <point x="349" y="100"/>
      <point x="205" y="100" type="curve"/>
      <point x="205" y="0"/>
      <point x="205" y="100"/>
    </contour>
    <contour>
      <point x="205" y="722" type="curve"/>
      <point x="157" y="722"/>
      <point x="111" y="722"/>
      <point x="63" y="722" type="curve"/>
      <point x="63" y="622"/>
      <point x="63" y="722"/>
      <point x="63" y="622" type="curve"/>
      <point x="206" y="622"/>
      <point x="61" y="622"/>
      <point x="205" y="622" type="curve"/>
      <point x="205" y="722"/>
      <point x="205" y="622"/>
    </contour>
    <contour>
      <point x="205" y="100" type="curve"/>
      <point x="61" y="100"/>
      <point x="206" y="100"/>
      <point x="63" y="100" type="curve"/>
      <point x="63" y="0"/>
      <point x="63" y="100"/>
      <point x="63" y="0" type="curve"/>
      <point x="111" y="0"/>
      <point x="157" y="0"/>
      <point x="205" y="0" type="curve"/>
      <point x="205" y="100"/>
      <point x="205" y="0"/>
    </contour>
    <contour>
      <point x="459" y="672" type="curve"/>
      <point x="459" y="552"/>
      <point x="459" y="673"/>
      <point x="459" y="553" type="curve"/>
      <point x="561" y="553"/>
      <point x="459" y="553"/>
      <point x="561" y="553" type="curve"/>
      <point x="561" y="673"/>
      <point x="561" y="552"/>
      <point x="561" y="672" type="curve"/>
      <point x="459" y="672"/>
      <point x="561" y="672"/>
    </contour>
    <contour>
      <point x="208" y="322" type="curve"/>
      <point x="304" y="322"/>
      <point x="400" y="322"/>
      <point x="496" y="322" type="curve"/>
      <point x="496" y="423"/>
      <point x="496" y="322"/>
      <point x="496" y="423" type="curve"/>
      <point x="400" y="423"/>
      <point x="304" y="423"/>
      <point x="208" y="423" type="curve"/>
      <point x="208" y="322"/>
      <point x="208" y="423"/>
    </contour>
    <contour>
      <point x="271" y="0" type="curve"/>
      <point x="271" y="722" type="line"/>
      <point x="139" y="722"/>
      <point x="271" y="722"/>
      <point x="139" y="722" type="curve"/>
      <point x="139" y="481"/>
      <point x="139" y="241"/>
      <point x="139" y="0" type="curve"/>
      <point x="271" y="0"/>
      <point x="139" y="0"/>
    </contour>
    <contour>
      <point x="195" y="622" type="curve"/>
      <point x="317" y="622"/>
      <point x="439" y="622"/>
      <point x="561" y="622" type="curve"/>
      <point x="561" y="722"/>
      <point x="561" y="622"/>
      <point x="561" y="722" type="curve"/>
      <point x="439" y="722"/>
      <point x="317" y="722"/>
      <point x="195" y="722" type="curve"/>
      <point x="195" y="622"/>
      <point x="195" y="722"/>
    </contour>
  </outline>
</glyph>
<glyph name="G" format="1">
  <advance width="753"/>
  <unicode hex="0047"/>
  <outline>
    <contour>
      <point x="573" y="645" type="curve"/>
      <point x="573" y="512"/>
      <point x="573" y="637"/>
      <point x="573" y="504" type="curve"/>
      <point x="675" y="504"/>
      <point x="573" y="504"/>
      <point x="675" y="504" type="curve"/>
      <point x="675" y="637"/>
      <point x="675" y="512"/>
      <point x="675" y="645" type="curve"/>
      <point x="573" y="645"/>
      <point x="675" y="645"/>
    </contour>
    <contour>
      <point x="655" y="364" type="curve"/>
      <point x="590" y="364"/>
      <point x="524" y="364"/>
      <point x="459" y="364" type="curve"/>
      <point x="459" y="264"/>
      <point x="459" y="364"/>
      <point x="459" y="264" type="curve"/>
      <point x="524" y="264"/>
      <point x="590" y="264"/>
      <point x="655" y="264" type="curve"/>
      <point x="655" y="364"/>
      <point x="655" y="264"/>
    </contour>
    <contour>
      <point x="690" y="79" type="curve"/>
      <point x="690" y="174"/>
      <point x="690" y="269"/>
      <point x="690" y="364" type="curve"/>
      <point x="571" y="364"/>
      <point x="690" y="364"/>
      <point x="571" y="364" type="curve"/>
      <point x="571" y="269"/>
      <point x="571" y="174"/>
      <point x="571" y="79" type="curve"/>
      <point x="690" y="79"/>
      <point x="571" y="79"/>
    </contour>
    <contour>
      <point x="675" y="645" type="curve"/>
      <point x="587" y="702"/>
      <point x="506" y="727"/>
      <point x="401" y="727" type="curve"/>
      <point x="177" y="727"/>
      <point x="52" y="590"/>
      <point x="52" y="360" type="curve"/>
      <point x="52" y="129"/>
      <point x="184" y="-5"/>
      <point x="410" y="-5" type="curve"/>
      <point x="523" y="-5"/>
      <point x="593" y="24"/>
      <point x="690" y="79" type="curve"/>
      <point x="624" y="154"/>
      <point x="690" y="79"/>
      <point x="624" y="154" type="curve"/>
      <point x="553" y="114"/>
      <point x="494" y="100"/>
      <point x="410" y="100" type="curve"/>
      <point x="255" y="100"/>
      <point x="184" y="206"/>
      <point x="184" y="370" type="curve"/>
      <point x="184" y="523"/>
      <point x="255" y="622"/>
      <point x="401" y="622" type="curve"/>
      <point x="480" y="622"/>
      <point x="542" y="602"/>
      <point x="609" y="559" type="curve"/>
      <point x="675" y="645"/>
      <point x="609" y="559"/>
    </contour>
    <contour>
      <point x="398" y="786" type="move" name="top"/>
    </contour>
    <contour>
      <point x="447" y="-4" type="move" name="bottom"/>
    </contour>
  </outline>
</glyph>
<glyph name="H" format="1">
  <advance width="809"/>
  <unicode hex="0048"/>
  <outline>
    <contour>
      <point x="628" y="622" type="curve"/>
      <point x="779" y="622"/>
      <point x="619" y="622"/>
      <point x="770" y="622" type="curve"/>
      <point x="770" y="722"/>
      <point x="770" y="622"/>
      <point x="770" y="722" type="curve"/>
      <point x="719" y="722"/>
      <point x="678" y="722"/>
      <point x="628" y="722" type="curve"/>
      <point x="628" y="622"/>
      <point x="628" y="722"/>
    </contour>
    <contour>
      <point x="628" y="0" type="curve"/>
      <point x="678" y="0"/>
      <point x="719" y="0"/>
      <point x="770" y="0" type="curve"/>
      <point x="770" y="100"/>
      <point x="770" y="0"/>
      <point x="770" y="100" type="curve"/>
      <point x="619" y="100"/>
      <point x="779" y="100"/>
      <point x="628" y="100" type="curve"/>
      <point x="628" y="0"/>
      <point x="628" y="100"/>
    </contour>
    <contour>
      <point x="628" y="100" type="curve"/>
      <point x="477" y="100"/>
      <point x="637" y="100"/>
      <point x="486" y="100" type="curve"/>
      <point x="486" y="0"/>
      <point x="486" y="100"/>
      <point x="486" y="0" type="curve"/>
      <point x="536" y="0"/>
      <point x="577" y="0"/>
      <point x="628" y="0" type="curve"/>
      <point x="628" y="100"/>
      <point x="628" y="0"/>
    </contour>
    <contour>
      <point x="628" y="722" type="curve"/>
      <point x="577" y="722"/>
      <point x="536" y="722"/>
      <point x="486" y="722" type="curve"/>
      <point x="486" y="622"/>
      <point x="486" y="722"/>
      <point x="486" y="622" type="curve"/>
      <point x="637" y="622"/>
      <point x="477" y="622"/>
      <point x="628" y="622" type="curve"/>
      <point x="628" y="722"/>
      <point x="628" y="622"/>
    </contour>
    <contour>
      <point x="182" y="622" type="curve"/>
      <point x="334" y="622"/>
      <point x="173" y="622"/>
      <point x="325" y="622" type="curve"/>
      <point x="325" y="722"/>
      <point x="325" y="622"/>
      <point x="325" y="722" type="curve"/>
      <point x="275" y="722"/>
      <point x="233" y="722"/>
      <point x="182" y="722" type="curve"/>
      <point x="182" y="622"/>
      <point x="182" y="722"/>
    </contour>
    <contour>
      <point x="182" y="722" type="curve"/>
      <point x="133" y="722"/>
      <point x="91" y="722"/>
      <point x="40" y="722" type="curve"/>
      <point x="40" y="622"/>
      <point x="40" y="722"/>
      <point x="40" y="622" type="curve"/>
      <point x="191" y="622"/>
      <point x="32" y="622"/>
      <point x="182" y="622" type="curve"/>
      <point x="182" y="722"/>
      <point x="182" y="622"/>
    </contour>
    <contour>
      <point x="182" y="0" type="curve"/>
      <point x="233" y="0"/>
      <point x="173" y="0"/>
      <point x="325" y="0" type="curve"/>
      <point x="325" y="100"/>
      <point x="325" y="0"/>
      <point x="325" y="100" type="curve"/>
      <point x="173" y="100"/>
      <point x="334" y="100"/>
      <point x="182" y="100" type="curve"/>
      <point x="182" y="0"/>
      <point x="182" y="100"/>
    </contour>
    <contour>
      <point x="182" y="100" type="curve"/>
      <point x="32" y="100"/>
      <point x="191" y="100"/>
      <point x="40" y="100" type="curve"/>
      <point x="40" y="0"/>
      <point x="40" y="100"/>
      <point x="40" y="0" type="curve"/>
      <point x="91" y="0"/>
      <point x="133" y="0"/>
      <point x="182" y="0" type="curve"/>
      <point x="182" y="100"/>
      <point x="182" y="0"/>
    </contour>
    <contour>
      <point x="248" y="0" type="curve"/>
      <point x="248" y="722" type="line"/>
      <point x="117" y="722"/>
      <point x="248" y="722"/>
      <point x="117" y="722" type="curve"/>
      <point x="117" y="481"/>
      <point x="117" y="241"/>
      <point x="117" y="0" type="curve"/>
      <point x="248" y="0"/>
      <point x="117" y="0"/>
    </contour>
    <contour>
      <point x="625" y="413" type="curve"/>
      <point x="477" y="413"/>
      <point x="330" y="413"/>
      <point x="182" y="413" type="curve"/>
      <point x="182" y="312"/>
      <point x="182" y="413"/>
      <point x="182" y="312" type="curve"/>
      <point x="330" y="312"/>
      <point x="477" y="312"/>
      <point x="625" y="312" type="curve"/>
      <point x="625" y="413"/>
      <point x="625" y="312"/>
    </contour>
    <contour>
      <point x="693" y="42" type="curve"/>
      <point x="693" y="254"/>
      <point x="693" y="468"/>
      <point x="693" y="680" type="curve"/>
      <point x="562" y="680"/>
      <point x="693" y="680"/>
      <point x="562" y="680" type="curve"/>
      <point x="562" y="42" type="line"/>
      <point x="693" y="42"/>
      <point x="562" y="42"/>
    </contour>
  </outline>
</glyph>
<glyph name="I" format="1">
  <advance width="366"/>
  <unicode hex="0049"/>
  <outline>
    <contour>
      <point x="184" y="722" type="curve"/>
      <point x="134" y="722"/>
      <point x="92" y="722"/>
      <point x="42" y="722" type="curve"/>
      <point x="42" y="622"/>
      <point x="42" y="722"/>
      <point x="42" y="622" type="curve"/>
      <point x="193" y="622"/>
      <point x="33" y="622"/>
      <point x="184" y="622" type="curve"/>
      <point x="184" y="722"/>
      <point x="184" y="622"/>
    </contour>
    <contour>
      <point x="184" y="622" type="curve"/>
      <point x="335" y="622"/>
      <point x="175" y="622"/>
      <point x="326" y="622" type="curve"/>
      <point x="326" y="722"/>
      <point x="326" y="622"/>
      <point x="326" y="722" type="curve"/>
      <point x="276" y="722"/>
      <point x="234" y="722"/>
      <point x="184" y="722" type="curve"/>
      <point x="184" y="622"/>
      <point x="184" y="722"/>
    </contour>
    <contour>
      <point x="184" y="0" type="curve"/>
      <point x="234" y="0"/>
      <point x="276" y="0"/>
      <point x="326" y="0" type="curve"/>
      <point x="326" y="100"/>
      <point x="326" y="0"/>
      <point x="326" y="100" type="curve"/>
      <point x="175" y="100"/>
      <point x="335" y="100"/>
      <point x="184" y="100" type="curve"/>
      <point x="184" y="0"/>
      <point x="184" y="100"/>
    </contour>
    <contour>
      <point x="184" y="100" type="curve"/>
      <point x="33" y="100"/>
      <point x="193" y="100"/>
      <point x="42" y="100" type="curve"/>
      <point x="42" y="0"/>
      <point x="42" y="100"/>
      <point x="42" y="0" type="curve"/>
      <point x="92" y="0"/>
      <point x="134" y="0"/>
      <point x="184" y="0" type="curve"/>
      <point x="184" y="100"/>
      <point x="184" y="0"/>
    </contour>
    <contour>
      <point x="249" y="0" type="curve"/>
      <point x="249" y="241"/>
      <point x="249" y="481"/>
      <point x="249" y="722" type="curve"/>
      <point x="117" y="722"/>
      <point x="249" y="722"/>
      <point x="117" y="722" type="curve"/>
      <point x="117" y="481"/>
      <point x="117" y="241"/>
      <point x="117" y="0" type="curve"/>
      <point x="249" y="0"/>
      <point x="117" y="0"/>
    </contour>
    <contour>
      <point x="184" y="786" type="move" name="top"/>
    </contour>
    <contour>
      <point x="241" y="3" type="move" name="bottom"/>
    </contour>
  </outline>
</glyph>
<glyph name="J" format="1">
  <advance width="449"/>
  <unicode hex="004A"/>
  <outline>
    <contour>
      <point x="286" y="722" type="curve"/>
      <point x="237" y="722"/>
      <point x="197" y="722"/>
      <point x="147" y="722" type="curve"/>
      <point x="147" y="622"/>
      <point x="147" y="722"/>
      <point x="147" y="622" type="curve"/>
      <point x="295" y="622"/>
      <point x="138" y="622"/>
      <point x="286" y="622" type="curve"/>
      <point x="286" y="722"/>
      <point x="286" y="622"/>
    </contour>
    <contour>
      <point x="286" y="622" type="curve"/>
      <point x="433" y="622"/>
      <point x="277" y="622"/>
      <point x="424" y="622" type="curve"/>
      <point x="424" y="722"/>
      <point x="424" y="622"/>
      <point x="424" y="722" type="curve"/>
      <point x="376" y="722"/>
      <point x="335" y="722"/>
      <point x="286" y="722" type="curve"/>
      <point x="286" y="622"/>
      <point x="286" y="722"/>
    </contour>
    <contour>
      <point x="0" y="44" type="curve"/>
      <point x="31" y="22"/>
      <point x="75" y="-4"/>
      <point x="131" y="-4" type="curve"/>
      <point x="277" y="-4"/>
      <point x="351" y="81"/>
      <point x="351" y="242" type="curve"/>
      <point x="351" y="403"/>
      <point x="351" y="561"/>
      <point x="351" y="722" type="curve"/>
      <point x="221" y="722"/>
      <point x="349" y="722"/>
      <point x="219" y="722" type="curve"/>
      <point x="219" y="561"/>
      <point x="219" y="403"/>
      <point x="219" y="242" type="curve"/>
      <point x="219" y="160"/>
      <point x="203" y="97"/>
      <point x="131" y="97" type="curve"/>
      <point x="101" y="97"/>
      <point x="83" y="110"/>
      <point x="60" y="124" type="curve"/>
      <point x="1" y="45"/>
      <point x="60" y="123"/>
    </contour>
  </outline>
</glyph>
<glyph name="L" format="1">
  <advance width="579"/>
  <unicode hex="004C"/>
  <outline>
    <contour>
      <point x="559" y="50" type="curve"/>
      <point x="559" y="170"/>
      <point x="559" y="49"/>
      <point x="559" y="169" type="curve"/>
      <point x="457" y="169"/>
      <point x="559" y="169"/>
      <point x="457" y="169" type="curve"/>
      <point x="457" y="49"/>
      <point x="457" y="170"/>
      <point x="457" y="50" type="curve"/>
      <point x="559" y="50"/>
      <point x="457" y="50"/>
    </contour>
    <contour>
      <point x="183" y="100" type="curve"/>
      <point x="32" y="100"/>
      <point x="192" y="100"/>
      <point x="41" y="100" type="curve"/>
      <point x="40" y="0"/>
      <point x="41" y="100"/>
      <point x="40" y="0" type="curve"/>
      <point x="91" y="0"/>
      <point x="132" y="0"/>
      <point x="183" y="0" type="curve"/>
      <point x="183" y="100"/>
      <point x="183" y="0"/>
    </contour>
    <contour>
      <point x="183" y="722" type="curve"/>
      <point x="132" y="722"/>
      <point x="91" y="722"/>
      <point x="41" y="722" type="curve"/>
      <point x="40" y="622"/>
      <point x="41" y="722"/>
      <point x="40" y="622" type="curve"/>
      <point x="192" y="622"/>
      <point x="31" y="622"/>
      <point x="183" y="622" type="curve"/>
      <point x="183" y="722"/>
      <point x="183" y="622"/>
    </contour>
    <contour>
      <point x="183" y="622" type="curve"/>
      <point x="334" y="622"/>
      <point x="174" y="622"/>
      <point x="325" y="622" type="curve"/>
      <point x="325" y="722"/>
      <point x="325" y="622"/>
      <point x="325" y="722" type="curve"/>
      <point x="274" y="722"/>
      <point x="232" y="722"/>
      <point x="183" y="722" type="curve"/>
      <point x="183" y="622"/>
      <point x="183" y="722"/>
    </contour>
    <contour>
      <point x="249" y="0" type="curve"/>
      <point x="249" y="241"/>
      <point x="249" y="481"/>
      <point x="249" y="722" type="curve"/>
      <point x="118" y="722"/>
      <point x="249" y="722"/>
      <point x="118" y="722" type="curve"/>
      <point x="118" y="481"/>
      <point x="118" y="241"/>
      <point x="118" y="0" type="curve"/>
      <point x="249" y="0"/>
      <point x="118" y="0"/>
    </contour>
    <contour>
      <point x="183" y="0" type="curve"/>
      <point x="308" y="0"/>
      <point x="434" y="0"/>
      <point x="559" y="0" type="curve"/>
      <point x="559" y="100"/>
      <point x="559" y="0"/>
      <point x="559" y="100" type="curve"/>
      <point x="434" y="100"/>
      <point x="308" y="100"/>
      <point x="183" y="100" type="curve"/>
      <point x="183" y="0"/>
      <point x="183" y="100"/>
    </contour>
    <contour>
      <point x="183" y="786" type="move" name="top"/>
    </contour>
    <contour>
      <point x="350" y="-3" type="move" name="bottom"/>
    </contour>
  </outline>
</glyph>
<glyph name="M" format="1">
  <advance width="921"/>
  <unicode hex="004D"/>
  <outline>
    <contour>
      <point x="766" y="0" type="curve"/>
      <point x="814" y="0"/>
      <point x="853" y="0"/>
      <point x="902" y="0" type="curve"/>
      <point x="902" y="100"/>
      <point x="902" y="0"/>
      <point x="902" y="100" type="curve"/>
      <point x="757" y="100"/>
      <point x="911" y="100"/>
      <point x="766" y="100" type="curve"/>
      <point x="766" y="0"/>
      <point x="766" y="100"/>
    </contour>
    <contour>
      <point x="766" y="100" type="curve"/>
      <point x="628" y="100"/>
      <point x="775" y="100"/>
      <point x="637" y="100" type="curve"/>
      <point x="637" y="0"/>
      <point x="637" y="100"/>
      <point x="637" y="0" type="curve"/>
      <point x="683" y="0"/>
      <point x="720" y="0"/>
      <point x="766" y="0" type="curve"/>
      <point x="766" y="100"/>
      <point x="766" y="0"/>
    </contour>
    <contour>
      <point x="157" y="100" type="curve"/>
      <point x="12" y="100"/>
      <point x="166" y="100"/>
      <point x="21" y="100" type="curve"/>
      <point x="21" y="0"/>
      <point x="21" y="100"/>
      <point x="21" y="0" type="curve"/>
      <point x="69" y="0"/>
      <point x="108" y="0"/>
      <point x="157" y="0" type="curve"/>
      <point x="157" y="100"/>
      <point x="157" y="0"/>
    </contour>
    <contour>
      <point x="206" y="722" type="curve"/>
      <point x="158" y="722"/>
      <point x="119" y="722"/>
      <point x="71" y="722" type="curve"/>
      <point x="70" y="622"/>
      <point x="71" y="722"/>
      <point x="70" y="622" type="curve"/>
      <point x="215" y="622"/>
      <point x="61" y="622"/>
      <point x="206" y="622" type="curve"/>
      <point x="206" y="722"/>
      <point x="206" y="622"/>
    </contour>
    <contour>
      <point x="714" y="622" type="curve"/>
      <point x="859" y="622"/>
      <point x="705" y="622"/>
      <point x="850" y="622" type="curve"/>
      <point x="850" y="722"/>
      <point x="850" y="622"/>
      <point x="850" y="722" type="curve"/>
      <point x="801" y="722"/>
      <point x="762" y="722"/>
      <point x="714" y="722" type="curve"/>
      <point x="714" y="622"/>
      <point x="714" y="722"/>
    </contour>
    <contour>
      <point x="157" y="0" type="curve"/>
      <point x="202" y="0"/>
      <point x="148" y="0"/>
      <point x="286" y="0" type="curve"/>
      <point x="286" y="100"/>
      <point x="286" y="0"/>
      <point x="286" y="100" type="curve"/>
      <point x="148" y="100"/>
      <point x="295" y="100"/>
      <point x="157" y="100" type="curve"/>
      <point x="157" y="0"/>
      <point x="157" y="100"/>
    </contour>
    <contour>
      <point x="839" y="0" type="curve"/>
      <point x="820" y="241"/>
      <point x="797" y="481"/>
      <point x="779" y="722" type="curve"/>
      <point x="659" y="722"/>
      <point x="779" y="722"/>
      <point x="659" y="722" type="curve"/>
      <point x="677" y="481"/>
      <point x="690" y="241"/>
      <point x="708" y="0" type="curve"/>
      <point x="839" y="0"/>
      <point x="708" y="0"/>
    </contour>
    <contour>
      <point x="212" y="0" type="curve"/>
      <point x="229" y="241"/>
      <point x="245" y="481"/>
      <point x="262" y="722" type="curve"/>
      <point x="146" y="722"/>
      <point x="262" y="722"/>
      <point x="146" y="722" type="curve"/>
      <point x="128" y="481"/>
      <point x="111" y="241"/>
      <point x="94" y="0" type="curve"/>
      <point x="212" y="0"/>
      <point x="94" y="0"/>
    </contour>
    <contour>
      <point x="516" y="0" type="curve"/>
      <point x="432" y="241"/>
      <point x="348" y="481"/>
      <point x="264" y="722" type="curve"/>
      <point x="148" y="722"/>
      <point x="264" y="722"/>
      <point x="148" y="722" type="curve"/>
      <point x="232" y="481"/>
      <point x="315" y="241"/>
      <point x="398" y="0" type="curve"/>
      <point x="515" y="0"/>
      <point x="398" y="0"/>
    </contour>
    <contour>
      <point x="524" y="0" type="curve"/>
      <point x="606" y="241"/>
      <point x="688" y="481"/>
      <point x="769" y="722" type="curve"/>
      <point x="653" y="722"/>
      <point x="769" y="722"/>
      <point x="653" y="722" type="curve"/>
      <point x="571" y="481"/>
      <point x="488" y="241"/>
      <point x="405" y="0" type="curve"/>
      <point x="524" y="0"/>
      <point x="405" y="0"/>
    </contour>
  </outline>
</glyph>
<glyph name="P" format="1">
  <advance width="630"/>
  <unicode hex="0050"/>
  <outline>
    <contour>
      <point x="205" y="722" type="curve"/>
      <point x="158" y="722"/>
      <point x="111" y="722"/>
      <point x="63" y="722" type="curve"/>
      <point x="63" y="622"/>
      <point x="63" y="722"/>
      <point x="63" y="622" type="curve"/>
      <point x="207" y="622"/>
      <point x="61" y="622"/>
      <point x="205" y="622" type="curve"/>
      <point x="205" y="722"/>
      <point x="205" y="622"/>
    </contour>
    <contour>
      <point x="205" y="100" type="curve"/>
      <point x="61" y="100"/>
      <point x="207" y="100"/>
      <point x="63" y="100" type="curve"/>
      <point x="63" y="0"/>
      <point x="63" y="100"/>
      <point x="63" y="0" type="curve"/>
      <point x="111" y="0"/>
      <point x="158" y="0"/>
      <point x="205" y="0" type="curve"/>
      <point x="205" y="100"/>
      <point x="205" y="0"/>
    </contour>
    <contour>
      <point x="205" y="0" type="curve"/>
      <point x="253" y="0"/>
      <point x="203" y="0"/>
      <point x="347" y="0" type="curve"/>
      <point x="347" y="100"/>
      <point x="347" y="0"/>
      <point x="347" y="100" type="curve"/>
      <point x="203" y="100"/>
      <point x="349" y="100"/>
      <point x="205" y="100" type="curve"/>
      <point x="205" y="0"/>
      <point x="205" y="100"/>
    </contour>
    <contour>
      <point x="186" y="299" type="curve"/>
      <point x="240" y="271"/>
      <point x="302" y="253"/>
      <point x="366" y="253" type="curve"/>
      <point x="504" y="256"/>
      <point x="594" y="334"/>
      <point x="594" y="479" type="curve"/>
      <point x="594" y="631"/>
      <point x="486" y="722"/>
      <point x="330" y="722" type="curve"/>
      <point x="289" y="722"/>
      <point x="248" y="722"/>
      <point x="208" y="722" type="curve"/>
      <point x="208" y="622"/>
      <point x="208" y="722"/>
      <point x="208" y="622" type="curve"/>
      <point x="242" y="622"/>
      <point x="277" y="622"/>
      <point x="312" y="622" type="curve"/>
      <point x="403" y="622"/>
      <point x="462" y="570"/>
      <point x="462" y="483" type="curve"/>
      <point x="462" y="403"/>
      <point x="422" y="350"/>
      <point x="350" y="350" type="curve"/>
      <point x="302" y="350"/>
      <point x="270" y="363"/>
      <point x="227" y="384" type="curve"/>
      <point x="186" y="301"/>
      <point x="227" y="384"/>
    </contour>
    <contour>
      <point x="270" y="0" type="curve"/>
      <point x="270" y="241"/>
      <point x="270" y="481"/>
      <point x="270" y="722" type="curve"/>
      <point x="139" y="722"/>
      <point x="270" y="722"/>
      <point x="139" y="722" type="curve"/>
      <point x="139" y="481"/>
      <point x="139" y="241"/>
      <point x="139" y="0" type="curve"/>
      <point x="270" y="0"/>
      <point x="139" y="0"/>
    </contour>
  </outline>
</glyph>
<glyph name="Q" format="1">
  <advance width="740"/>
  <unicode hex="0051"/>
  <outline>
    <contour>
      <point x="325" y="24" type="curve"/>
      <point x="424" y="-151"/>
      <point x="543" y="-214"/>
      <point x="733" y="-214" type="curve"/>
      <point x="733" y="-109"/>
      <point x="733" y="-214"/>
      <point x="733" y="-109" type="curve"/>
      <point x="594" y="-109"/>
      <point x="513" y="-56"/>
      <point x="438" y="74" type="curve"/>
      <point x="325" y="24"/>
      <point x="438" y="74"/>
    </contour>
    <contour>
      <point x="183" y="360" type="curve"/>
      <point x="183" y="507"/>
      <point x="237" y="617"/>
      <point x="371" y="617" type="curve"/>
      <point x="508" y="617"/>
      <point x="565" y="509"/>
      <point x="565" y="360" type="curve"/>
      <point x="565" y="213"/>
      <point x="513" y="100"/>
      <point x="379" y="100" type="curve"/>
      <point x="241" y="100"/>
      <point x="183" y="211"/>
      <point x="183" y="360" type="curve"/>
      <point x="52" y="360"/>
      <point x="183" y="360"/>
      <point x="52" y="360" type="curve"/>
      <point x="52" y="143"/>
      <point x="167" y="-5"/>
      <point x="373" y="-5" type="curve"/>
      <point x="582" y="-5"/>
      <point x="696" y="146"/>
      <point x="696" y="366" type="curve"/>
      <point x="696" y="581"/>
      <point x="586" y="731"/>
      <point x="380" y="731" type="curve"/>
      <point x="170" y="731"/>
      <point x="52" y="579"/>
      <point x="52" y="360" type="curve"/>
      <point x="183" y="360"/>
      <point x="52" y="360"/>
    </contour>
  </outline>
</glyph>
<glyph name="S" format="1">
  <advance width="595"/>
  <unicode hex="0053"/>
  <outline>
    <contour>
      <point x="395" y="661" type="curve"/>
      <point x="395" y="541"/>
      <point x="395" y="640"/>
      <point x="395" y="520" type="curve"/>
      <point x="498" y="520"/>
      <point x="395" y="520"/>
      <point x="498" y="520" type="curve"/>
      <point x="498" y="640"/>
      <point x="498" y="541"/>
      <point x="498" y="661" type="curve"/>
      <point x="395" y="661"/>
      <point x="498" y="661"/>
    </contour>
    <contour>
      <point x="174" y="53" type="curve"/>
      <point x="174" y="173"/>
      <point x="174" y="84"/>
      <point x="174" y="204" type="curve"/>
      <point x="72" y="204"/>
      <point x="174" y="204"/>
      <point x="72" y="204" type="curve"/>
      <point x="72" y="84"/>
      <point x="72" y="173"/>
      <point x="72" y="53" type="curve"/>
      <point x="174" y="53"/>
      <point x="72" y="53"/>
    </contour>
    <contour>
      <point x="73" y="53" type="curve"/>
      <point x="140" y="12"/>
      <point x="202" y="-5"/>
      <point x="284" y="-5" type="curve"/>
      <point x="429" y="-5"/>
      <point x="544" y="56"/>
      <point x="544" y="191" type="curve"/>
      <point x="544" y="309"/>
      <point x="455" y="362"/>
      <point x="346" y="415" type="curve" smooth="yes"/>
      <point x="273" y="450"/>
      <point x="201" y="488"/>
      <point x="201" y="543" type="curve"/>
      <point x="199" y="594"/>
      <point x="241" y="625"/>
      <point x="296" y="625" type="curve"/>
      <point x="352" y="625"/>
      <point x="396" y="602"/>
      <point x="438" y="580" type="curve"/>
      <point x="498" y="660"/>
      <point x="438" y="582"/>
      <point x="498" y="661" type="curve"/>
      <point x="434" y="701"/>
      <point x="377" y="721"/>
      <point x="300" y="721" type="curve"/>
      <point x="168" y="721"/>
      <point x="69" y="658"/>
      <point x="69" y="537" type="curve"/>
      <point x="69" y="423"/>
      <point x="157" y="371"/>
      <point x="261" y="321" type="curve" smooth="yes"/>
      <point x="337" y="284"/>
      <point x="413" y="247"/>
      <point x="413" y="190" type="curve"/>
      <point x="413" y="139"/>
      <point x="358" y="100"/>
      <point x="290" y="100" type="curve"/>
      <point x="232" y="100"/>
      <point x="192" y="121"/>
      <point x="144" y="149" type="curve"/>
      <point x="73" y="55"/>
      <point x="143" y="147"/>
    </contour>
    <contour>
      <point x="299" y="786" type="move" name="top"/>
    </contour>
    <contour>
      <point x="335" y="-1" type="move" name="bottom"/>
    </contour>
  </outline>
</glyph>
<glyph name="V" format="1">
  <advance width="736"/>
  <unicode hex="0056"/>
  <outline>
    <contour>
      <point x="594" y="722" type="curve"/>
      <point x="544" y="722"/>
      <point x="495" y="722"/>
      <point x="445" y="722" type="curve"/>
      <point x="445" y="622"/>
      <point x="445" y="722"/>
      <point x="445" y="622" type="curve"/>
      <point x="594" y="622"/>
      <point x="444" y="622"/>
      <point x="594" y="622" type="curve"/>
      <point x="594" y="722"/>
      <point x="594" y="622"/>
    </contour>
    <contour>
      <point x="126" y="722" type="curve"/>
      <point x="84" y="722"/>
      <point x="42" y="722"/>
      <point x="0" y="722" type="curve"/>
      <point x="0" y="622"/>
      <point x="0" y="722"/>
      <point x="0" y="622" type="curve"/>
      <point x="127" y="622"/>
      <point x="0" y="622"/>
      <point x="126" y="622" type="curve"/>
      <point x="126" y="722"/>
      <point x="126" y="622"/>
    </contour>
    <contour>
      <point x="605" y="622" type="curve"/>
      <point x="730" y="622"/>
      <point x="604" y="622"/>
      <point x="729" y="622" type="curve"/>
      <point x="729" y="722"/>
      <point x="729" y="622"/>
      <point x="729" y="722" type="curve"/>
      <point x="688" y="722"/>
      <point x="646" y="722"/>
      <point x="605" y="722" type="curve"/>
      <point x="605" y="622"/>
      <point x="605" y="722"/>
    </contour>
    <contour>
      <point x="137" y="622" type="curve"/>
      <point x="285" y="622"/>
      <point x="136" y="622"/>
      <point x="284" y="622" type="curve"/>
      <point x="284" y="722"/>
      <point x="284" y="622"/>
      <point x="284" y="722" type="curve"/>
      <point x="235" y="722"/>
      <point x="186" y="722"/>
      <point x="137" y="722" type="curve"/>
      <point x="137" y="622"/>
      <point x="137" y="722"/>
    </contour>
    <contour>
      <point x="551" y="722" type="curve"/>
      <point x="471" y="480"/>
      <point x="391" y="242"/>
      <point x="313" y="0" type="curve"/>
      <point x="447" y="0"/>
      <point x="303" y="0"/>
      <point x="437" y="0" type="curve"/>
      <point x="519" y="241"/>
      <point x="602" y="481"/>
      <point x="685" y="722" type="curve"/>
      <point x="551" y="722"/>
      <point x="685" y="722"/>
    </contour>
    <contour>
      <point x="46" y="722" type="curve"/>
      <point x="129" y="481"/>
      <point x="214" y="241"/>
      <point x="297" y="0" type="curve"/>
      <point x="431" y="0"/>
      <point x="289" y="0"/>
      <point x="423" y="0" type="curve"/>
      <point x="343" y="242"/>
      <point x="262" y="482"/>
      <point x="180" y="722" type="curve"/>
      <point x="46" y="722"/>
      <point x="180" y="722"/>
    </contour>
  </outline>
</glyph>
<glyph name="W" format="1">
  <advance width="924"/>
  <unicode hex="0057"/>
  <outline>
    <contour>
      <point x="145" y="622" type="curve"/>
      <point x="266" y="622"/>
      <point x="144" y="622"/>
      <point x="265" y="622" type="curve"/>
      <point x="265" y="722"/>
      <point x="265" y="622"/>
      <point x="265" y="722" type="curve"/>
      <point x="225" y="722"/>
      <point x="185" y="722"/>
      <point x="145" y="722" type="curve"/>
      <point x="145" y="622"/>
      <point x="145" y="722"/>
    </contour>
    <contour>
      <point x="138" y="722" type="curve"/>
      <point x="95" y="722"/>
      <point x="52" y="722"/>
      <point x="9" y="722" type="curve"/>
      <point x="9" y="622"/>
      <point x="9" y="722"/>
      <point x="9" y="622" type="curve"/>
      <point x="139" y="622"/>
      <point x="8" y="622"/>
      <point x="138" y="622" type="curve"/>
      <point x="138" y="722"/>
      <point x="138" y="622"/>
    </contour>
    <contour>
      <point x="783" y="722" type="curve"/>
      <point x="742" y="722"/>
      <point x="703" y="722"/>
      <point x="663" y="722" type="curve"/>
      <point x="663" y="622"/>
      <point x="663" y="722"/>
      <point x="663" y="622" type="curve"/>
      <point x="784" y="622"/>
      <point x="662" y="622"/>
      <point x="783" y="622" type="curve"/>
      <point x="783" y="722"/>
      <point x="783" y="622"/>
    </contour>
    <contour>
      <point x="786" y="622" type="curve"/>
      <point x="916" y="622"/>
      <point x="785" y="622"/>
      <point x="915" y="622" type="curve"/>
      <point x="915" y="722"/>
      <point x="915" y="622"/>
      <point x="915" y="722" type="curve"/>
      <point x="873" y="722"/>
      <point x="830" y="722"/>
      <point x="786" y="722" type="curve"/>
      <point x="786" y="622"/>
      <point x="786" y="722"/>
    </contour>
    <contour>
      <point x="343" y="0" type="curve"/>
      <point x="403" y="241"/>
      <point x="462" y="481"/>
      <point x="521" y="722" type="curve"/>
      <point x="405" y="722"/>
      <point x="523" y="722"/>
      <point x="406" y="722" type="curve"/>
      <point x="351" y="481"/>
      <point x="297" y="242"/>
      <point x="241" y="0" type="curve"/>
      <point x="353" y="0"/>
      <point x="231" y="0"/>
    </contour>
    <contour>
      <point x="415" y="722" type="curve"/>
      <point x="468" y="481"/>
      <point x="520" y="241"/>
      <point x="574" y="0" type="curve"/>
      <point x="686" y="0"/>
      <point x="562" y="0"/>
      <point x="674" y="0" type="curve"/>
      <point x="625" y="244"/>
      <point x="579" y="481"/>
      <point x="529" y="722" type="curve"/>
      <point x="413" y="722"/>
      <point x="531" y="722"/>
    </contour>
    <contour>
      <point x="63" y="722" type="curve"/>
      <point x="117" y="481"/>
      <point x="172" y="241"/>
      <point x="226" y="0" type="curve"/>
      <point x="338" y="0"/>
      <point x="224" y="0"/>
      <point x="337" y="0" type="curve"/>
      <point x="284" y="241"/>
      <point x="234" y="481"/>
      <point x="182" y="722" type="curve"/>
      <point x="63" y="722"/>
      <point x="182" y="722"/>
    </contour>
    <contour>
      <point x="743" y="722" type="curve"/>
      <point x="689" y="481"/>
      <point x="636" y="241"/>
      <point x="582" y="0" type="curve"/>
      <point x="695" y="0"/>
      <point x="579" y="0"/>
      <point x="692" y="0" type="curve"/>
      <point x="748" y="241"/>
      <point x="805" y="481"/>
      <point x="861" y="722" type="curve"/>
      <point x="743" y="722"/>
      <point x="861" y="722"/>
    </contour>
  </outline>
</glyph>
<glyph name="X" format="1">
  <advance width="687"/>
  <unicode hex="0058"/>
  <outline>
    <contour>
      <point x="159" y="0" type="curve"/>
      <point x="206" y="0"/>
      <point x="158" y="0"/>
      <point x="301" y="0" type="curve"/>
      <point x="301" y="100"/>
      <point x="301" y="0"/>
      <point x="301" y="100" type="curve"/>
      <point x="158" y="100"/>
      <point x="302" y="100"/>
      <point x="159" y="100" type="curve"/>
      <point x="159" y="0"/>
      <point x="159" y="100"/>
    </contour>
    <contour>
      <point x="146" y="100" type="curve"/>
      <point x="14" y="100"/>
      <point x="147" y="100"/>
      <point x="14" y="100" type="curve"/>
      <point x="14" y="0"/>
      <point x="14" y="100"/>
      <point x="14" y="0" type="curve"/>
      <point x="58" y="0"/>
      <point x="102" y="0"/>
      <point x="146" y="0" type="curve"/>
      <point x="146" y="100"/>
      <point x="146" y="0"/>
    </contour>
    <contour>
      <point x="537" y="0" type="curve"/>
      <point x="581" y="0"/>
      <point x="625" y="0"/>
      <point x="669" y="0" type="curve"/>
      <point x="669" y="100"/>
      <point x="669" y="0"/>
      <point x="669" y="100" type="curve"/>
      <point x="537" y="100"/>
      <point x="670" y="100"/>
      <point x="537" y="100" type="curve"/>
      <point x="537" y="0"/>
      <point x="537" y="100"/>
    </contour>
    <contour>
      <point x="525" y="100" type="curve"/>
      <point x="381" y="100"/>
      <point x="525" y="100"/>
      <point x="382" y="100" type="curve"/>
      <point x="382" y="0"/>
      <point x="382" y="100"/>
      <point x="382" y="0" type="curve"/>
      <point x="430" y="0"/>
      <point x="476" y="0"/>
      <point x="525" y="0" type="curve"/>
      <point x="525" y="100"/>
      <point x="525" y="0"/>
    </contour>
    <contour>
      <point x="517" y="622" type="curve"/>
      <point x="650" y="622"/>
      <point x="516" y="622"/>
      <point x="649" y="622" type="curve"/>
      <point x="649" y="722"/>
      <point x="649" y="622"/>
      <point x="649" y="722" type="curve"/>
      <point x="605" y="722"/>
      <point x="561" y="722"/>
      <point x="517" y="722" type="curve"/>
      <point x="517" y="622"/>
      <point x="517" y="722"/>
    </contour>
    <contour>
      <point x="527" y="722" type="curve"/>
      <point x="477" y="722"/>
      <point x="427" y="722"/>
      <point x="377" y="722" type="curve"/>
      <point x="377" y="622"/>
      <point x="377" y="722"/>
      <point x="377" y="622" type="curve"/>
      <point x="528" y="622"/>
      <point x="376" y="622"/>
      <point x="527" y="622" type="curve"/>
      <point x="527" y="722"/>
      <point x="527" y="622"/>
    </contour>
    <contour>
      <point x="171" y="722" type="curve"/>
      <point x="128" y="722"/>
      <point x="84" y="722"/>
      <point x="40" y="722" type="curve"/>
      <point x="40" y="622"/>
      <point x="40" y="722"/>
      <point x="40" y="622" type="curve"/>
      <point x="172" y="622"/>
      <point x="39" y="622"/>
      <point x="171" y="622" type="curve"/>
      <point x="171" y="722"/>
      <point x="171" y="622"/>
    </contour>
    <contour>
      <point x="162" y="622" type="curve"/>
      <point x="312" y="622"/>
      <point x="161" y="622"/>
      <point x="311" y="622" type="curve"/>
      <point x="311" y="722"/>
      <point x="311" y="622"/>
      <point x="311" y="722" type="curve"/>
      <point x="261" y="722"/>
      <point x="212" y="722"/>
      <point x="162" y="722" type="curve"/>
      <point x="162" y="622"/>
      <point x="162" y="722"/>
    </contour>
    <contour>
      <point x="491" y="722" type="curve"/>
      <point x="346" y="485"/>
      <point x="199" y="249"/>
      <point x="53" y="12" type="curve"/>
      <point x="183" y="12"/>
      <point x="53" y="0"/>
      <point x="183" y="0" type="curve"/>
      <point x="327" y="237"/>
      <point x="471" y="475"/>
      <point x="615" y="712" type="curve"/>
      <point x="491" y="712"/>
      <point x="615" y="722"/>
    </contour>
    <contour>
      <point x="75" y="712" type="curve"/>
      <point x="218" y="475"/>
      <point x="361" y="237"/>
      <point x="504" y="0" type="curve"/>
      <point x="633" y="0"/>
      <point x="504" y="8"/>
      <point x="633" y="8" type="curve"/>
      <point x="488" y="246"/>
      <point x="343" y="484"/>
      <point x="198" y="722" type="curve"/>
      <point x="75" y="722"/>
      <point x="198" y="712"/>
    </contour>
  </outline>
</glyph>
<glyph name="Y" format="1">
  <advance width="632"/>
  <unicode hex="0059"/>
  <outline>
    <contour>
      <point x="311" y="100" type="curve"/>
      <point x="168" y="100"/>
      <point x="312" y="100"/>
      <point x="169" y="100" type="curve"/>
      <point x="169" y="0"/>
      <point x="169" y="100"/>
      <point x="169" y="0" type="curve"/>
      <point x="216" y="0"/>
      <point x="263" y="0"/>
      <point x="311" y="0" type="curve"/>
      <point x="311" y="100"/>
      <point x="311" y="0"/>
    </contour>
    <contour>
      <point x="311" y="0" type="curve"/>
      <point x="358" y="0"/>
      <point x="405" y="0"/>
      <point x="453" y="0" type="curve"/>
      <point x="453" y="100"/>
      <point x="453" y="0"/>
      <point x="453" y="100" type="curve"/>
      <point x="310" y="100"/>
      <point x="453" y="100"/>
      <point x="311" y="100" type="curve"/>
      <point x="311" y="0"/>
      <point x="311" y="100"/>
    </contour>
    <contour>
      <point x="493" y="722" type="curve"/>
      <point x="448" y="722"/>
      <point x="403" y="722"/>
      <point x="358" y="722" type="curve"/>
      <point x="358" y="622"/>
      <point x="358" y="722"/>
      <point x="358" y="622" type="curve"/>
      <point x="494" y="622"/>
      <point x="357" y="622"/>
      <point x="493" y="622" type="curve"/>
      <point x="493" y="722"/>
      <point x="493" y="622"/>
    </contour>
    <contour>
      <point x="126" y="722" type="curve"/>
      <point x="88" y="722"/>
      <point x="50" y="722"/>
      <point x="13" y="722" type="curve"/>
      <point x="12" y="622"/>
      <point x="13" y="722"/>
      <point x="12" y="622" type="curve"/>
      <point x="127" y="622"/>
      <point x="11" y="622"/>
      <point x="126" y="622" type="curve"/>
      <point x="126" y="722"/>
      <point x="126" y="622"/>
    </contour>
    <contour>
      <point x="139" y="622" type="curve"/>
      <point x="275" y="622"/>
      <point x="138" y="622"/>
      <point x="275" y="622" type="curve"/>
      <point x="275" y="722"/>
      <point x="275" y="622"/>
      <point x="275" y="722" type="curve"/>
      <point x="229" y="722"/>
      <point x="184" y="722"/>
      <point x="139" y="722" type="curve"/>
      <point x="139" y="622"/>
      <point x="139" y="722"/>
    </contour>
    <contour>
      <point x="506" y="622" type="curve"/>
      <point x="625" y="622"/>
      <point x="505" y="622"/>
      <point x="624" y="622" type="curve"/>
      <point x="624" y="722"/>
      <point x="624" y="622"/>
      <point x="624" y="722" type="curve"/>
      <point x="585" y="722"/>
      <point x="546" y="722"/>
      <point x="506" y="722" type="curve"/>
      <point x="506" y="622"/>
      <point x="506" y="722"/>
    </contour>
    <contour>
      <point x="42" y="712" type="curve"/>
      <point x="109" y="588"/>
      <point x="174" y="464"/>
      <point x="241" y="337" type="curve"/>
      <point x="374" y="337"/>
      <point x="226" y="337"/>
      <point x="360" y="337" type="curve"/>
      <point x="296" y="468"/>
      <point x="234" y="592"/>
      <point x="168" y="722" type="curve"/>
      <point x="42" y="722"/>
      <point x="168" y="712"/>
    </contour>
    <contour>
      <point x="465" y="722" type="curve"/>
      <point x="394" y="591"/>
      <point x="328" y="468"/>
      <point x="255" y="337" type="curve"/>
      <point x="388" y="337"/>
      <point x="248" y="337"/>
      <point x="381" y="337" type="curve"/>
      <point x="452" y="464"/>
      <point x="520" y="588"/>
      <point x="592" y="713" type="curve"/>
      <point x="465" y="713"/>
      <point x="592" y="722"/>
    </contour>
    <contour>
      <point x="382" y="0" type="curve"/>
      <point x="382" y="115"/>
      <point x="382" y="225"/>
      <point x="382" y="340" type="curve"/>
      <point x="239" y="340"/>
      <point x="382" y="340"/>
      <point x="239" y="340" type="curve"/>
      <point x="239" y="225"/>
      <point x="239" y="115"/>
      <point x="239" y="0" type="curve"/>
      <point x="382" y="0"/>
      <point x="239" y="0"/>
    </contour>
    <contour>
      <point x="316" y="786" type="move" name="top"/>
    </contour>
  </outline>
</glyph>
<glyph name="bracketleft" format="1">
  <advance width="315"/>
  <unicode hex="005B"/>
  <outline>
    <contour>
      <point x="269" y="769" type="curve"/>
      <point x="224" y="769"/>
      <point x="178" y="769"/>
      <point x="133" y="769" type="curve"/>
      <point x="118" y="769"/>
      <point x="87" y="769"/>
      <point x="73" y="769" type="curve"/>
      <point x="73" y="754"/>
      <point x="73" y="735"/>
      <point x="73" y="720" type="curve"/>
      <point x="73" y="458"/>
      <point x="73" y="196"/>
      <point x="73" y="-66" type="curve"/>
      <point x="73" y="-82"/>
      <point x="73" y="-95"/>
      <point x="73" y="-114" type="curve"/>
      <point x="87" y="-114"/>
      <point x="116" y="-114"/>
      <point x="132" y="-114" type="curve"/>
      <point x="177" y="-114"/>
      <point x="223" y="-114"/>
      <point x="269" y="-114" type="curve"/>
      <point x="269" y="-4"/>
      <point x="269" y="-114"/>
      <point x="269" y="-4" type="curve"/>
      <point x="223" y="-4"/>
      <point x="177" y="-4"/>
      <point x="132" y="-4" type="curve"/>
      <point x="204" y="-4"/>
      <point x="132" y="-4"/>
      <point x="204" y="-4" type="curve"/>
      <point x="204" y="-66"/>
      <point x="204" y="-4"/>
      <point x="204" y="-66" type="curve"/>
      <point x="204" y="196"/>
      <point x="204" y="458"/>
      <point x="204" y="720" type="curve"/>
      <point x="204" y="659"/>
      <point x="204" y="720"/>
      <point x="204" y="659" type="curve"/>
      <point x="133" y="659"/>
      <point x="204" y="659"/>
      <point x="133" y="659" type="curve"/>
      <point x="178" y="659"/>
      <point x="224" y="659"/>
      <point x="269" y="659" type="curve"/>
      <point x="269" y="769"/>
      <point x="269" y="659"/>
    </contour>
  </outline>
</glyph>
<glyph name="backslash" format="1">
  <advance width="542"/>
  <unicode hex="005C"/>
  <outline>
    <contour>
      <point x="515" y="-68" type="curve"/>
      <point x="398" y="236"/>
      <point x="281" y="540"/>
      <point x="165" y="844" type="curve"/>
      <point x="28" y="844"/>
      <point x="165" y="844"/>
      <point x="28" y="844" type="curve"/>
      <point x="144" y="540"/>
      <point x="261" y="236"/>
      <point x="378" y="-68" type="curve"/>
      <point x="515" y="-68"/>
      <point x="378" y="-68"/>
    </contour>
  </outline>
</glyph>
<glyph name="bracketright" format="1">
  <advance width="316"/>
  <unicode hex="005D"/>
  <outline>
    <contour>
      <point x="47" y="659" type="curve"/>
      <point x="92" y="659"/>
      <point x="137" y="659"/>
      <point x="183" y="659" type="curve"/>
      <point x="171" y="670"/>
      <point x="153" y="672"/>
      <point x="142" y="683" type="curve"/>
      <point x="131" y="694"/>
      <point x="122" y="708"/>
      <point x="111" y="720" type="curve"/>
      <point x="111" y="458"/>
      <point x="110" y="196"/>
      <point x="111" y="-66" type="curve"/>
      <point x="122" y="-54"/>
      <point x="134" y="-42"/>
      <point x="145" y="-30" type="curve"/>
      <point x="156" y="-19"/>
      <point x="173" y="-15"/>
      <point x="184" y="-4" type="curve"/>
      <point x="138" y="-4"/>
      <point x="92" y="-4"/>
      <point x="47" y="-4" type="curve"/>
      <point x="46" y="-114"/>
      <point x="47" y="-4"/>
      <point x="46" y="-114" type="curve"/>
      <point x="92" y="-114"/>
      <point x="138" y="-114"/>
      <point x="184" y="-114" type="curve"/>
      <point x="243" y="-114"/>
      <point x="184" y="-114"/>
      <point x="243" y="-114" type="curve"/>
      <point x="243" y="-66"/>
      <point x="243" y="-114"/>
      <point x="243" y="-66" type="curve"/>
      <point x="242" y="196"/>
      <point x="243" y="458"/>
      <point x="243" y="720" type="curve"/>
      <point x="243" y="769"/>
      <point x="243" y="720"/>
      <point x="243" y="769" type="curve"/>
      <point x="183" y="769"/>
      <point x="243" y="769"/>
      <point x="183" y="769" type="curve"/>
      <point x="137" y="769"/>
      <point x="92" y="769"/>
      <point x="47" y="769" type="curve"/>
      <point x="47" y="659"/>
      <point x="47" y="769"/>
    </contour>
  </outline>
</glyph>
<glyph name="asciicircum" format="1">
  <advance width="539"/>
  <unicode hex="005E"/>
  <outline>
    <contour>
      <point x="179" y="454" type="curve"/>
      <point x="230" y="557"/>
      <point x="283" y="658"/>
      <point x="335" y="760" type="curve"/>
      <point x="203" y="760"/>
      <point x="334" y="760"/>
      <point x="203" y="760" type="curve"/>
      <point x="151" y="658"/>
      <point x="99" y="557"/>
      <point x="48" y="454" type="curve"/>
      <point x="179" y="454"/>
      <point x="48" y="454"/>
    </contour>
    <contour>
      <point x="491" y="454" type="curve"/>
      <point x="440" y="555"/>
      <point x="386" y="659"/>
      <point x="335" y="760" type="curve"/>
      <point x="203" y="760"/>
      <point x="335" y="760"/>
      <point x="203" y="760" type="curve"/>
      <point x="255" y="659"/>
      <point x="308" y="555"/>
      <point x="360" y="454" type="curve"/>
      <point x="491" y="454"/>
      <point x="360" y="454"/>
    </contour>
  </outline>
</glyph>
<glyph name="underscore" format="1">
  <advance width="608"/>
  <unicode hex="005F"/>
  <outline>
    <contour>
      <point x="0" y="-186" type="curve"/>
      <point x="202" y="-186"/>
      <point x="406" y="-186"/>
      <point x="608" y="-186" type="curve"/>
      <point x="608" y="-86"/>
      <point x="608" y="-186"/>
      <point x="608" y="-86" type="curve"/>
      <point x="406" y="-86"/>
      <point x="202" y="-86"/>
      <point x="0" y="-86" type="curve"/>
      <point x="0" y="-186"/>
      <point x="0" y="-86"/>
    </contour>
  </outline>
</glyph>
<glyph name="grave" format="1">
  <advance width="362"/>
  <unicode hex="0060"/>
  <outline>
    <contour>
      <point x="320" y="577" type="line"/>
      <point x="220" y="743" type="line"/>
      <point x="56" y="743" type="line"/>
      <point x="193" y="577" type="line"/>
    </contour>
    <contour>
      <point x="253" y="577" type="move" name="_top"/>
    </contour>
  </outline>
</glyph>
<glyph name="b" format="1">
  <advance width="653"/>
  <unicode hex="0062"/>
  <outline>
    <contour>
      <point x="173" y="800" type="curve"/>
      <point x="123" y="800"/>
      <point x="80" y="800"/>
      <point x="31" y="800" type="curve"/>
      <point x="31" y="717"/>
      <point x="31" y="783"/>
      <point x="31" y="700" type="curve"/>
      <point x="151" y="699"/>
      <point x="53" y="700"/>
      <point x="173" y="699" type="curve"/>
      <point x="173" y="783"/>
      <point x="173" y="716"/>
    </contour>
    <contour>
      <point x="204" y="346" type="curve"/>
      <point x="237" y="388"/>
      <point x="286" y="434"/>
      <point x="357" y="434" type="curve"/>
      <point x="444" y="434"/>
      <point x="478" y="359"/>
      <point x="478" y="262" type="curve"/>
      <point x="480" y="170"/>
      <point x="442" y="99"/>
      <point x="358" y="99" type="curve"/>
      <point x="296" y="99"/>
      <point x="250" y="128"/>
      <point x="214" y="171" type="curve"/>
      <point x="157" y="133"/>
      <point x="200" y="161"/>
      <point x="144" y="123" type="curve"/>
      <point x="202" y="48"/>
      <point x="268" y="-5"/>
      <point x="375" y="-5" type="curve"/>
      <point x="523" y="-5"/>
      <point x="611" y="105"/>
      <point x="610" y="266" type="curve"/>
      <point x="610" y="427"/>
      <point x="524" y="538"/>
      <point x="376" y="538" type="curve"/>
      <point x="268" y="538"/>
      <point x="200" y="472"/>
      <point x="148" y="399" type="curve"/>
      <point x="195" y="360"/>
      <point x="157" y="385"/>
    </contour>
    <contour>
      <point x="237" y="0" type="curve"/>
      <point x="237" y="277"/>
      <point x="237" y="523"/>
      <point x="237" y="800" type="curve"/>
      <point x="128" y="800"/>
      <point x="214" y="800"/>
      <point x="106" y="800" type="curve"/>
      <point x="106" y="523"/>
      <point x="106" y="277"/>
      <point x="106" y="0" type="curve"/>
      <point x="214" y="0"/>
      <point x="128" y="0"/>
    </contour>
    <contour>
      <point x="173" y="100" type="curve"/>
      <point x="54" y="100"/>
      <point x="151" y="100"/>
      <point x="31" y="100" type="curve"/>
      <point x="31" y="17"/>
      <point x="31" y="83"/>
      <point x="31" y="0" type="curve"/>
      <point x="80" y="0"/>
      <point x="123" y="0"/>
      <point x="173" y="0" type="curve"/>
      <point x="173" y="83"/>
      <point x="173" y="16"/>
    </contour>
  </outline>
</glyph>
<glyph name="f" format="1">
  <advance width="456"/>
  <unicode hex="0066"/>
  <outline>
    <contour>
      <point x="331" y="769" type="curve"/>
      <point x="331" y="646"/>
      <point x="331" y="770"/>
      <point x="331" y="647" type="curve"/>
      <point x="434" y="647"/>
      <point x="331" y="647"/>
      <point x="434" y="647" type="curve"/>
      <point x="434" y="770"/>
      <point x="434" y="646"/>
      <point x="434" y="769" type="curve"/>
      <point x="331" y="769"/>
      <point x="434" y="769"/>
    </contour>
    <contour>
      <point x="187" y="-1" type="curve"/>
      <point x="236" y="-1"/>
      <point x="278" y="0"/>
      <point x="328" y="0" type="curve"/>
      <point x="328" y="101"/>
      <point x="328" y="0"/>
      <point x="328" y="101" type="curve"/>
      <point x="179" y="100"/>
      <point x="336" y="101"/>
      <point x="187" y="100" type="curve"/>
      <point x="187" y="-1"/>
      <point x="187" y="100"/>
    </contour>
    <contour>
      <point x="187" y="100" type="curve"/>
      <point x="38" y="101"/>
      <point x="195" y="100"/>
      <point x="46" y="101" type="curve"/>
      <point x="46" y="0"/>
      <point x="46" y="101"/>
      <point x="46" y="0" type="curve"/>
      <point x="95" y="0"/>
      <point x="138" y="-1"/>
      <point x="187" y="-1" type="curve"/>
      <point x="187" y="100"/>
      <point x="187" y="-1"/>
    </contour>
    <contour>
      <point x="27" y="433" type="curve"/>
      <point x="392" y="433" type="line"/>
      <point x="392" y="533"/>
      <point x="392" y="433"/>
      <point x="392" y="533" type="curve"/>
      <point x="27" y="533" type="line"/>
      <point x="27" y="433"/>
      <point x="27" y="533"/>
    </contour>
    <contour>
      <point x="253" y="0" type="curve"/>
      <point x="253" y="608" type="line"/>
      <point x="252" y="663"/>
      <point x="264" y="708"/>
      <point x="315" y="708" type="curve"/>
      <point x="339" y="708"/>
      <point x="360" y="699"/>
      <point x="380" y="689" type="curve"/>
      <point x="434" y="769"/>
      <point x="380" y="689"/>
      <point x="434" y="769" type="curve"/>
      <point x="398" y="789"/>
      <point x="357" y="804"/>
      <point x="315" y="804" type="curve"/>
      <point x="195" y="804"/>
      <point x="120" y="728"/>
      <point x="121" y="608" type="curve"/>
      <point x="121" y="0" type="line"/>
      <point x="253" y="0"/>
      <point x="121" y="0"/>
    </contour>
  </outline>
</glyph>
<glyph name="g" format="1">
  <advance width="556"/>
  <unicode hex="0067"/>
  <outline>
    <contour>
      <point x="393" y="438" type="curve"/>
      <point x="533" y="502" type="line"/>
      <point x="531" y="504"/>
      <point x="481" y="595"/>
      <point x="480" y="597" type="curve"/>
      <point x="323" y="515" type="line"/>
      <point x="393" y="438"/>
      <point x="324" y="516"/>
    </contour>
    <contour>
      <point x="197" y="339" type="curve"/>
      <point x="197" y="397"/>
      <point x="231" y="438"/>
      <point x="288" y="438" type="curve"/>
      <point x="345" y="438"/>
      <point x="375" y="396"/>
      <point x="375" y="338" type="curve"/>
      <point x="375" y="284"/>
      <point x="345" y="246"/>
      <point x="288" y="246" type="curve"/>
      <point x="234" y="246"/>
      <point x="197" y="282"/>
      <point x="197" y="339" type="curve"/>
      <point x="66" y="334"/>
      <point x="197" y="339"/>
      <point x="66" y="334" type="curve"/>
      <point x="66" y="215"/>
      <point x="157" y="146"/>
      <point x="281" y="146" type="curve"/>
      <point x="411" y="146"/>
      <point x="507" y="217"/>
      <point x="507" y="342" type="curve"/>
      <point x="507" y="464"/>
      <point x="415" y="538"/>
      <point x="288" y="538" type="curve"/>
      <point x="157" y="538"/>
      <point x="66" y="460"/>
      <point x="66" y="334" type="curve"/>
      <point x="197" y="339"/>
      <point x="66" y="334"/>
    </contour>
    <contour>
      <point x="168" y="244" type="curve"/>
      <point x="111" y="213"/>
      <point x="69" y="176"/>
      <point x="69" y="112" type="curve"/>
      <point x="69" y="12"/>
      <point x="163" y="-22"/>
      <point x="271" y="-31" type="curve"/>
      <point x="351" y="-38"/>
      <point x="428" y="-50"/>
      <point x="428" y="-121" type="curve"/>
      <point x="428" y="-184"/>
      <point x="362" y="-205"/>
      <point x="288" y="-205" type="curve"/>
      <point x="218" y="-205"/>
      <point x="162" y="-174"/>
      <point x="162" y="-107" type="curve"/>
      <point x="162" y="-53"/>
      <point x="185" y="-14"/>
      <point x="229" y="4" type="curve"/>
      <point x="163" y="64"/>
      <point x="229" y="4"/>
      <point x="163" y="64" type="curve"/>
      <point x="85" y="32"/>
      <point x="31" y="-22"/>
      <point x="31" y="-112" type="curve"/>
      <point x="31" y="-244"/>
      <point x="142" y="-305"/>
      <point x="283" y="-305" type="curve"/>
      <point x="428" y="-305"/>
      <point x="550" y="-249"/>
      <point x="548" y="-112" type="curve"/>
      <point x="548" y="17"/>
      <point x="429" y="53"/>
      <point x="295" y="64" type="curve"/>
      <point x="246" y="68"/>
      <point x="201" y="81"/>
      <point x="201" y="122" type="curve"/>
      <point x="201" y="149"/>
      <point x="212" y="165"/>
      <point x="234" y="180" type="curve"/>
      <point x="168" y="244"/>
      <point x="234" y="180"/>
    </contour>
    <contour>
      <point x="283" y="618" type="move" name="top"/>
    </contour>
  </outline>
</glyph>
<glyph name="h" format="1">
  <advance width="627"/>
  <unicode hex="0068"/>
  <outline>
    <contour>
      <point x="481" y="-1" type="curve"/>
      <point x="531" y="-1"/>
      <point x="573" y="0"/>
      <point x="623" y="0" type="curve"/>
      <point x="623" y="100"/>
      <point x="623" y="0"/>
      <point x="623" y="100" type="curve"/>
      <point x="473" y="100"/>
      <point x="631" y="100"/>
      <point x="481" y="100" type="curve"/>
      <point x="481" y="-1"/>
      <point x="481" y="100"/>
    </contour>
    <contour>
      <point x="150" y="-1" type="curve"/>
      <point x="194" y="-1"/>
      <point x="142" y="-1"/>
      <point x="274" y="0" type="curve"/>
      <point x="274" y="100"/>
      <point x="274" y="0"/>
      <point x="274" y="100" type="curve"/>
      <point x="142" y="100"/>
      <point x="282" y="100"/>
      <point x="150" y="100" type="curve"/>
      <point x="150" y="-1"/>
      <point x="150" y="100"/>
    </contour>
    <contour>
      <point x="150" y="799" type="curve"/>
      <point x="100" y="799"/>
      <point x="57" y="800"/>
      <point x="8" y="800" type="curve"/>
      <point x="7" y="700"/>
      <point x="8" y="800"/>
      <point x="7" y="700" type="curve"/>
      <point x="158" y="699"/>
      <point x="0" y="700"/>
      <point x="150" y="699" type="curve"/>
      <point x="150" y="799"/>
      <point x="150" y="699"/>
    </contour>
    <contour>
      <point x="150" y="100" type="curve"/>
      <point x="0" y="100"/>
      <point x="158" y="100"/>
      <point x="8" y="100" type="curve"/>
      <point x="7" y="0"/>
      <point x="8" y="100"/>
      <point x="7" y="0" type="curve"/>
      <point x="57" y="0"/>
      <point x="100" y="-1"/>
      <point x="150" y="-1" type="curve"/>
      <point x="150" y="100"/>
      <point x="150" y="-1"/>
    </contour>
    <contour>
      <point x="186" y="300" type="curve"/>
      <point x="210" y="372"/>
      <point x="259" y="435"/>
      <point x="328" y="435" type="curve"/>
      <point x="397" y="435"/>
      <point x="416" y="381"/>
      <point x="416" y="308" type="curve"/>
      <point x="416" y="205"/>
      <point x="416" y="104"/>
      <point x="416" y="0" type="curve"/>
      <point x="547" y="0"/>
      <point x="416" y="0"/>
      <point x="547" y="0" type="curve"/>
      <point x="547" y="107"/>
      <point x="547" y="215"/>
      <point x="547" y="322" type="curve"/>
      <point x="547" y="453"/>
      <point x="493" y="535"/>
      <point x="361" y="535" type="curve"/>
      <point x="259" y="535"/>
      <point x="175" y="457"/>
      <point x="143" y="349" type="curve"/>
      <point x="187" y="299"/>
      <point x="142" y="350"/>
    </contour>
    <contour>
      <point x="215" y="0" type="curve"/>
      <point x="215" y="267"/>
      <point x="215" y="533"/>
      <point x="215" y="800" type="curve"/>
      <point x="84" y="800"/>
      <point x="215" y="800"/>
      <point x="84" y="800" type="curve"/>
      <point x="84" y="533"/>
      <point x="84" y="267"/>
      <point x="84" y="0" type="curve"/>
      <point x="215" y="0"/>
      <point x="84" y="0"/>
    </contour>
  </outline>
</glyph>
<glyph name="i" format="1">
  <advance width="326"/>
  <unicode hex="0069"/>
  <outline>
    <contour>
      <point x="171" y="100" type="curve"/>
      <point x="21" y="100"/>
      <point x="179" y="100"/>
      <point x="29" y="100" type="curve"/>
      <point x="29" y="0"/>
      <point x="29" y="100"/>
      <point x="29" y="0" type="curve"/>
      <point x="79" y="0"/>
      <point x="121" y="0"/>
      <point x="171" y="0" type="curve"/>
      <point x="171" y="100"/>
      <point x="171" y="0"/>
    </contour>
    <contour>
      <point x="171" y="0" type="curve"/>
      <point x="218" y="0"/>
      <point x="259" y="0"/>
      <point x="307" y="0" type="curve"/>
      <point x="307" y="100"/>
      <point x="307" y="0"/>
      <point x="307" y="100" type="curve"/>
      <point x="166" y="100"/>
      <point x="312" y="100"/>
      <point x="171" y="100" type="curve"/>
      <point x="171" y="0"/>
      <point x="171" y="100"/>
    </contour>
    <contour>
      <point x="171" y="533" type="curve"/>
      <point x="121" y="533"/>
      <point x="79" y="533"/>
      <point x="29" y="533" type="curve"/>
      <point x="29" y="433"/>
      <point x="29" y="533"/>
      <point x="29" y="433" type="curve"/>
      <point x="179" y="433"/>
      <point x="21" y="433"/>
      <point x="171" y="433" type="curve"/>
      <point x="171" y="533"/>
      <point x="171" y="433"/>
    </contour>
    <contour>
      <point x="240" y="0" type="curve"/>
      <point x="240" y="178"/>
      <point x="240" y="355"/>
      <point x="240" y="533" type="curve"/>
      <point x="102" y="533"/>
      <point x="240" y="533"/>
      <point x="102" y="533" type="curve"/>
      <point x="102" y="355"/>
      <point x="102" y="178"/>
      <point x="102" y="0" type="curve"/>
      <point x="240" y="0"/>
      <point x="102" y="0"/>
    </contour>
    <contour>
      <point x="240" y="681" type="curve"/>
      <point x="240" y="725"/>
      <point x="209" y="746"/>
      <point x="167" y="746" type="curve"/>
      <point x="125" y="746"/>
      <point x="97" y="723"/>
      <point x="97" y="681" type="curve"/>
      <point x="239" y="681"/>
      <point x="98" y="681"/>
      <point x="240" y="681" type="curve"/>
      <point x="240" y="636"/>
      <point x="209" y="616"/>
      <point x="167" y="616" type="curve"/>
      <point x="124" y="616"/>
      <point x="97" y="638"/>
      <point x="97" y="681" type="curve"/>
      <point x="239" y="681"/>
      <point x="98" y="681"/>
    </contour>
    <contour>
      <point x="167" y="619" type="move" name="top"/>
    </contour>
    <contour>
      <point x="230" y="6" type="move" name="bottom"/>
    </contour>
  </outline>
</glyph>
<glyph name="j" format="1">
  <advance width="292"/>
  <unicode hex="006A"/>
  <outline>
    <contour>
      <point x="149" y="533" type="curve"/>
      <point x="100" y="533"/>
      <point x="51" y="533"/>
      <point x="1" y="533" type="curve"/>
      <point x="1" y="433"/>
      <point x="1" y="533"/>
      <point x="1" y="433" type="curve"/>
      <point x="150" y="433"/>
      <point x="0" y="433"/>
      <point x="149" y="433" type="curve"/>
      <point x="149" y="533"/>
      <point x="149" y="433"/>
    </contour>
    <contour>
      <point x="-15" y="-303" type="curve"/>
      <point x="-6" y="-304"/>
      <point x="5" y="-305"/>
      <point x="17" y="-305" type="curve"/>
      <point x="133" y="-305"/>
      <point x="216" y="-236"/>
      <point x="216" y="-122" type="curve"/>
      <point x="216" y="96"/>
      <point x="216" y="315"/>
      <point x="216" y="534" type="curve"/>
      <point x="85" y="534"/>
      <point x="216" y="534"/>
      <point x="85" y="534" type="curve"/>
      <point x="85" y="315"/>
      <point x="85" y="96"/>
      <point x="85" y="-122" type="curve"/>
      <point x="85" y="-170"/>
      <point x="67" y="-209"/>
      <point x="22" y="-209" type="curve"/>
      <point x="16" y="-209"/>
      <point x="10" y="-208"/>
      <point x="4" y="-207" type="curve"/>
      <point x="-15" y="-303"/>
      <point x="4" y="-208"/>
    </contour>
    <contour>
      <point x="221" y="676" type="curve"/>
      <point x="221" y="720"/>
      <point x="190" y="741"/>
      <point x="149" y="741" type="curve"/>
      <point x="107" y="741"/>
      <point x="79" y="718"/>
      <point x="79" y="676" type="curve"/>
      <point x="220" y="676"/>
      <point x="79" y="676"/>
      <point x="221" y="676" type="curve"/>
      <point x="221" y="631"/>
      <point x="191" y="611"/>
      <point x="149" y="611" type="curve"/>
      <point x="106" y="611"/>
      <point x="79" y="633"/>
      <point x="79" y="676" type="curve"/>
      <point x="220" y="676"/>
      <point x="79" y="676"/>
    </contour>
  </outline>
</glyph>
<glyph name="k" format="1">
  <advance width="586"/>
  <unicode hex="006B"/>
  <outline>
    <contour>
      <point x="148" y="100" type="curve"/>
      <point x="-1" y="100"/>
      <point x="156" y="100"/>
      <point x="7" y="100" type="curve"/>
      <point x="7" y="0"/>
      <point x="7" y="100"/>
      <point x="7" y="0" type="curve"/>
      <point x="57" y="0"/>
      <point x="98" y="-1"/>
      <point x="148" y="-1" type="curve"/>
      <point x="148" y="100"/>
      <point x="148" y="-1"/>
    </contour>
    <contour>
      <point x="431" y="0" type="curve"/>
      <point x="481" y="0"/>
      <point x="519" y="0"/>
      <point x="568" y="0" type="curve"/>
      <point x="568" y="100"/>
      <point x="568" y="0"/>
      <point x="568" y="100" type="curve"/>
      <point x="421" y="100"/>
      <point x="581" y="100"/>
      <point x="433" y="100" type="curve"/>
      <point x="433" y="0"/>
      <point x="431" y="100"/>
    </contour>
    <contour>
      <point x="438" y="433" type="curve"/>
      <point x="558" y="433"/>
      <point x="426" y="433"/>
      <point x="545" y="433" type="curve"/>
      <point x="545" y="533"/>
      <point x="545" y="433"/>
      <point x="545" y="533" type="curve"/>
      <point x="506" y="533"/>
      <point x="478" y="533"/>
      <point x="438" y="533" type="curve"/>
      <point x="438" y="433"/>
      <point x="438" y="533"/>
    </contour>
    <contour>
      <point x="148" y="-1" type="curve"/>
      <point x="190" y="-1"/>
      <point x="147" y="-1"/>
      <point x="271" y="0" type="curve"/>
      <point x="271" y="100"/>
      <point x="271" y="0"/>
      <point x="271" y="100" type="curve"/>
      <point x="147" y="100"/>
      <point x="272" y="100"/>
      <point x="148" y="100" type="curve"/>
      <point x="148" y="-1"/>
      <point x="148" y="100"/>
    </contour>
    <contour>
      <point x="462" y="533" type="curve"/>
      <point x="397" y="533"/>
      <point x="334" y="533"/>
      <point x="268" y="533" type="curve"/>
      <point x="268" y="433"/>
      <point x="268" y="533"/>
      <point x="268" y="433" type="curve"/>
      <point x="465" y="433"/>
      <point x="265" y="433"/>
      <point x="462" y="433" type="curve"/>
      <point x="462" y="533"/>
      <point x="462" y="433"/>
    </contour>
    <contour>
      <point x="150" y="799" type="curve"/>
      <point x="100" y="799"/>
      <point x="58" y="800"/>
      <point x="8" y="800" type="curve"/>
      <point x="8" y="700"/>
      <point x="8" y="800"/>
      <point x="8" y="700" type="curve"/>
      <point x="158" y="699"/>
      <point x="0" y="700"/>
      <point x="150" y="699" type="curve"/>
      <point x="150" y="799"/>
      <point x="150" y="699"/>
    </contour>
    <contour>
      <point x="215" y="0" type="curve"/>
      <point x="215" y="800" type="line"/>
      <point x="83" y="800"/>
      <point x="215" y="800"/>
      <point x="83" y="800" type="curve"/>
      <point x="83" y="533"/>
      <point x="83" y="267"/>
      <point x="83" y="0" type="curve"/>
      <point x="215" y="0"/>
      <point x="83" y="0"/>
    </contour>
    <contour>
      <point x="404" y="533" type="curve"/>
      <point x="188" y="275" type="line"/>
      <point x="325" y="275"/>
      <point x="188" y="275"/>
      <point x="325" y="275" type="curve"/>
      <point x="519" y="489" type="line"/>
      <point x="389" y="489"/>
      <point x="534" y="533"/>
    </contour>
    <contour>
      <point x="533" y="58" type="curve"/>
      <point x="324" y="275" type="line"/>
      <point x="188" y="275"/>
      <point x="325" y="275"/>
      <point x="188" y="275" type="curve"/>
      <point x="427" y="0" type="line"/>
      <point x="550" y="0"/>
      <point x="409" y="58"/>
    </contour>
    <contour>
      <point x="365" y="-8" type="move" name="bottom"/>
    </contour>
  </outline>
</glyph>
<glyph name="l" format="1">
  <advance width="336"/>
  <unicode hex="006C"/>
  <outline>
    <contour>
      <point x="169" y="100" type="curve"/>
      <point x="19" y="100"/>
      <point x="169" y="100"/>
      <point x="19" y="100" type="curve"/>
      <point x="19" y="0"/>
      <point x="19" y="100"/>
      <point x="19" y="0" type="curve"/>
      <point x="69" y="0"/>
      <point x="118" y="0"/>
      <point x="169" y="0" type="curve"/>
      <point x="169" y="100"/>
      <point x="169" y="-1"/>
    </contour>
    <contour>
      <point x="171" y="800" type="curve"/>
      <point x="121" y="800"/>
      <point x="70" y="800"/>
      <point x="21" y="800" type="curve"/>
      <point x="20" y="700"/>
      <point x="21" y="800"/>
      <point x="20" y="700" type="curve"/>
      <point x="171" y="699"/>
      <point x="20" y="700"/>
      <point x="171" y="699" type="curve"/>
      <point x="171" y="799"/>
      <point x="171" y="700"/>
    </contour>
    <contour>
      <point x="169" y="0" type="curve"/>
      <point x="219" y="0"/>
      <point x="269" y="0"/>
      <point x="319" y="0" type="curve"/>
      <point x="319" y="100"/>
      <point x="319" y="0"/>
      <point x="319" y="100" type="curve"/>
      <point x="169" y="100"/>
      <point x="319" y="100"/>
      <point x="169" y="100" type="curve"/>
      <point x="169" y="-1"/>
      <point x="169" y="100"/>
    </contour>
    <contour>
      <point x="234" y="0" type="curve"/>
      <point x="234" y="267"/>
      <point x="234" y="533"/>
      <point x="234" y="800" type="curve"/>
      <point x="102" y="800"/>
      <point x="234" y="800"/>
      <point x="102" y="800" type="curve"/>
      <point x="102" y="533"/>
      <point x="102" y="267"/>
      <point x="102" y="0" type="curve"/>
      <point x="234" y="0"/>
      <point x="102" y="0"/>
    </contour>
    <contour>
      <point x="170" y="882" type="move" name="top"/>
    </contour>
    <contour>
      <point x="221" y="-4" type="move" name="bottom"/>
    </contour>
  </outline>
</glyph>
<glyph name="m" format="1">
  <advance width="956"/>
  <unicode hex="006D"/>
  <outline>
    <contour>
      <point x="489" y="0" type="curve"/>
      <point x="613" y="0"/>
      <point x="489" y="0"/>
      <point x="613" y="0" type="curve"/>
      <point x="613" y="100"/>
      <point x="613" y="0"/>
      <point x="613" y="100" type="curve"/>
      <point x="489" y="100"/>
      <point x="613" y="100"/>
      <point x="489" y="100" type="curve"/>
      <point x="489" y="0"/>
      <point x="489" y="100"/>
    </contour>
    <contour>
      <point x="786" y="0" type="curve"/>
      <point x="831" y="0"/>
      <point x="876" y="0"/>
      <point x="921" y="0" type="curve"/>
      <point x="921" y="100"/>
      <point x="921" y="0"/>
      <point x="921" y="100" type="curve"/>
      <point x="785" y="100"/>
      <point x="922" y="100"/>
      <point x="786" y="100" type="curve"/>
      <point x="786" y="0"/>
      <point x="786" y="100"/>
    </contour>
    <contour>
      <point x="192" y="100" type="curve"/>
      <point x="50" y="100"/>
      <point x="193" y="100"/>
      <point x="50" y="100" type="curve"/>
      <point x="50" y="0"/>
      <point x="50" y="100"/>
      <point x="50" y="0" type="curve"/>
      <point x="97" y="0"/>
      <point x="145" y="0"/>
      <point x="192" y="0" type="curve"/>
      <point x="192" y="100"/>
      <point x="192" y="0"/>
    </contour>
    <contour>
      <point x="192" y="0" type="curve"/>
      <point x="234" y="0"/>
      <point x="191" y="0"/>
      <point x="315" y="0" type="curve"/>
      <point x="315" y="100"/>
      <point x="315" y="0"/>
      <point x="315" y="100" type="curve"/>
      <point x="191" y="100"/>
      <point x="317" y="100"/>
      <point x="192" y="100" type="curve"/>
      <point x="192" y="0"/>
      <point x="192" y="100"/>
    </contour>
    <contour>
      <point x="192" y="533" type="curve"/>
      <point x="145" y="533"/>
      <point x="97" y="533"/>
      <point x="50" y="533" type="curve"/>
      <point x="50" y="433"/>
      <point x="50" y="533"/>
      <point x="50" y="433" type="curve"/>
      <point x="193" y="433"/>
      <point x="49" y="433"/>
      <point x="192" y="433" type="curve"/>
      <point x="192" y="533"/>
      <point x="192" y="433"/>
    </contour>
    <contour>
      <point x="524" y="279" type="curve"/>
      <point x="551" y="358"/>
      <point x="579" y="434"/>
      <point x="646" y="434" type="curve"/>
      <point x="714" y="434"/>
      <point x="719" y="386"/>
      <point x="719" y="312" type="curve"/>
      <point x="719" y="208"/>
      <point x="719" y="104"/>
      <point x="719" y="0" type="curve"/>
      <point x="850" y="0"/>
      <point x="719" y="0"/>
      <point x="850" y="0" type="curve"/>
      <point x="850" y="107"/>
      <point x="850" y="215"/>
      <point x="850" y="322" type="curve"/>
      <point x="850" y="458"/>
      <point x="821" y="538"/>
      <point x="688" y="538" type="curve"/>
      <point x="583" y="538"/>
      <point x="520" y="454"/>
      <point x="481" y="335" type="curve"/>
      <point x="527" y="280"/>
      <point x="478" y="333"/>
    </contour>
    <contour>
      <point x="228" y="280" type="curve"/>
      <point x="253" y="359"/>
      <point x="282" y="434"/>
      <point x="350" y="434" type="curve"/>
      <point x="417" y="434"/>
      <point x="423" y="386"/>
      <point x="423" y="312" type="curve"/>
      <point x="423" y="208"/>
      <point x="423" y="104"/>
      <point x="423" y="0" type="curve"/>
      <point x="554" y="0"/>
      <point x="423" y="0"/>
      <point x="554" y="0" type="curve"/>
      <point x="554" y="107"/>
      <point x="554" y="215"/>
      <point x="554" y="322" type="curve"/>
      <point x="554" y="458"/>
      <point x="525" y="538"/>
      <point x="392" y="538" type="curve"/>
      <point x="286" y="538"/>
      <point x="229" y="457"/>
      <point x="184" y="336" type="curve"/>
      <point x="231" y="282"/>
      <point x="181" y="334"/>
    </contour>
    <contour>
      <point x="258" y="0" type="curve"/>
      <point x="258" y="178"/>
      <point x="258" y="355"/>
      <point x="258" y="533" type="curve"/>
      <point x="126" y="533"/>
      <point x="258" y="533"/>
      <point x="126" y="533" type="curve"/>
      <point x="126" y="355"/>
      <point x="126" y="178"/>
      <point x="126" y="0" type="curve"/>
      <point x="258" y="0"/>
      <point x="126" y="0"/>
    </contour>
  </outline>
</glyph>
<glyph name="n" format="1">
  <advance width="648"/>
  <unicode hex="006E"/>
  <outline>
    <contour>
      <point x="208" y="270" type="curve"/>
      <point x="228" y="358"/>
      <point x="273" y="434"/>
      <point x="345" y="434" type="curve"/>
      <point x="412" y="434"/>
      <point x="436" y="384"/>
      <point x="436" y="312" type="curve"/>
      <point x="436" y="206"/>
      <point x="436" y="106"/>
      <point x="436" y="0" type="curve"/>
      <point x="544" y="0"/>
      <point x="459" y="0"/>
      <point x="567" y="0" type="curve"/>
      <point x="567" y="109"/>
      <point x="567" y="212"/>
      <point x="567" y="322" type="curve"/>
      <point x="567" y="453"/>
      <point x="517" y="538"/>
      <point x="387" y="538" type="curve"/>
      <point x="277" y="538"/>
      <point x="195" y="458"/>
      <point x="162" y="323" type="curve"/>
      <point x="197" y="277"/>
      <point x="174" y="316"/>
    </contour>
    <contour>
      <point x="501" y="0" type="curve"/>
      <point x="550" y="0"/>
      <point x="593" y="0"/>
      <point x="643" y="0" type="curve"/>
      <point x="643" y="100"/>
      <point x="643" y="0"/>
      <point x="643" y="100" type="curve"/>
      <point x="493" y="100"/>
      <point x="651" y="100"/>
      <point x="501" y="100" type="curve"/>
      <point x="501" y="0"/>
      <point x="501" y="100"/>
    </contour>
    <contour>
      <point x="170" y="100" type="curve"/>
      <point x="20" y="100"/>
      <point x="178" y="100"/>
      <point x="27" y="100" type="curve"/>
      <point x="27" y="0"/>
      <point x="27" y="100"/>
      <point x="27" y="0" type="curve"/>
      <point x="77" y="0"/>
      <point x="120" y="0"/>
      <point x="170" y="0" type="curve"/>
      <point x="170" y="100"/>
      <point x="170" y="0"/>
    </contour>
    <contour>
      <point x="170" y="0" type="curve"/>
      <point x="216" y="0"/>
      <point x="161" y="0"/>
      <point x="301" y="0" type="curve"/>
      <point x="301" y="100"/>
      <point x="301" y="0"/>
      <point x="301" y="100" type="curve"/>
      <point x="161" y="100"/>
      <point x="309" y="100"/>
      <point x="170" y="100" type="curve"/>
      <point x="170" y="0"/>
      <point x="170" y="100"/>
    </contour>
    <contour>
      <point x="235" y="0" type="curve"/>
      <point x="235" y="178"/>
      <point x="235" y="355"/>
      <point x="235" y="533" type="curve"/>
      <point x="104" y="533"/>
      <point x="235" y="533"/>
      <point x="104" y="533" type="curve"/>
      <point x="104" y="355"/>
      <point x="104" y="178"/>
      <point x="104" y="0" type="curve"/>
      <point x="235" y="0"/>
      <point x="104" y="0"/>
    </contour>
    <contour>
      <point x="170" y="533" type="curve"/>
      <point x="120" y="533"/>
      <point x="77" y="533"/>
      <point x="27" y="533" type="curve"/>
      <point x="27" y="433"/>
      <point x="27" y="533"/>
      <point x="27" y="433" type="curve"/>
      <point x="178" y="433"/>
      <point x="20" y="433"/>
      <point x="170" y="433" type="curve"/>
      <point x="170" y="533"/>
      <point x="170" y="433"/>
    </contour>
    <contour>
      <point x="338" y="618" type="move" name="top"/>
    </contour>
    <contour>
      <point x="374" y="5" type="move" name="bottom"/>
    </contour>
  </outline>
</glyph>
<glyph name="p" format="1">
  <advance width="632"/>
  <unicode hex="0070"/>
  <outline>
    <contour>
      <point x="148" y="-199" type="curve"/>
      <point x="-2" y="-199"/>
      <point x="156" y="-199"/>
      <point x="6" y="-199" type="curve"/>
      <point x="6" y="-300"/>
      <point x="6" y="-199"/>
      <point x="6" y="-300" type="curve"/>
      <point x="56" y="-300"/>
      <point x="98" y="-300"/>
      <point x="148" y="-300" type="curve"/>
      <point x="148" y="-199"/>
      <point x="148" y="-300"/>
    </contour>
    <contour>
      <point x="148" y="-300" type="curve"/>
      <point x="196" y="-300"/>
      <point x="235" y="-300"/>
      <point x="282" y="-300" type="curve"/>
      <point x="282" y="-199"/>
      <point x="282" y="-300"/>
      <point x="282" y="-199" type="curve"/>
      <point x="140" y="-199"/>
      <point x="290" y="-199"/>
      <point x="148" y="-199" type="curve"/>
      <point x="148" y="-300"/>
      <point x="148" y="-199"/>
    </contour>
    <contour>
      <point x="149" y="533" type="curve"/>
      <point x="99" y="533"/>
      <point x="57" y="533"/>
      <point x="7" y="533" type="curve"/>
      <point x="7" y="433"/>
      <point x="7" y="533"/>
      <point x="7" y="433" type="curve"/>
      <point x="157" y="433"/>
      <point x="-1" y="433"/>
      <point x="149" y="433" type="curve"/>
      <point x="149" y="533"/>
      <point x="149" y="433"/>
    </contour>
    <contour>
      <point x="181" y="307" type="curve"/>
      <point x="211" y="375"/>
      <point x="265" y="437"/>
      <point x="334" y="437" type="curve"/>
      <point x="429" y="437"/>
      <point x="458" y="359"/>
      <point x="458" y="263" type="curve"/>
      <point x="460" y="169"/>
      <point x="427" y="95"/>
      <point x="335" y="95" type="curve"/>
      <point x="273" y="95"/>
      <point x="227" y="121"/>
      <point x="185" y="165" type="curve"/>
      <point x="143" y="120"/>
      <point x="175" y="151"/>
      <point x="134" y="106" type="curve"/>
      <point x="193" y="35"/>
      <point x="263" y="-5"/>
      <point x="359" y="-5" type="curve"/>
      <point x="516" y="-5"/>
      <point x="590" y="112"/>
      <point x="590" y="269" type="curve"/>
      <point x="590" y="421"/>
      <point x="519" y="539"/>
      <point x="363" y="539" type="curve"/>
      <point x="262" y="539"/>
      <point x="188" y="471"/>
      <point x="141" y="387" type="curve"/>
      <point x="172" y="319"/>
      <point x="150" y="375"/>
    </contour>
    <contour>
      <point x="214" y="-300" type="curve"/>
      <point x="214" y="-22"/>
      <point x="214" y="255"/>
      <point x="214" y="533" type="curve"/>
      <point x="83" y="533"/>
      <point x="214" y="533"/>
      <point x="83" y="533" type="curve"/>
      <point x="83" y="255"/>
      <point x="83" y="-22"/>
      <point x="83" y="-300" type="curve"/>
      <point x="214" y="-300"/>
      <point x="83" y="-300"/>
    </contour>
  </outline>
</glyph>
<glyph name="q" format="1">
  <advance width="657"/>
  <unicode hex="0071"/>
  <outline>
    <contour>
      <point x="488" y="433" type="curve"/>
      <point x="601" y="433"/>
      <point x="506" y="433"/>
      <point x="620" y="433" type="curve"/>
      <point x="620" y="516"/>
      <point x="620" y="450"/>
      <point x="620" y="533" type="curve"/>
      <point x="572" y="533"/>
      <point x="536" y="533"/>
      <point x="488" y="533" type="curve"/>
      <point x="488" y="450"/>
      <point x="488" y="516"/>
    </contour>
    <contour>
      <point x="486" y="-199" type="curve"/>
      <point x="365" y="-199"/>
      <point x="466" y="-199"/>
      <point x="345" y="-199" type="curve"/>
      <point x="345" y="-283"/>
      <point x="345" y="-216"/>
      <point x="345" y="-300" type="curve"/>
      <point x="396" y="-300"/>
      <point x="435" y="-300"/>
      <point x="486" y="-300" type="curve"/>
      <point x="486" y="-216"/>
      <point x="486" y="-283"/>
    </contour>
    <contour>
      <point x="486" y="-300" type="curve"/>
      <point x="535" y="-300"/>
      <point x="571" y="-300"/>
      <point x="620" y="-300" type="curve"/>
      <point x="620" y="-216"/>
      <point x="620" y="-283"/>
      <point x="620" y="-199" type="curve"/>
      <point x="505" y="-199"/>
      <point x="601" y="-199"/>
      <point x="486" y="-199" type="curve"/>
      <point x="486" y="-283"/>
      <point x="486" y="-216"/>
    </contour>
    <contour>
      <point x="497" y="396" type="curve"/>
      <point x="444" y="482"/>
      <point x="370" y="538"/>
      <point x="274" y="538" type="curve"/>
      <point x="115" y="538"/>
      <point x="42" y="421"/>
      <point x="43" y="264" type="curve"/>
      <point x="43" y="107"/>
      <point x="121" y="-5"/>
      <point x="279" y="-5" type="curve"/>
      <point x="374" y="-5"/>
      <point x="446" y="55"/>
      <point x="502" y="132" type="curve"/>
      <point x="466" y="179"/>
      <point x="489" y="142"/>
      <point x="452" y="189" type="curve"/>
      <point x="415" y="132"/>
      <point x="364" y="95"/>
      <point x="300" y="95" type="curve"/>
      <point x="209" y="95"/>
      <point x="175" y="172"/>
      <point x="175" y="270" type="curve"/>
      <point x="175" y="362"/>
      <point x="210" y="435"/>
      <point x="297" y="435" type="curve"/>
      <point x="361" y="435"/>
      <point x="410" y="405"/>
      <point x="456" y="336" type="curve"/>
      <point x="484" y="386"/>
      <point x="470" y="346"/>
    </contour>
    <contour>
      <point x="555" y="-300" type="curve"/>
      <point x="555" y="-15"/>
      <point x="555" y="248"/>
      <point x="555" y="533" type="curve"/>
      <point x="442" y="533"/>
      <point x="530" y="533"/>
      <point x="418" y="533" type="curve"/>
      <point x="418" y="248"/>
      <point x="418" y="-15"/>
      <point x="418" y="-300" type="curve"/>
      <point x="530" y="-300"/>
      <point x="442" y="-300"/>
    </contour>
  </outline>
</glyph>
<glyph name="r" format="1">
  <advance width="433"/>
  <unicode hex="0072"/>
  <outline>
    <contour>
      <point x="191" y="0" type="curve"/>
      <point x="238" y="0"/>
      <point x="279" y="0"/>
      <point x="326" y="0" type="curve"/>
      <point x="326" y="83"/>
      <point x="326" y="17"/>
      <point x="326" y="100" type="curve"/>
      <point x="213" y="100"/>
      <point x="305" y="100"/>
      <point x="191" y="100" type="curve"/>
      <point x="191" y="17"/>
      <point x="191" y="83"/>
    </contour>
    <contour>
      <point x="191" y="100" type="curve"/>
      <point x="72" y="100"/>
      <point x="169" y="100"/>
      <point x="49" y="100" type="curve"/>
      <point x="49" y="17"/>
      <point x="49" y="83"/>
      <point x="49" y="0" type="curve"/>
      <point x="98" y="0"/>
      <point x="141" y="0"/>
      <point x="191" y="0" type="curve"/>
      <point x="191" y="83"/>
      <point x="191" y="17"/>
    </contour>
    <contour>
      <point x="190" y="533" type="curve"/>
      <point x="141" y="533"/>
      <point x="97" y="533"/>
      <point x="48" y="533" type="curve"/>
      <point x="48" y="450"/>
      <point x="48" y="516"/>
      <point x="48" y="433" type="curve"/>
      <point x="168" y="433"/>
      <point x="70" y="433"/>
      <point x="190" y="433" type="curve"/>
      <point x="190" y="516"/>
      <point x="190" y="450"/>
    </contour>
    <contour>
      <point x="256" y="0" type="curve"/>
      <point x="256" y="184"/>
      <point x="256" y="349"/>
      <point x="256" y="533" type="curve"/>
      <point x="148" y="533"/>
      <point x="234" y="533"/>
      <point x="125" y="533" type="curve"/>
      <point x="125" y="349"/>
      <point x="125" y="184"/>
      <point x="125" y="0" type="curve"/>
      <point x="234" y="0"/>
      <point x="148" y="0"/>
    </contour>
    <contour>
      <point x="227" y="288" type="curve"/>
      <point x="266" y="400"/>
      <point x="330" y="429"/>
      <point x="413" y="429" type="curve"/>
      <point x="413" y="518"/>
      <point x="413" y="449"/>
      <point x="413" y="538" type="curve"/>
      <point x="304" y="538"/>
      <point x="228" y="459"/>
      <point x="181" y="345" type="curve"/>
      <point x="219" y="300"/>
      <point x="190" y="333"/>
    </contour>
    <contour>
      <point x="217" y="618" type="move" name="top"/>
    </contour>
    <contour>
      <point x="235" y="2" type="move" name="bottom"/>
    </contour>
  </outline>
</glyph>
<glyph name="t" format="1">
  <advance width="379"/>
  <unicode hex="0074"/>
  <outline>
    <contour>
      <point x="14" y="432" type="curve"/>
      <point x="351" y="432" type="line"/>
      <point x="351" y="533"/>
      <point x="351" y="432"/>
      <point x="351" y="533" type="curve"/>
      <point x="14" y="533" type="line"/>
      <point x="14" y="432"/>
      <point x="14" y="533"/>
    </contour>
    <contour>
      <point x="319" y="116" type="curve"/>
      <point x="300" y="104"/>
      <point x="286" y="99"/>
      <point x="265" y="99" type="curve"/>
      <point x="225" y="99"/>
      <point x="217" y="129"/>
      <point x="217" y="172" type="curve"/>
      <point x="217" y="683" type="line"/>
      <point x="125" y="625"/>
      <point x="178" y="661"/>
      <point x="86" y="603" type="curve"/>
      <point x="86" y="167" type="line"/>
      <point x="86" y="56"/>
      <point x="142" y="-6"/>
      <point x="247" y="-6" type="curve"/>
      <point x="296" y="-6"/>
      <point x="329" y="8"/>
      <point x="366" y="29" type="curve"/>
      <point x="319" y="116"/>
      <point x="366" y="29"/>
    </contour>
    <contour>
      <point x="284" y="-1" type="move" name="bottom"/>
    </contour>
  </outline>
</glyph>
<glyph name="v" format="1">
  <advance width="627"/>
  <unicode hex="0076"/>
  <outline>
    <contour>
      <point x="134" y="533" type="curve"/>
      <point x="95" y="533"/>
      <point x="57" y="533"/>
      <point x="19" y="533" type="curve"/>
      <point x="19" y="433"/>
      <point x="19" y="533"/>
      <point x="19" y="433" type="curve"/>
      <point x="135" y="433"/>
      <point x="18" y="433"/>
      <point x="134" y="433" type="curve"/>
      <point x="134" y="533"/>
      <point x="134" y="433"/>
    </contour>
    <contour>
      <point x="134" y="433" type="curve"/>
      <point x="274" y="433"/>
      <point x="133" y="433"/>
      <point x="273" y="433" type="curve"/>
      <point x="273" y="533"/>
      <point x="273" y="433"/>
      <point x="273" y="533" type="curve"/>
      <point x="227" y="533"/>
      <point x="181" y="533"/>
      <point x="134" y="533" type="curve"/>
      <point x="134" y="433"/>
      <point x="134" y="533"/>
    </contour>
    <contour>
      <point x="503" y="533" type="curve"/>
      <point x="456" y="533"/>
      <point x="409" y="533"/>
      <point x="363" y="533" type="curve"/>
      <point x="363" y="433"/>
      <point x="363" y="533"/>
      <point x="363" y="433" type="curve"/>
      <point x="503" y="433"/>
      <point x="362" y="433"/>
      <point x="503" y="433" type="curve"/>
      <point x="503" y="533"/>
      <point x="503" y="433"/>
    </contour>
    <contour>
      <point x="503" y="433" type="curve"/>
      <point x="621" y="433"/>
      <point x="502" y="433"/>
      <point x="620" y="433" type="curve"/>
      <point x="620" y="533"/>
      <point x="620" y="433"/>
      <point x="620" y="533" type="curve"/>
      <point x="580" y="533"/>
      <point x="542" y="533"/>
      <point x="503" y="533" type="curve"/>
      <point x="503" y="433"/>
      <point x="503" y="533"/>
    </contour>
    <contour>
      <point x="54" y="533" type="curve"/>
      <point x="115" y="355"/>
      <point x="177" y="178"/>
      <point x="239" y="0" type="curve"/>
      <point x="364" y="0"/>
      <point x="239" y="0"/>
      <point x="364" y="0" type="curve"/>
      <point x="303" y="177"/>
      <point x="248" y="356"/>
      <point x="187" y="533" type="curve"/>
      <point x="54" y="533"/>
      <point x="187" y="533"/>
    </contour>
    <contour>
      <point x="450" y="533" type="curve"/>
      <point x="262" y="0" type="line"/>
      <point x="388" y="0"/>
      <point x="262" y="0"/>
      <point x="388" y="0" type="curve"/>
      <point x="453" y="178"/>
      <point x="518" y="355"/>
      <point x="583" y="533" type="curve"/>
      <point x="450" y="533"/>
      <point x="583" y="533"/>
    </contour>
  </outline>
</glyph>
<glyph name="x" format="1">
  <advance width="610"/>
  <unicode hex="0078"/>
  <outline>
    <contour>
      <point x="115" y="100" type="curve"/>
      <point x="14" y="100"/>
      <point x="123" y="100"/>
      <point x="22" y="100" type="curve"/>
      <point x="22" y="0"/>
      <point x="22" y="100"/>
      <point x="22" y="0" type="curve"/>
      <point x="56" y="0"/>
      <point x="81" y="0"/>
      <point x="115" y="0" type="curve"/>
      <point x="115" y="100"/>
      <point x="115" y="0"/>
    </contour>
    <contour>
      <point x="510" y="100" type="curve"/>
      <point x="345" y="100"/>
      <point x="506" y="100"/>
      <point x="340" y="100" type="curve"/>
      <point x="340" y="0"/>
      <point x="340" y="100"/>
      <point x="340" y="0" type="curve"/>
      <point x="395" y="0"/>
      <point x="455" y="0"/>
      <point x="510" y="0" type="curve"/>
      <point x="510" y="100"/>
      <point x="510" y="0"/>
    </contour>
    <contour>
      <point x="498" y="0" type="curve"/>
      <point x="531" y="0"/>
      <point x="568" y="0"/>
      <point x="601" y="0" type="curve"/>
      <point x="601" y="100"/>
      <point x="601" y="0"/>
      <point x="601" y="100" type="curve"/>
      <point x="501" y="100"/>
      <point x="597" y="100"/>
      <point x="498" y="100" type="curve"/>
      <point x="498" y="0"/>
      <point x="498" y="100"/>
    </contour>
    <contour>
      <point x="102" y="0" type="curve"/>
      <point x="158" y="0"/>
      <point x="106" y="0"/>
      <point x="273" y="0" type="curve"/>
      <point x="273" y="100"/>
      <point x="273" y="0"/>
      <point x="273" y="100" type="curve"/>
      <point x="106" y="100"/>
      <point x="269" y="100"/>
      <point x="102" y="100" type="curve"/>
      <point x="102" y="0"/>
      <point x="102" y="100"/>
    </contour>
    <contour>
      <point x="483" y="433" type="curve"/>
      <point x="589" y="433"/>
      <point x="489" y="433"/>
      <point x="595" y="433" type="curve"/>
      <point x="595" y="533"/>
      <point x="595" y="433"/>
      <point x="595" y="533" type="curve"/>
      <point x="560" y="533"/>
      <point x="518" y="533"/>
      <point x="483" y="533" type="curve"/>
      <point x="483" y="433"/>
      <point x="483" y="533"/>
    </contour>
    <contour>
      <point x="159" y="533" type="curve"/>
      <point x="120" y="533"/>
      <point x="83" y="533"/>
      <point x="45" y="533" type="curve"/>
      <point x="45" y="433"/>
      <point x="45" y="533"/>
      <point x="45" y="433" type="curve"/>
      <point x="159" y="433"/>
      <point x="45" y="433"/>
      <point x="159" y="433" type="curve"/>
      <point x="159" y="533"/>
      <point x="159" y="433"/>
    </contour>
    <contour>
      <point x="133" y="433" type="curve"/>
      <point x="288" y="433"/>
      <point x="129" y="433"/>
      <point x="284" y="433" type="curve"/>
      <point x="284" y="533"/>
      <point x="284" y="433"/>
      <point x="284" y="533" type="curve"/>
      <point x="233" y="533"/>
      <point x="184" y="533"/>
      <point x="133" y="533" type="curve"/>
      <point x="133" y="433"/>
      <point x="133" y="533"/>
    </contour>
    <contour>
      <point x="503" y="533" type="curve"/>
      <point x="450" y="533"/>
      <point x="400" y="533"/>
      <point x="349" y="533" type="curve"/>
      <point x="349" y="433"/>
      <point x="349" y="533"/>
      <point x="349" y="433" type="curve"/>
      <point x="505" y="433"/>
      <point x="347" y="433"/>
      <point x="503" y="433" type="curve"/>
      <point x="503" y="533"/>
      <point x="503" y="433"/>
    </contour>
    <contour>
      <point x="563" y="39" type="curve"/>
      <point x="547" y="63"/>
      <point x="188" y="510"/>
      <point x="172" y="533" type="curve"/>
      <point x="75" y="533"/>
      <point x="167" y="489"/>
      <point x="71" y="489" type="curve"/>
      <point x="87" y="465"/>
      <point x="438" y="24"/>
      <point x="454" y="1" type="curve"/>
      <point x="558" y="1"/>
      <point x="458" y="39"/>
    </contour>
    <contour>
      <point x="467" y="533" type="curve"/>
      <point x="451" y="510"/>
      <point x="72" y="68"/>
      <point x="56" y="44" type="curve"/>
      <point x="157" y="44"/>
      <point x="58" y="0"/>
      <point x="160" y="0" type="curve"/>
      <point x="176" y="23"/>
      <point x="549" y="468"/>
      <point x="565" y="491" type="curve"/>
      <point x="467" y="491"/>
      <point x="566" y="533"/>
    </contour>
  </outline>
</glyph>
<glyph name="braceleft" format="1">
  <advance width="291"/>
  <unicode hex="007B"/>
  <outline>
    <contour>
      <point x="243" y="-10" type="curve"/>
      <point x="205" y="-10"/>
      <point x="199" y="22"/>
      <point x="199" y="61" type="curve"/>
      <point x="199" y="113"/>
      <point x="199" y="165"/>
      <point x="199" y="217" type="curve"/>
      <point x="199" y="322"/>
      <point x="139" y="393"/>
      <point x="37" y="393" type="curve"/>
      <point x="37" y="288"/>
      <point x="37" y="393"/>
      <point x="37" y="288" type="curve"/>
      <point x="69" y="288"/>
      <point x="79" y="262"/>
      <point x="79" y="227" type="curve"/>
      <point x="79" y="173"/>
      <point x="79" y="120"/>
      <point x="79" y="67" type="curve"/>
      <point x="79" y="-40"/>
      <point x="138" y="-110"/>
      <point x="243" y="-110" type="curve"/>
      <point x="243" y="-10"/>
      <point x="243" y="-110"/>
    </contour>
    <contour>
      <point x="243" y="791" type="curve"/>
      <point x="138" y="791"/>
      <point x="79" y="724"/>
      <point x="79" y="618" type="curve"/>
      <point x="79" y="563"/>
      <point x="79" y="507"/>
      <point x="79" y="452" type="curve"/>
      <point x="79" y="417"/>
      <point x="69" y="393"/>
      <point x="37" y="393" type="curve"/>
      <point x="37" y="288"/>
      <point x="37" y="393"/>
      <point x="37" y="288" type="curve"/>
      <point x="140" y="288"/>
      <point x="199" y="359"/>
      <point x="199" y="467" type="curve"/>
      <point x="199" y="517"/>
      <point x="199" y="567"/>
      <point x="199" y="618" type="curve"/>
      <point x="199" y="658"/>
      <point x="204" y="690"/>
      <point x="243" y="690" type="curve"/>
      <point x="243" y="791"/>
      <point x="243" y="690"/>
    </contour>
  </outline>
</glyph>
<glyph name="braceright" format="1">
  <advance width="292"/>
  <unicode hex="007D"/>
  <outline>
    <contour>
      <point x="49" y="-110" type="curve"/>
      <point x="153" y="-110"/>
      <point x="212" y="-40"/>
      <point x="212" y="67" type="curve"/>
      <point x="212" y="120"/>
      <point x="212" y="173"/>
      <point x="212" y="227" type="curve"/>
      <point x="212" y="262"/>
      <point x="222" y="288"/>
      <point x="255" y="288" type="curve"/>
      <point x="255" y="393"/>
      <point x="255" y="288"/>
      <point x="255" y="393" type="curve"/>
      <point x="152" y="393"/>
      <point x="93" y="322"/>
      <point x="93" y="217" type="curve"/>
      <point x="93" y="165"/>
      <point x="93" y="113"/>
      <point x="93" y="61" type="curve"/>
      <point x="93" y="22"/>
      <point x="86" y="-10"/>
      <point x="49" y="-10" type="curve"/>
      <point x="49" y="-110"/>
      <point x="49" y="-10"/>
    </contour>
    <contour>
      <point x="49" y="690" type="curve"/>
      <point x="87" y="690"/>
      <point x="93" y="658"/>
      <point x="93" y="618" type="curve"/>
      <point x="93" y="567"/>
      <point x="93" y="517"/>
      <point x="93" y="467" type="curve"/>
      <point x="93" y="359"/>
      <point x="151" y="288"/>
      <point x="255" y="288" type="curve"/>
      <point x="255" y="393"/>
      <point x="255" y="288"/>
      <point x="255" y="393" type="curve"/>
      <point x="222" y="393"/>
      <point x="212" y="417"/>
      <point x="212" y="452" type="curve"/>
      <point x="212" y="507"/>
      <point x="212" y="563"/>
      <point x="212" y="618" type="curve"/>
      <point x="212" y="724"/>
      <point x="153" y="791"/>
      <point x="49" y="791" type="curve"/>
      <point x="49" y="690"/>
      <point x="49" y="791"/>
    </contour>
  </outline>
</glyph>
<glyph name="asciitilde" format="1">
  <advance width="659"/>
  <unicode hex="007E"/>
  <outline>
    <contour>
      <point x="494" y="375" type="curve"/>
      <point x="481" y="336"/>
      <point x="467" y="300"/>
      <point x="436" y="300" type="curve"/>
      <point x="407" y="300"/>
      <point x="391" y="309"/>
      <point x="369" y="326" type="curve"/>
      <point x="323" y="366"/>
      <point x="290" y="387"/>
      <point x="228" y="387" type="curve"/>
      <point x="133" y="387"/>
      <point x="87" y="335"/>
      <point x="62" y="242" type="curve"/>
      <point x="102" y="226"/>
      <point x="122" y="219"/>
      <point x="163" y="204" type="curve"/>
      <point x="175" y="247"/>
      <point x="191" y="282"/>
      <point x="225" y="282" type="curve"/>
      <point x="252" y="282"/>
      <point x="266" y="274"/>
      <point x="287" y="257" type="curve"/>
      <point x="336" y="216"/>
      <point x="370" y="196"/>
      <point x="434" y="195" type="curve"/>
      <point x="527" y="195"/>
      <point x="566" y="250"/>
      <point x="597" y="339" type="curve"/>
      <point x="556" y="354"/>
      <point x="536" y="361"/>
    </contour>
  </outline>
</glyph>
<glyph name="exclamdown" format="1">
  <advance width="269"/>
  <unicode hex="00A1"/>
  <outline>
    <contour>
      <point x="75" y="301" type="line"/>
      <point x="62" y="-192" type="line"/>
      <point x="207" y="-192" type="line"/>
      <point x="197" y="301" type="line"/>
    </contour>
    <contour>
      <point x="65" y="474" type="curve"/>
      <point x="64" y="430"/>
      <point x="95" y="409"/>
      <point x="137" y="408" type="curve"/>
      <point x="179" y="408"/>
      <point x="207" y="432"/>
      <point x="207" y="474" type="curve"/>
      <point x="66" y="474"/>
      <point x="206" y="474"/>
      <point x="65" y="474" type="curve"/>
      <point x="65" y="519"/>
      <point x="95" y="539"/>
      <point x="138" y="539" type="curve"/>
      <point x="180" y="539"/>
      <point x="208" y="517"/>
      <point x="207" y="474" type="curve"/>
      <point x="66" y="474"/>
      <point x="206" y="474"/>
    </contour>
  </outline>
</glyph>
<glyph name="cent" format="1">
  <advance width="637"/>
  <unicode hex="00A2"/>
  <outline>
    <contour>
      <point x="404" y="-53" type="curve"/>
      <point x="404" y="-13"/>
      <point x="404" y="27"/>
      <point x="404" y="67" type="curve"/>
      <point x="273" y="67"/>
      <point x="404" y="67"/>
      <point x="273" y="67" type="curve"/>
      <point x="273" y="27"/>
      <point x="273" y="-13"/>
      <point x="273" y="-53" type="curve"/>
      <point x="404" y="-53"/>
      <point x="273" y="-53"/>
    </contour>
    <contour>
      <point x="292" y="778" type="curve"/>
      <point x="292" y="742"/>
      <point x="292" y="706"/>
      <point x="292" y="670" type="curve"/>
      <point x="423" y="670"/>
      <point x="292" y="670"/>
      <point x="423" y="670" type="curve"/>
      <point x="423" y="706"/>
      <point x="423" y="742"/>
      <point x="423" y="778" type="curve"/>
      <point x="292" y="778"/>
      <point x="423" y="778"/>
    </contour>
    <contour>
      <point x="584" y="612" type="curve"/>
      <point x="512" y="666"/>
      <point x="452" y="686"/>
      <point x="366" y="686" type="curve"/>
      <point x="169" y="686"/>
      <point x="49" y="562"/>
      <point x="49" y="363" type="curve"/>
      <point x="49" y="174"/>
      <point x="149" y="46"/>
      <point x="332" y="46" type="curve"/>
      <point x="434" y="46"/>
      <point x="506" y="72"/>
      <point x="582" y="143" type="curve"/>
      <point x="505" y="222"/>
      <point x="582" y="143"/>
      <point x="505" y="222" type="curve"/>
      <point x="450" y="179"/>
      <point x="410" y="151"/>
      <point x="344" y="151" type="curve"/>
      <point x="231" y="151"/>
      <point x="180" y="244"/>
      <point x="180" y="369" type="curve"/>
      <point x="180" y="494"/>
      <point x="242" y="581"/>
      <point x="354" y="581" type="curve"/>
      <point x="416" y="581"/>
      <point x="459" y="563"/>
      <point x="514" y="527" type="curve"/>
      <point x="584" y="612"/>
      <point x="514" y="527"/>
    </contour>
    <contour>
      <point x="481" y="612" type="curve"/>
      <point x="481" y="490"/>
      <point x="481" y="591"/>
      <point x="481" y="470" type="curve"/>
      <point x="584" y="470"/>
      <point x="481" y="470"/>
      <point x="584" y="470" type="curve"/>
      <point x="584" y="591"/>
      <point x="584" y="490"/>
      <point x="584" y="612" type="curve"/>
      <point x="481" y="612"/>
      <point x="584" y="612"/>
    </contour>
  </outline>
</glyph>
<glyph name="sterling" format="1">
  <advance width="484"/>
  <unicode hex="00A3"/>
  <outline>
    <contour>
      <point x="414" y="101" type="curve"/>
      <point x="294" y="101"/>
      <point x="169" y="101"/>
      <point x="49" y="101" type="curve"/>
      <point x="49" y="0"/>
      <point x="49" y="101"/>
      <point x="49" y="0" type="curve"/>
      <point x="169" y="0"/>
      <point x="294" y="0"/>
      <point x="414" y="0" type="curve"/>
      <point x="414" y="101"/>
      <point x="414" y="0"/>
    </contour>
    <contour>
      <point x="367" y="425" type="curve"/>
      <point x="271" y="425"/>
      <point x="169" y="425"/>
      <point x="73" y="425" type="curve"/>
      <point x="73" y="325"/>
      <point x="73" y="425"/>
      <point x="73" y="325" type="curve"/>
      <point x="169" y="325"/>
      <point x="271" y="325"/>
      <point x="367" y="325" type="curve"/>
      <point x="367" y="425"/>
      <point x="367" y="325"/>
    </contour>
    <contour>
      <point x="444" y="662" type="curve"/>
      <point x="399" y="707"/>
      <point x="358" y="721"/>
      <point x="301" y="721" type="curve"/>
      <point x="133" y="721"/>
      <point x="80" y="559"/>
      <point x="120" y="364" type="curve"/>
      <point x="148" y="228"/>
      <point x="137" y="101"/>
      <point x="49" y="101" type="curve"/>
      <point x="49" y="0"/>
      <point x="49" y="101"/>
      <point x="49" y="0" type="curve"/>
      <point x="231" y="0"/>
      <point x="282" y="177"/>
      <point x="241" y="385" type="curve"/>
      <point x="216" y="509"/>
      <point x="221" y="625"/>
      <point x="294" y="625" type="curve"/>
      <point x="330" y="625"/>
      <point x="351" y="610"/>
      <point x="379" y="589" type="curve"/>
      <point x="444" y="662"/>
      <point x="379" y="589"/>
    </contour>
  </outline>
</glyph>
<glyph name="currency" format="1">
  <advance width="654"/>
  <unicode hex="00A4"/>
  <outline>
    <contour>
      <point x="257" y="316" type="curve"/>
      <point x="257" y="367"/>
      <point x="277" y="407"/>
      <point x="325" y="407" type="curve"/>
      <point x="376" y="407"/>
      <point x="396" y="370"/>
      <point x="396" y="316" type="curve"/>
      <point x="396" y="264"/>
      <point x="378" y="220"/>
      <point x="330" y="220" type="curve"/>
      <point x="277" y="220"/>
      <point x="257" y="261"/>
      <point x="257" y="316" type="curve"/>
      <point x="126" y="316"/>
      <point x="262" y="316"/>
      <point x="131" y="316" type="curve"/>
      <point x="131" y="194"/>
      <point x="207" y="120"/>
      <point x="329" y="120" type="curve"/>
      <point x="450" y="120"/>
      <point x="524" y="198"/>
      <point x="524" y="319" type="curve"/>
      <point x="524" y="435"/>
      <point x="452" y="507"/>
      <point x="336" y="507" type="curve"/>
      <point x="212" y="507"/>
      <point x="131" y="436"/>
      <point x="131" y="316" type="curve"/>
      <point x="262" y="316"/>
      <point x="126" y="316"/>
    </contour>
    <contour>
      <point x="437" y="337" type="line"/>
      <point x="598" y="485" type="line"/>
      <point x="501" y="582" type="line"/>
      <point x="354" y="421" type="line"/>
    </contour>
    <contour>
      <point x="358" y="213" type="line"/>
      <point x="506" y="52" type="line"/>
      <point x="602" y="149" type="line"/>
      <point x="441" y="297" type="line"/>
    </contour>
    <contour>
      <point x="214" y="297" type="line"/>
      <point x="53" y="149" type="line"/>
      <point x="150" y="53" type="line"/>
      <point x="297" y="213" type="line"/>
    </contour>
    <contour>
      <point x="303" y="422" type="line"/>
      <point x="155" y="583" type="line"/>
      <point x="59" y="486" type="line"/>
      <point x="219" y="338" type="line"/>
    </contour>
  </outline>
</glyph>
<glyph name="yen" format="1">
  <advance width="689"/>
  <unicode hex="00A5"/>
  <outline>
    <contour>
      <point x="538" y="421" type="curve"/>
      <point x="476" y="421"/>
      <point x="413" y="421"/>
      <point x="350" y="421" type="curve"/>
      <point x="350" y="311"/>
      <point x="350" y="421"/>
      <point x="350" y="311" type="curve"/>
      <point x="413" y="311"/>
      <point x="476" y="311"/>
      <point x="538" y="311" type="curve"/>
      <point x="538" y="421"/>
      <point x="538" y="311"/>
    </contour>
    <contour>
      <point x="324" y="421" type="curve"/>
      <point x="263" y="421"/>
      <point x="201" y="421"/>
      <point x="140" y="421" type="curve"/>
      <point x="140" y="311"/>
      <point x="140" y="421"/>
      <point x="140" y="311" type="curve"/>
      <point x="201" y="311"/>
      <point x="263" y="311"/>
      <point x="324" y="311" type="curve"/>
      <point x="324" y="421"/>
      <point x="324" y="311"/>
    </contour>
    <contour>
      <point x="538" y="274" type="curve"/>
      <point x="405" y="274"/>
      <point x="272" y="274"/>
      <point x="140" y="274" type="curve"/>
      <point x="140" y="164"/>
      <point x="140" y="274"/>
      <point x="140" y="164" type="curve"/>
      <point x="272" y="164"/>
      <point x="405" y="164"/>
      <point x="538" y="164" type="curve"/>
      <point x="538" y="274"/>
      <point x="538" y="164"/>
    </contour>
    <contour>
      <point x="337" y="100" type="curve"/>
      <point x="193" y="100"/>
      <point x="338" y="100"/>
      <point x="194" y="100" type="curve"/>
      <point x="194" y="0"/>
      <point x="194" y="100"/>
      <point x="194" y="0" type="curve"/>
      <point x="241" y="0"/>
      <point x="289" y="0"/>
      <point x="337" y="0" type="curve"/>
      <point x="337" y="100"/>
      <point x="337" y="0"/>
    </contour>
    <contour>
      <point x="337" y="0" type="curve"/>
      <point x="385" y="0"/>
      <point x="432" y="0"/>
      <point x="480" y="0" type="curve"/>
      <point x="480" y="100"/>
      <point x="480" y="0"/>
      <point x="480" y="100" type="curve"/>
      <point x="336" y="100"/>
      <point x="481" y="100"/>
      <point x="337" y="100" type="curve"/>
      <point x="337" y="0"/>
      <point x="337" y="100"/>
    </contour>
    <contour>
      <point x="520" y="722" type="curve"/>
      <point x="474" y="722"/>
      <point x="429" y="722"/>
      <point x="384" y="722" type="curve"/>
      <point x="384" y="622"/>
      <point x="384" y="722"/>
      <point x="384" y="622" type="curve"/>
      <point x="521" y="622"/>
      <point x="383" y="622"/>
      <point x="520" y="622" type="curve"/>
      <point x="520" y="722"/>
      <point x="520" y="622"/>
    </contour>
    <contour>
      <point x="152" y="722" type="curve"/>
      <point x="113" y="722"/>
      <point x="75" y="722"/>
      <point x="37" y="722" type="curve"/>
      <point x="36" y="622"/>
      <point x="37" y="722"/>
      <point x="36" y="622" type="curve"/>
      <point x="153" y="622"/>
      <point x="36" y="622"/>
      <point x="152" y="622" type="curve"/>
      <point x="152" y="722"/>
      <point x="152" y="622"/>
    </contour>
    <contour>
      <point x="165" y="622" type="curve"/>
      <point x="302" y="622"/>
      <point x="164" y="622"/>
      <point x="301" y="622" type="curve"/>
      <point x="301" y="722"/>
      <point x="301" y="622"/>
      <point x="301" y="722" type="curve"/>
      <point x="255" y="722"/>
      <point x="210" y="722"/>
      <point x="165" y="722" type="curve"/>
      <point x="165" y="622"/>
      <point x="165" y="722"/>
    </contour>
    <contour>
      <point x="533" y="622" type="curve"/>
      <point x="653" y="622"/>
      <point x="532" y="622"/>
      <point x="652" y="622" type="curve"/>
      <point x="652" y="722"/>
      <point x="652" y="622"/>
      <point x="652" y="722" type="curve"/>
      <point x="613" y="722"/>
      <point x="573" y="722"/>
      <point x="533" y="722" type="curve"/>
      <point x="533" y="622"/>
      <point x="533" y="722"/>
    </contour>
    <contour>
      <point x="68" y="712" type="curve"/>
      <point x="136" y="588"/>
      <point x="200" y="464"/>
      <point x="267" y="337" type="curve"/>
      <point x="400" y="337"/>
      <point x="253" y="337"/>
      <point x="386" y="337" type="curve"/>
      <point x="322" y="468"/>
      <point x="260" y="592"/>
      <point x="194" y="722" type="curve"/>
      <point x="68" y="722"/>
      <point x="194" y="712"/>
    </contour>
    <contour>
      <point x="492" y="722" type="curve"/>
      <point x="420" y="591"/>
      <point x="354" y="468"/>
      <point x="281" y="337" type="curve"/>
      <point x="415" y="337"/>
      <point x="274" y="337"/>
      <point x="407" y="337" type="curve"/>
      <point x="478" y="464"/>
      <point x="546" y="588"/>
      <point x="618" y="713" type="curve"/>
      <point x="492" y="713"/>
      <point x="618" y="722"/>
    </contour>
    <contour>
      <point x="409" y="0" type="curve"/>
      <point x="409" y="115"/>
      <point x="409" y="225"/>
      <point x="409" y="340" type="curve"/>
      <point x="265" y="340"/>
      <point x="409" y="340"/>
      <point x="265" y="340" type="curve"/>
      <point x="265" y="225"/>
      <point x="265" y="115"/>
      <point x="265" y="0" type="curve"/>
      <point x="409" y="0"/>
      <point x="265" y="0"/>
    </contour>
  </outline>
</glyph>
<glyph name="section" format="1">
  <advance width="527"/>
  <unicode hex="00A7"/>
  <outline>
    <contour>
      <point x="420" y="701" type="curve"/>
      <point x="367" y="733"/>
      <point x="327" y="749"/>
      <point x="268" y="749" type="curve"/>
      <point x="158" y="749"/>
      <point x="83" y="696"/>
      <point x="83" y="598" type="curve"/>
      <point x="83" y="511"/>
      <point x="137" y="463"/>
      <point x="221" y="433" type="curve"/>
      <point x="279" y="412"/>
      <point x="345" y="406"/>
      <point x="345" y="359" type="curve"/>
      <point x="345" y="310"/>
      <point x="309" y="286"/>
      <point x="257" y="276" type="curve"/>
      <point x="334" y="195"/>
      <point x="257" y="276"/>
      <point x="334" y="195" type="curve"/>
      <point x="424" y="217"/>
      <point x="476" y="271"/>
      <point x="476" y="361" type="curve"/>
      <point x="475" y="463"/>
      <point x="389" y="495"/>
      <point x="286" y="528" type="curve"/>
      <point x="246" y="542"/>
      <point x="209" y="558"/>
      <point x="209" y="598" type="curve"/>
      <point x="209" y="628"/>
      <point x="230" y="649"/>
      <point x="265" y="649" type="curve"/>
      <point x="305" y="649"/>
      <point x="327" y="638"/>
      <point x="362" y="619" type="curve"/>
      <point x="420" y="701"/>
      <point x="362" y="619"/>
    </contour>
    <contour>
      <point x="192" y="526" type="curve"/>
      <point x="108" y="499"/>
      <point x="53" y="453"/>
      <point x="53" y="366" type="curve"/>
      <point x="53" y="269"/>
      <point x="125" y="228"/>
      <point x="221" y="197" type="curve"/>
      <point x="270" y="180"/>
      <point x="322" y="171"/>
      <point x="322" y="128" type="curve"/>
      <point x="322" y="94"/>
      <point x="298" y="73"/>
      <point x="264" y="73" type="curve"/>
      <point x="220" y="73"/>
      <point x="194" y="88"/>
      <point x="154" y="113" type="curve"/>
      <point x="86" y="39"/>
      <point x="154" y="113"/>
      <point x="86" y="39" type="curve"/>
      <point x="142" y="-9"/>
      <point x="191" y="-26"/>
      <point x="261" y="-26" type="curve"/>
      <point x="371" y="-26"/>
      <point x="450" y="25"/>
      <point x="450" y="129" type="curve"/>
      <point x="449" y="217"/>
      <point x="391" y="264"/>
      <point x="305" y="292" type="curve"/>
      <point x="247" y="312"/>
      <point x="184" y="319"/>
      <point x="184" y="369" type="curve"/>
      <point x="184" y="413"/>
      <point x="213" y="437"/>
      <point x="258" y="451" type="curve"/>
      <point x="192" y="526"/>
      <point x="258" y="451"/>
    </contour>
    <contour>
      <point x="188" y="39" type="curve"/>
      <point x="188" y="159"/>
      <point x="188" y="38"/>
      <point x="188" y="158" type="curve"/>
      <point x="86" y="158"/>
      <point x="188" y="158"/>
      <point x="86" y="158" type="curve"/>
      <point x="86" y="38"/>
      <point x="86" y="159"/>
      <point x="86" y="39" type="curve"/>
      <point x="188" y="39"/>
      <point x="86" y="39"/>
    </contour>
    <contour>
      <point x="420" y="581" type="curve"/>
      <point x="420" y="701"/>
      <point x="420" y="581"/>
      <point x="420" y="701" type="curve"/>
      <point x="318" y="701"/>
      <point x="420" y="701"/>
      <point x="318" y="701" type="curve"/>
      <point x="318" y="581"/>
      <point x="318" y="701"/>
      <point x="318" y="581" type="curve"/>
      <point x="420" y="581"/>
      <point x="318" y="581"/>
    </contour>
  </outline>
</glyph>
<glyph name="dieresis" format="1">
  <advance width="396"/>
  <unicode hex="00A8"/>
  <outline>
    <contour>
      <point x="170" y="646" type="curve"/>
      <point x="170" y="690"/>
      <point x="140" y="712"/>
      <point x="98" y="712" type="curve"/>
      <point x="56" y="712"/>
      <point x="28" y="688"/>
      <point x="28" y="646" type="curve"/>
      <point x="170" y="646"/>
      <point x="29" y="646"/>
      <point x="170" y="646" type="curve"/>
      <point x="170" y="602"/>
      <point x="140" y="582"/>
      <point x="98" y="582" type="curve"/>
      <point x="55" y="582"/>
      <point x="28" y="603"/>
      <point x="28" y="646" type="curve"/>
      <point x="170" y="646"/>
      <point x="29" y="646"/>
    </contour>
    <contour>
      <point x="367" y="646" type="curve"/>
      <point x="367" y="690"/>
      <point x="336" y="712"/>
      <point x="295" y="712" type="curve"/>
      <point x="253" y="712"/>
      <point x="225" y="688"/>
      <point x="225" y="646" type="curve"/>
      <point x="366" y="646"/>
      <point x="226" y="646"/>
      <point x="367" y="646" type="curve"/>
      <point x="367" y="602"/>
      <point x="337" y="582"/>
      <point x="295" y="582" type="curve"/>
      <point x="252" y="582"/>
      <point x="225" y="603"/>
      <point x="225" y="646" type="curve"/>
      <point x="366" y="646"/>
      <point x="226" y="646"/>
    </contour>
    <contour>
      <point x="197" y="586" type="move" name="_top"/>
    </contour>
  </outline>
</glyph>
<glyph name="copyright" format="1">
  <advance width="755"/>
  <unicode hex="00A9"/>
  <outline>
    <contour>
      <point x="159" y="324" type="curve"/>
      <point x="159" y="465"/>
      <point x="244" y="564"/>
      <point x="381" y="564" type="curve"/>
      <point x="515" y="564"/>
      <point x="597" y="463"/>
      <point x="597" y="321" type="curve"/>
      <point x="597" y="185"/>
      <point x="519" y="85"/>
      <point x="388" y="85" type="curve"/>
      <point x="251" y="85"/>
      <point x="159" y="182"/>
      <point x="159" y="324" type="curve"/>
      <point x="52" y="324"/>
      <point x="161" y="324"/>
      <point x="55" y="324" type="curve"/>
      <point x="55" y="131"/>
      <point x="189" y="5"/>
      <point x="384" y="5" type="curve"/>
      <point x="573" y="5"/>
      <point x="700" y="134"/>
      <point x="700" y="325" type="curve"/>
      <point x="700" y="517"/>
      <point x="571" y="645"/>
      <point x="381" y="645" type="curve"/>
      <point x="188" y="645"/>
      <point x="55" y="517"/>
      <point x="55" y="324" type="curve"/>
      <point x="161" y="324"/>
      <point x="52" y="324"/>
    </contour>
    <contour>
      <point x="428" y="420" type="curve"/>
      <point x="428" y="408"/>
      <point x="428" y="388"/>
      <point x="428" y="372" type="curve"/>
      <point x="524" y="372"/>
      <point x="428" y="372"/>
      <point x="524" y="372" type="curve"/>
      <point x="524" y="403"/>
      <point x="524" y="439"/>
      <point x="524" y="464" type="curve"/>
      <point x="428" y="422"/>
      <point x="524" y="462"/>
    </contour>
    <contour>
      <point x="524" y="464" type="curve"/>
      <point x="486" y="498"/>
      <point x="441" y="511"/>
      <point x="387" y="511" type="curve"/>
      <point x="270" y="511"/>
      <point x="203" y="439"/>
      <point x="203" y="322" type="curve"/>
      <point x="203" y="210"/>
      <point x="262" y="139"/>
      <point x="372" y="139" type="curve"/>
      <point x="433" y="139"/>
      <point x="477" y="149"/>
      <point x="523" y="200" type="curve"/>
      <point x="462" y="251"/>
      <point x="523" y="200"/>
      <point x="462" y="251" type="curve"/>
      <point x="431" y="231"/>
      <point x="410" y="220"/>
      <point x="377" y="220" type="curve"/>
      <point x="321" y="220"/>
      <point x="303" y="266"/>
      <point x="303" y="326" type="curve"/>
      <point x="303" y="387"/>
      <point x="325" y="431"/>
      <point x="383" y="431" type="curve"/>
      <point x="401" y="431"/>
      <point x="415" y="427"/>
      <point x="428" y="420" type="curve"/>
      <point x="524" y="462"/>
      <point x="428" y="422"/>
    </contour>
  </outline>
</glyph>
<glyph name="ordfeminine" format="1">
  <advance width="434"/>
  <unicode hex="00AA"/>
  <outline>
    <contour>
      <point x="69" y="724" type="curve"/>
      <point x="69" y="657"/>
      <point x="69" y="718"/>
      <point x="69" y="651" type="curve"/>
      <point x="135" y="651"/>
      <point x="71" y="651"/>
      <point x="137" y="651" type="curve"/>
      <point x="137" y="718"/>
      <point x="137" y="657"/>
      <point x="137" y="724" type="curve"/>
      <point x="71" y="724"/>
      <point x="135" y="724"/>
    </contour>
    <contour>
      <point x="341" y="425" type="curve"/>
      <point x="341" y="507"/>
      <point x="341" y="584"/>
      <point x="341" y="666" type="curve"/>
      <point x="341" y="745"/>
      <point x="282" y="772"/>
      <point x="202" y="772" type="curve"/>
      <point x="144" y="772"/>
      <point x="102" y="753"/>
      <point x="69" y="724" type="curve"/>
      <point x="101" y="670"/>
      <point x="72" y="722"/>
      <point x="103" y="667" type="curve"/>
      <point x="123" y="686"/>
      <point x="151" y="705"/>
      <point x="191" y="705" type="curve"/>
      <point x="228" y="705"/>
      <point x="254" y="690"/>
      <point x="254" y="654" type="curve"/>
      <point x="254" y="576"/>
      <point x="254" y="502"/>
      <point x="254" y="425" type="curve"/>
      <point x="339" y="425"/>
      <point x="256" y="425"/>
    </contour>
    <contour>
      <point x="299" y="425" type="curve"/>
      <point x="327" y="425"/>
      <point x="353" y="425"/>
      <point x="381" y="425" type="curve"/>
      <point x="381" y="490"/>
      <point x="381" y="427"/>
      <point x="381" y="491" type="curve"/>
      <point x="303" y="491"/>
      <point x="377" y="491"/>
      <point x="299" y="491" type="curve"/>
      <point x="299" y="427"/>
      <point x="299" y="490"/>
    </contour>
    <contour>
      <point x="295" y="649" type="curve"/>
      <point x="251" y="644"/>
      <point x="223" y="642"/>
      <point x="178" y="636" type="curve"/>
      <point x="103" y="626"/>
      <point x="50" y="601"/>
      <point x="50" y="530" type="curve"/>
      <point x="50" y="459"/>
      <point x="94" y="422"/>
      <point x="168" y="422" type="curve"/>
      <point x="240" y="422"/>
      <point x="272" y="471"/>
      <point x="318" y="523" type="curve"/>
      <point x="277" y="557"/>
      <point x="317" y="524"/>
      <point x="276" y="558" type="curve"/>
      <point x="251" y="519"/>
      <point x="230" y="488"/>
      <point x="186" y="488" type="curve"/>
      <point x="152" y="488"/>
      <point x="134" y="503"/>
      <point x="134" y="533" type="curve"/>
      <point x="134" y="559"/>
      <point x="155" y="573"/>
      <point x="179" y="577" type="curve"/>
      <point x="227" y="583"/>
      <point x="251" y="586"/>
      <point x="299" y="593" type="curve"/>
      <point x="296" y="648"/>
      <point x="299" y="595"/>
    </contour>
  </outline>
</glyph>
<glyph name="guillemotleft" format="1">
  <advance width="526"/>
  <unicode hex="00AB"/>
  <outline>
    <contour>
      <point x="241" y="476" type="curve"/>
      <point x="197" y="445"/>
      <point x="94" y="378"/>
      <point x="49" y="347" type="curve"/>
      <point x="49" y="237"/>
      <point x="49" y="335"/>
      <point x="49" y="224" type="curve"/>
      <point x="94" y="254"/>
      <point x="197" y="329"/>
      <point x="241" y="359" type="curve"/>
      <point x="241" y="469"/>
      <point x="241" y="366"/>
    </contour>
    <contour>
      <point x="241" y="215" type="curve"/>
      <point x="197" y="245"/>
      <point x="94" y="317"/>
      <point x="49" y="347" type="curve"/>
      <point x="49" y="237"/>
      <point x="49" y="335"/>
      <point x="49" y="224" type="curve"/>
      <point x="94" y="194"/>
      <point x="197" y="128"/>
      <point x="241" y="98" type="curve"/>
      <point x="241" y="208"/>
      <point x="241" y="105"/>
    </contour>
    <contour>
      <point x="454" y="476" type="curve"/>
      <point x="410" y="445"/>
      <point x="307" y="378"/>
      <point x="262" y="347" type="curve"/>
      <point x="262" y="237"/>
      <point x="262" y="335"/>
      <point x="262" y="224" type="curve"/>
      <point x="307" y="254"/>
      <point x="410" y="329"/>
      <point x="454" y="359" type="curve"/>
      <point x="454" y="469"/>
      <point x="454" y="366"/>
    </contour>
    <contour>
      <point x="454" y="215" type="curve"/>
      <point x="410" y="245"/>
      <point x="307" y="317"/>
      <point x="262" y="347" type="curve"/>
      <point x="262" y="237"/>
      <point x="262" y="335"/>
      <point x="262" y="224" type="curve"/>
      <point x="307" y="194"/>
      <point x="410" y="128"/>
      <point x="454" y="98" type="curve"/>
      <point x="454" y="208"/>
      <point x="454" y="105"/>
    </contour>
  </outline>
</glyph>
<glyph name="logicalnot" format="1">
  <advance width="603"/>
  <unicode hex="00AC"/>
  <outline>
    <contour>
      <point x="77" y="259" type="curve"/>
      <point x="532" y="259" type="line"/>
      <point x="532" y="369"/>
      <point x="532" y="259"/>
      <point x="532" y="369" type="curve"/>
      <point x="77" y="369" type="line"/>
      <point x="77" y="259"/>
      <point x="77" y="369"/>
    </contour>
    <contour>
      <point x="532" y="140" type="curve"/>
      <point x="532" y="369" type="line"/>
      <point x="401" y="369"/>
      <point x="535" y="369"/>
      <point x="404" y="369" type="curve"/>
      <point x="404" y="140" type="line"/>
      <point x="535" y="140"/>
      <point x="401" y="140"/>
    </contour>
  </outline>
</glyph>
<glyph name="registered" format="1">
  <advance width="769"/>
  <unicode hex="00AE"/>
  <outline>
    <contour>
      <point x="147" y="322" type="curve"/>
      <point x="147" y="476"/>
      <point x="237" y="571"/>
      <point x="388" y="571" type="curve"/>
      <point x="537" y="571"/>
      <point x="623" y="473"/>
      <point x="623" y="320" type="curve"/>
      <point x="623" y="172"/>
      <point x="540" y="75"/>
      <point x="395" y="75" type="curve"/>
      <point x="242" y="75"/>
      <point x="147" y="168"/>
      <point x="147" y="322" type="curve"/>
      <point x="111" y="322"/>
      <point x="91" y="322"/>
      <point x="55" y="322" type="curve"/>
      <point x="55" y="121"/>
      <point x="187" y="4"/>
      <point x="391" y="4" type="curve"/>
      <point x="590" y="4"/>
      <point x="714" y="125"/>
      <point x="714" y="324" type="curve"/>
      <point x="714" y="523"/>
      <point x="588" y="644"/>
      <point x="388" y="644" type="curve"/>
      <point x="185" y="644"/>
      <point x="55" y="524"/>
      <point x="55" y="322" type="curve"/>
      <point x="91" y="322"/>
      <point x="111" y="322"/>
    </contour>
    <contour>
      <point x="459" y="142" type="curve"/>
      <point x="494" y="142"/>
      <point x="507" y="142"/>
      <point x="543" y="142" type="curve"/>
      <point x="543" y="222"/>
      <point x="543" y="142"/>
      <point x="543" y="222" type="curve"/>
      <point x="533" y="222"/>
      <point x="530" y="222"/>
      <point x="520" y="222" type="curve"/>
      <point x="443" y="142"/>
      <point x="536" y="222"/>
    </contour>
    <contour>
      <point x="372" y="507" type="curve"/>
      <point x="328" y="507"/>
      <point x="286" y="507"/>
      <point x="241" y="507" type="curve"/>
      <point x="241" y="426"/>
      <point x="241" y="507"/>
      <point x="241" y="426" type="curve"/>
      <point x="251" y="426"/>
      <point x="257" y="426"/>
      <point x="267" y="426" type="curve"/>
      <point x="372" y="507"/>
      <point x="267" y="426"/>
    </contour>
    <contour>
      <point x="372" y="222" type="curve"/>
      <point x="328" y="222"/>
      <point x="286" y="222"/>
      <point x="241" y="222" type="curve"/>
      <point x="241" y="142"/>
      <point x="241" y="222"/>
      <point x="241" y="142" type="curve"/>
      <point x="251" y="142"/>
      <point x="257" y="142"/>
      <point x="267" y="142" type="curve"/>
      <point x="372" y="222"/>
      <point x="267" y="142"/>
    </contour>
    <contour>
      <point x="267" y="142" type="curve"/>
      <point x="309" y="142"/>
      <point x="346" y="142"/>
      <point x="388" y="142" type="curve"/>
      <point x="388" y="222"/>
      <point x="388" y="142"/>
      <point x="388" y="222" type="curve"/>
      <point x="382" y="222"/>
      <point x="379" y="222"/>
      <point x="372" y="222" type="curve"/>
      <point x="267" y="142"/>
      <point x="372" y="222"/>
    </contour>
    <contour>
      <point x="358" y="318" type="curve"/>
      <point x="372" y="298"/>
      <point x="445" y="162"/>
      <point x="459" y="142" type="curve"/>
      <point x="536" y="222"/>
      <point x="443" y="142"/>
      <point x="520" y="222" type="curve"/>
      <point x="512" y="235"/>
      <point x="473" y="301"/>
      <point x="464" y="313" type="curve"/>
      <point x="334" y="313"/>
      <point x="488" y="318"/>
    </contour>
    <contour>
      <point x="365" y="222" type="curve"/>
      <point x="365" y="317"/>
      <point x="365" y="412"/>
      <point x="365" y="507" type="curve"/>
      <point x="259" y="426"/>
      <point x="372" y="507"/>
      <point x="267" y="426" type="curve"/>
      <point x="267" y="331"/>
      <point x="267" y="236"/>
      <point x="267" y="142" type="curve"/>
      <point x="372" y="222"/>
      <point x="259" y="142"/>
    </contour>
    <contour>
      <point x="322" y="272" type="curve"/>
      <point x="338" y="272"/>
      <point x="355" y="272"/>
      <point x="372" y="272" type="curve"/>
      <point x="461" y="272"/>
      <point x="522" y="305"/>
      <point x="522" y="392" type="curve"/>
      <point x="522" y="466"/>
      <point x="469" y="507"/>
      <point x="393" y="507" type="curve"/>
      <point x="386" y="507"/>
      <point x="379" y="507"/>
      <point x="372" y="507" type="curve"/>
      <point x="267" y="426"/>
      <point x="372" y="507"/>
      <point x="267" y="426" type="curve"/>
      <point x="302" y="426"/>
      <point x="338" y="426"/>
      <point x="373" y="426" type="curve"/>
      <point x="403" y="426"/>
      <point x="426" y="416"/>
      <point x="426" y="388" type="curve"/>
      <point x="426" y="364"/>
      <point x="411" y="352"/>
      <point x="386" y="352" type="curve"/>
      <point x="365" y="352"/>
      <point x="343" y="352"/>
      <point x="322" y="352" type="curve"/>
      <point x="322" y="272"/>
      <point x="322" y="352"/>
    </contour>
  </outline>
</glyph>
<glyph name="macron" format="1">
  <advance width="283"/>
  <unicode hex="00AF"/>
  <outline>
    <contour>
      <point x="234" y="678" type="curve"/>
      <point x="167" y="678"/>
      <point x="99" y="678"/>
      <point x="33" y="678" type="curve"/>
      <point x="33" y="578"/>
      <point x="33" y="678"/>
      <point x="33" y="578" type="curve"/>
      <point x="99" y="578"/>
      <point x="167" y="578"/>
      <point x="234" y="578" type="curve"/>
      <point x="234" y="678"/>
      <point x="234" y="578"/>
    </contour>
    <contour>
      <point x="134" y="578" type="move" name="_top"/>
    </contour>
  </outline>
</glyph>
<glyph name="degree" format="1">
  <advance width="480"/>
  <unicode hex="00B0"/>
  <outline>
    <contour>
      <point x="424" y="567" type="curve"/>
      <point x="424" y="681"/>
      <point x="353" y="751"/>
      <point x="239" y="751" type="curve"/>
      <point x="125" y="751"/>
      <point x="55" y="681"/>
      <point x="55" y="568" type="curve"/>
      <point x="119" y="568"/>
      <point x="101" y="568"/>
      <point x="165" y="568" type="curve"/>
      <point x="165" y="620"/>
      <point x="187" y="658"/>
      <point x="238" y="658" type="curve"/>
      <point x="287" y="658"/>
      <point x="312" y="621"/>
      <point x="312" y="567" type="curve"/>
      <point x="312" y="513"/>
      <point x="290" y="474"/>
      <point x="240" y="474" type="curve"/>
      <point x="188" y="474"/>
      <point x="165" y="513"/>
      <point x="165" y="568" type="curve"/>
      <point x="101" y="568"/>
      <point x="119" y="568"/>
      <point x="55" y="568" type="curve"/>
      <point x="55" y="453"/>
      <point x="124" y="380"/>
      <point x="239" y="380" type="curve"/>
      <point x="354" y="380"/>
      <point x="424" y="452"/>
    </contour>
  </outline>
</glyph>
<glyph name="plusminus" format="1">
  <advance width="668"/>
  <unicode hex="00B1"/>
  <outline>
    <contour>
      <point x="59" y="43" type="line"/>
      <point x="609" y="43" type="line"/>
      <point x="609" y="153" type="line"/>
      <point x="59" y="153" type="line"/>
    </contour>
    <contour>
      <point x="59" y="259" type="curve"/>
      <point x="609" y="259" type="line"/>
      <point x="609" y="369"/>
      <point x="609" y="259"/>
      <point x="609" y="369" type="curve"/>
      <point x="59" y="369" type="line"/>
      <point x="59" y="259"/>
      <point x="59" y="369"/>
    </contour>
    <contour>
      <point x="396" y="44" type="curve"/>
      <point x="396" y="582" type="line"/>
      <point x="265" y="582"/>
      <point x="405" y="582"/>
      <point x="274" y="582" type="curve"/>
      <point x="274" y="44" type="line"/>
      <point x="405" y="44"/>
      <point x="265" y="44"/>
    </contour>
  </outline>
</glyph>
<glyph name="twosuperior" format="1">
  <advance width="461"/>
  <unicode hex="00B2"/>
  <outline>
    <contour>
      <point x="408" y="350" type="curve"/>
      <point x="408" y="396"/>
      <point x="408" y="439"/>
      <point x="408" y="486" type="curve"/>
      <point x="312" y="486"/>
      <point x="421" y="486"/>
      <point x="325" y="486" type="curve"/>
      <point x="325" y="468"/>
      <point x="325" y="453"/>
      <point x="325" y="436" type="curve"/>
      <point x="424" y="353"/>
      <point x="309" y="432"/>
    </contour>
    <contour>
      <point x="63" y="350" type="curve"/>
      <point x="187" y="350"/>
      <point x="309" y="350"/>
      <point x="408" y="350" type="curve"/>
      <point x="309" y="432"/>
      <point x="424" y="353"/>
      <point x="325" y="436" type="curve"/>
      <point x="242" y="436"/>
      <point x="146" y="436"/>
      <point x="63" y="436" type="curve"/>
      <point x="63" y="350"/>
      <point x="63" y="436"/>
    </contour>
    <contour>
      <point x="158" y="644" type="curve"/>
      <point x="174" y="675"/>
      <point x="192" y="698"/>
      <point x="226" y="698" type="curve"/>
      <point x="260" y="698"/>
      <point x="280" y="677"/>
      <point x="280" y="643" type="curve"/>
      <point x="280" y="608"/>
      <point x="256" y="589"/>
      <point x="230" y="565" type="curve"/>
      <point x="174" y="522"/>
      <point x="119" y="479"/>
      <point x="63" y="436" type="curve"/>
      <point x="65" y="351"/>
      <point x="64" y="436"/>
      <point x="66" y="351" type="curve"/>
      <point x="147" y="403"/>
      <point x="235" y="449"/>
      <point x="296" y="498" type="curve"/>
      <point x="348" y="544"/>
      <point x="390" y="579"/>
      <point x="390" y="648" type="curve"/>
      <point x="390" y="736"/>
      <point x="326" y="784"/>
      <point x="234" y="784" type="curve"/>
      <point x="161" y="784"/>
      <point x="107" y="758"/>
      <point x="78" y="681" type="curve"/>
      <point x="158" y="644"/>
      <point x="78" y="681"/>
    </contour>
    <contour>
      <point x="236" y="785" type="move" name="_top"/>
    </contour>
    <contour>
      <point x="232" y="350" type="move" name="_bottom"/>
    </contour>
  </outline>
</glyph>
<glyph name="threesuperior" format="1">
  <advance width="416"/>
  <unicode hex="00B3"/>
  <outline>
    <contour>
      <point x="114" y="664" type="curve"/>
      <point x="135" y="683"/>
      <point x="156" y="696"/>
      <point x="180" y="696" type="curve"/>
      <point x="212" y="696"/>
      <point x="234" y="681"/>
      <point x="234" y="650" type="curve"/>
      <point x="234" y="614"/>
      <point x="189" y="604"/>
      <point x="143" y="602" type="curve"/>
      <point x="143" y="529"/>
      <point x="143" y="602"/>
      <point x="143" y="529" type="curve"/>
      <point x="254" y="532"/>
      <point x="347" y="560"/>
      <point x="347" y="657" type="curve"/>
      <point x="347" y="743"/>
      <point x="282" y="781"/>
      <point x="191" y="781" type="curve"/>
      <point x="137" y="781"/>
      <point x="88" y="759"/>
      <point x="54" y="722" type="curve"/>
      <point x="114" y="664"/>
      <point x="54" y="722"/>
    </contour>
    <contour>
      <point x="53" y="379" type="curve"/>
      <point x="90" y="356"/>
      <point x="128" y="342"/>
      <point x="172" y="342" type="curve"/>
      <point x="282" y="340"/>
      <point x="362" y="378"/>
      <point x="361" y="477" type="curve"/>
      <point x="361" y="577"/>
      <point x="258" y="589"/>
      <point x="143" y="593" type="curve"/>
      <point x="143" y="528"/>
      <point x="143" y="593"/>
      <point x="143" y="528" type="curve"/>
      <point x="199" y="526"/>
      <point x="247" y="514"/>
      <point x="247" y="474" type="curve"/>
      <point x="247" y="441"/>
      <point x="220" y="424"/>
      <point x="182" y="426" type="curve"/>
      <point x="157" y="426"/>
      <point x="132" y="431"/>
      <point x="105" y="445" type="curve"/>
      <point x="53" y="379"/>
      <point x="105" y="445"/>
    </contour>
    <contour>
      <point x="202" y="782" type="move" name="_top"/>
    </contour>
    <contour>
      <point x="197" y="342" type="move" name="_bottom"/>
    </contour>
  </outline>
</glyph>
<glyph name="acute" format="1">
  <advance width="466"/>
  <unicode hex="00B4"/>
  <outline>
    <contour>
      <point x="175" y="590" type="line"/>
      <point x="313" y="756" type="line"/>
      <point x="149" y="756" type="line"/>
      <point x="49" y="590" type="line"/>
    </contour>
    <contour>
      <point x="118" y="591" type="move" name="_top"/>
    </contour>
  </outline>
</glyph>
<glyph name="paragraph" format="1">
  <advance width="783"/>
  <unicode hex="00B6"/>
  <outline>
    <contour>
      <point x="426" y="622" type="curve"/>
      <point x="578" y="622"/>
      <point x="426" y="622"/>
      <point x="578" y="622" type="curve"/>
      <point x="578" y="722"/>
      <point x="578" y="622"/>
      <point x="578" y="722" type="curve"/>
      <point x="527" y="722"/>
      <point x="476" y="722"/>
      <point x="426" y="722" type="curve"/>
      <point x="426" y="622"/>
      <point x="426" y="722"/>
    </contour>
    <contour>
      <point x="426" y="0" type="curve"/>
      <point x="476" y="0"/>
      <point x="527" y="0"/>
      <point x="578" y="0" type="curve"/>
      <point x="578" y="100"/>
      <point x="578" y="0"/>
      <point x="578" y="100" type="curve"/>
      <point x="426" y="100"/>
      <point x="578" y="100"/>
      <point x="426" y="100" type="curve"/>
      <point x="426" y="0"/>
      <point x="426" y="100"/>
    </contour>
    <contour>
      <point x="426" y="100" type="curve"/>
      <point x="277" y="100"/>
      <point x="426" y="100"/>
      <point x="277" y="100" type="curve"/>
      <point x="277" y="0"/>
      <point x="277" y="100"/>
      <point x="277" y="0" type="curve"/>
      <point x="426" y="0"/>
      <point x="376" y="0"/>
      <point x="426" y="0" type="curve"/>
      <point x="426" y="100"/>
      <point x="426" y="0"/>
    </contour>
    <contour>
      <point x="404" y="384" type="curve"/>
      <point x="361" y="363"/>
      <point x="329" y="350"/>
      <point x="281" y="350" type="curve"/>
      <point x="208" y="350"/>
      <point x="168" y="400"/>
      <point x="168" y="476" type="curve"/>
      <point x="168" y="567"/>
      <point x="228" y="622"/>
      <point x="319" y="622" type="curve"/>
      <point x="354" y="622"/>
      <point x="389" y="622"/>
      <point x="423" y="622" type="curve"/>
      <point x="423" y="722"/>
      <point x="423" y="622"/>
      <point x="423" y="722" type="curve"/>
      <point x="383" y="722"/>
      <point x="342" y="722"/>
      <point x="301" y="722" type="curve"/>
      <point x="145" y="722"/>
      <point x="37" y="632"/>
      <point x="37" y="481" type="curve"/>
      <point x="37" y="335"/>
      <point x="142" y="256"/>
      <point x="292" y="253" type="curve"/>
      <point x="349" y="253"/>
      <point x="396" y="274"/>
      <point x="445" y="299" type="curve"/>
      <point x="404" y="384"/>
      <point x="444" y="301"/>
    </contour>
    <contour>
      <point x="492" y="0" type="curve"/>
      <point x="492" y="241"/>
      <point x="492" y="481"/>
      <point x="492" y="722" type="curve"/>
      <point x="361" y="722"/>
      <point x="492" y="722"/>
      <point x="361" y="722" type="curve"/>
      <point x="361" y="481"/>
      <point x="361" y="241"/>
      <point x="361" y="0" type="curve"/>
      <point x="492" y="0"/>
      <point x="361" y="0"/>
    </contour>
    <contour>
      <point x="703" y="0" type="curve"/>
      <point x="703" y="241"/>
      <point x="703" y="481"/>
      <point x="703" y="722" type="curve"/>
      <point x="571" y="722"/>
      <point x="703" y="722"/>
      <point x="571" y="722" type="curve"/>
      <point x="571" y="481"/>
      <point x="571" y="241"/>
      <point x="571" y="0" type="curve"/>
      <point x="703" y="0"/>
      <point x="571" y="0"/>
    </contour>
  </outline>
</glyph>
<glyph name="periodcentered" format="1">
  <advance width="259"/>
  <unicode hex="00B7"/>
  <outline>
    <contour>
      <point x="201" y="440" type="curve"/>
      <point x="201" y="484"/>
      <point x="170" y="506"/>
      <point x="128" y="506" type="curve"/>
      <point x="86" y="506"/>
      <point x="58" y="482"/>
      <point x="58" y="440" type="curve"/>
      <point x="200" y="440"/>
      <point x="59" y="440"/>
      <point x="201" y="440" type="curve"/>
      <point x="201" y="395"/>
      <point x="171" y="375"/>
      <point x="128" y="375" type="curve"/>
      <point x="85" y="375"/>
      <point x="58" y="397"/>
      <point x="58" y="440" type="curve"/>
      <point x="200" y="440"/>
      <point x="59" y="440"/>
    </contour>
  </outline>
</glyph>
<glyph name="cedilla" format="1">
  <advance width="375"/>
  <unicode hex="00B8"/>
  <outline>
    <contour>
      <point x="142" y="150" type="curve"/>
      <point x="130" y="128"/>
      <point x="84" y="39"/>
      <point x="72" y="17" type="curve"/>
      <point x="162" y="-63"/>
      <point x="72" y="17"/>
      <point x="162" y="-63" type="curve"/>
      <point x="176" y="-37"/>
      <point x="229" y="54"/>
      <point x="243" y="81" type="curve"/>
      <point x="142" y="150"/>
      <point x="243" y="81"/>
    </contour>
    <contour>
      <point x="162" y="-63" type="curve"/>
      <point x="167" y="-59"/>
      <point x="172" y="-55"/>
      <point x="179" y="-55" type="curve"/>
      <point x="189" y="-55"/>
      <point x="196" y="-61"/>
      <point x="196" y="-73" type="curve"/>
      <point x="196" y="-88"/>
      <point x="182" y="-94"/>
      <point x="165" y="-94" type="curve"/>
      <point x="144" y="-94"/>
      <point x="127" y="-89"/>
      <point x="105" y="-78" type="curve"/>
      <point x="59" y="-152"/>
      <point x="105" y="-78"/>
      <point x="59" y="-152" type="curve"/>
      <point x="92" y="-170"/>
      <point x="121" y="-179"/>
      <point x="159" y="-179" type="curve"/>
      <point x="234" y="-179"/>
      <point x="289" y="-145"/>
      <point x="289" y="-70" type="curve"/>
      <point x="289" y="-1"/>
      <point x="242" y="40"/>
      <point x="172" y="40" type="curve"/>
      <point x="134" y="40"/>
      <point x="106" y="34"/>
      <point x="72" y="17" type="curve"/>
      <point x="162" y="-63"/>
      <point x="72" y="17"/>
    </contour>
    <contour>
      <point x="232" y="81" type="move" name="_bottom"/>
    </contour>
  </outline>
</glyph>
<glyph name="onesuperior" format="1">
  <advance width="367"/>
  <unicode hex="00B9"/>
  <outline>
    <contour>
      <point x="148" y="350" type="curve"/>
      <point x="199" y="350"/>
      <point x="260" y="350"/>
      <point x="311" y="350" type="curve"/>
      <point x="311" y="436"/>
      <point x="311" y="348"/>
      <point x="311" y="434" type="curve"/>
      <point x="298" y="434"/>
      <point x="274" y="434"/>
      <point x="261" y="434" type="curve"/>
      <point x="148" y="348"/>
      <point x="261" y="436"/>
    </contour>
    <contour>
      <point x="261" y="434" type="curve"/>
      <point x="209" y="434"/>
      <point x="147" y="434"/>
      <point x="94" y="434" type="curve"/>
      <point x="94" y="348"/>
      <point x="94" y="436"/>
      <point x="94" y="350" type="curve"/>
      <point x="109" y="350"/>
      <point x="133" y="350"/>
      <point x="148" y="350" type="curve"/>
      <point x="261" y="436"/>
      <point x="148" y="348"/>
    </contour>
    <contour>
      <point x="101" y="616" type="line"/>
      <point x="260" y="773" type="line"/>
      <point x="148" y="775" type="line"/>
      <point x="43" y="680" type="line"/>
    </contour>
    <contour>
      <point x="261" y="434" type="curve"/>
      <point x="261" y="775" type="line"/>
      <point x="148" y="775" type="line"/>
      <point x="148" y="350" type="line"/>
      <point x="261" y="436"/>
      <point x="148" y="348"/>
    </contour>
    <contour>
      <point x="194" y="774" type="move" name="_top"/>
    </contour>
    <contour>
      <point x="205" y="350" type="move" name="_bottom"/>
    </contour>
  </outline>
</glyph>
<glyph name="ordmasculine" format="1">
  <advance width="424"/>
  <unicode hex="00BA"/>
  <outline>
    <contour>
      <point x="128" y="598" type="curve"/>
      <point x="128" y="657"/>
      <point x="151" y="705"/>
      <point x="209" y="705" type="curve"/>
      <point x="268" y="705"/>
      <point x="292" y="658"/>
      <point x="292" y="597" type="curve"/>
      <point x="292" y="534"/>
      <point x="270" y="489"/>
      <point x="215" y="489" type="curve"/>
      <point x="152" y="489"/>
      <point x="128" y="534"/>
      <point x="128" y="598" type="curve"/>
      <point x="100" y="598"/>
      <point x="73" y="598"/>
      <point x="45" y="598" type="curve"/>
      <point x="45" y="488"/>
      <point x="105" y="421"/>
      <point x="211" y="421" type="curve"/>
      <point x="317" y="421"/>
      <point x="379" y="487"/>
      <point x="379" y="597" type="curve"/>
      <point x="379" y="705"/>
      <point x="319" y="773"/>
      <point x="213" y="773" type="curve"/>
      <point x="105" y="773"/>
      <point x="45" y="705"/>
      <point x="45" y="598" type="curve"/>
      <point x="73" y="598"/>
      <point x="100" y="598"/>
    </contour>
  </outline>
</glyph>
